<svg width="90" height="90" viewBox="0 0 90 90" fill="none" xmlns="http://www.w3.org/2000/svg">
<ellipse rx="35.3699" ry="27.6321" transform="matrix(0.986021 0.166619 -0.163254 0.986584 42.8937 45.5717)" fill="#39796B" fill-opacity="0.6"/>
<ellipse rx="34.1126" ry="29.7051" transform="matrix(0.754657 -0.656119 0.648259 0.76142 44.9999 44.9998)" fill="#DACDCB" fill-opacity="0.6"/>
<ellipse rx="23.961" ry="27.7295" transform="matrix(0.599568 -0.800324 0.794232 0.607615 42.2591 42.9457)" fill="#004D40" fill-opacity="0.6"/>
<g filter="url(#filter0_d_181_19424)">
<path d="M21.6934 51.3135V53H13.4111V51.3135H21.6934ZM13.8301 37.3594V53H11.7568V37.3594H13.8301ZM20.5977 44.084V45.7705H13.4111V44.084H20.5977ZM21.5859 37.3594V39.0566H13.4111V37.3594H21.5859ZM33.7461 51.3135V53H25.9258V51.3135H33.7461ZM26.334 37.3594V53H24.2607V37.3594H26.334ZM46.0566 51.3135V53H37.7744V51.3135H46.0566ZM38.1934 37.3594V53H36.1201V37.3594H38.1934ZM44.9609 44.084V45.7705H37.7744V44.084H44.9609ZM45.9492 37.3594V39.0566H37.7744V37.3594H45.9492ZM60.6553 37.3594V53H58.5713L50.6973 40.9365V53H48.624V37.3594H50.6973L58.6035 49.4551V37.3594H60.6553ZM70.3125 38.7451L65.1348 53H63.0186L68.9805 37.3594H70.3447L70.3125 38.7451ZM74.6523 53L69.4639 38.7451L69.4316 37.3594H70.7959L76.7793 53H74.6523ZM74.3838 47.21V48.9072H65.5967V47.21H74.3838Z" fill="white"/>
</g>
<defs>
<filter id="filter0_d_181_19424" x="6.75684" y="36.3594" width="75.0225" height="25.6406" filterUnits="userSpaceOnUse" color-interpolation-filters="sRGB">
<feFlood flood-opacity="0" result="BackgroundImageFix"/>
<feColorMatrix in="SourceAlpha" type="matrix" values="0 0 0 0 0 0 0 0 0 0 0 0 0 0 0 0 0 0 127 0" result="hardAlpha"/>
<feOffset dy="4"/>
<feGaussianBlur stdDeviation="2.5"/>
<feComposite in2="hardAlpha" operator="out"/>
<feColorMatrix type="matrix" values="0 0 0 0 0 0 0 0 0 0 0 0 0 0 0 0 0 0 0.37 0"/>
<feBlend mode="normal" in2="BackgroundImageFix" result="effect1_dropShadow_181_19424"/>
<feBlend mode="normal" in="SourceGraphic" in2="effect1_dropShadow_181_19424" result="shape"/>
</filter>
</defs>
</svg>
