<svg width="300" height="85" viewBox="0 0 300 85" fill="none" xmlns="http://www.w3.org/2000/svg">
<rect x="171" width="59.7336" height="59.7336" transform="rotate(45 171 0)" fill="#BEA19E"/>
<path d="M146.534 36.128V48H145.062V46.656C144.721 47.1253 144.289 47.4827 143.766 47.728C143.243 47.9733 142.667 48.096 142.038 48.096C141.217 48.096 140.481 47.9147 139.83 47.552C139.179 47.1893 138.667 46.6827 138.294 46.032C137.931 45.3707 137.75 44.6133 137.75 43.76C137.75 42.9067 137.931 42.1547 138.294 41.504C138.667 40.8533 139.179 40.3467 139.83 39.984C140.481 39.6213 141.217 39.44 142.038 39.44C142.646 39.44 143.206 39.5573 143.718 39.792C144.23 40.016 144.657 40.352 144.998 40.8V36.128H146.534ZM142.166 46.752C142.699 46.752 143.185 46.6293 143.622 46.384C144.059 46.128 144.401 45.776 144.646 45.328C144.891 44.8693 145.014 44.3467 145.014 43.76C145.014 43.1733 144.891 42.656 144.646 42.208C144.401 41.7493 144.059 41.3973 143.622 41.152C143.185 40.9067 142.699 40.784 142.166 40.784C141.622 40.784 141.131 40.9067 140.694 41.152C140.267 41.3973 139.926 41.7493 139.67 42.208C139.425 42.656 139.302 43.1733 139.302 43.76C139.302 44.3467 139.425 44.8693 139.67 45.328C139.926 45.776 140.267 46.128 140.694 46.384C141.131 46.6293 141.622 46.752 142.166 46.752ZM157.104 43.808C157.104 43.9253 157.094 44.08 157.072 44.272H150.192C150.288 45.0187 150.614 45.6213 151.168 46.08C151.734 46.528 152.432 46.752 153.264 46.752C154.278 46.752 155.094 46.4107 155.712 45.728L156.56 46.72C156.176 47.168 155.696 47.5093 155.12 47.744C154.555 47.9787 153.92 48.096 153.216 48.096C152.32 48.096 151.526 47.9147 150.832 47.552C150.139 47.1787 149.6 46.6613 149.216 46C148.843 45.3387 148.656 44.592 148.656 43.76C148.656 42.9387 148.838 42.1973 149.2 41.536C149.574 40.8747 150.08 40.3627 150.72 40C151.371 39.6267 152.102 39.44 152.912 39.44C153.723 39.44 154.443 39.6267 155.072 40C155.712 40.3627 156.208 40.8747 156.56 41.536C156.923 42.1973 157.104 42.9547 157.104 43.808ZM152.912 40.736C152.176 40.736 151.558 40.96 151.056 41.408C150.566 41.856 150.278 42.4427 150.192 43.168H155.632C155.547 42.4533 155.254 41.872 154.752 41.424C154.262 40.9653 153.648 40.736 152.912 40.736ZM162.933 48.096C162.069 48.096 161.296 47.9093 160.613 47.536C159.941 47.1627 159.413 46.6507 159.029 46C158.645 45.3387 158.453 44.592 158.453 43.76C158.453 42.928 158.645 42.1867 159.029 41.536C159.413 40.8747 159.941 40.3627 160.613 40C161.296 39.6267 162.069 39.44 162.933 39.44C163.701 39.44 164.384 39.5947 164.981 39.904C165.589 40.2133 166.059 40.6613 166.389 41.248L165.221 42C164.955 41.5947 164.624 41.2907 164.229 41.088C163.835 40.8853 163.397 40.784 162.917 40.784C162.363 40.784 161.861 40.9067 161.413 41.152C160.976 41.3973 160.629 41.7493 160.373 42.208C160.128 42.656 160.005 43.1733 160.005 43.76C160.005 44.3573 160.128 44.8853 160.373 45.344C160.629 45.792 160.976 46.1387 161.413 46.384C161.861 46.6293 162.363 46.752 162.917 46.752C163.397 46.752 163.835 46.6507 164.229 46.448C164.624 46.2453 164.955 45.9413 165.221 45.536L166.389 46.272C166.059 46.8587 165.589 47.312 164.981 47.632C164.384 47.9413 163.701 48.096 162.933 48.096ZM168.378 39.52H169.914V48H168.378V39.52ZM169.146 37.888C168.847 37.888 168.597 37.792 168.394 37.6C168.202 37.408 168.106 37.1733 168.106 36.896C168.106 36.6187 168.202 36.384 168.394 36.192C168.597 35.9893 168.847 35.888 169.146 35.888C169.445 35.888 169.69 35.984 169.882 36.176C170.085 36.3573 170.186 36.5867 170.186 36.864C170.186 37.152 170.085 37.3973 169.882 37.6C169.69 37.792 169.445 37.888 169.146 37.888ZM175.279 48.096C174.585 48.096 173.919 48.0053 173.279 47.824C172.639 47.632 172.137 47.392 171.775 47.104L172.415 45.888C172.788 46.1547 173.241 46.368 173.775 46.528C174.308 46.688 174.847 46.768 175.391 46.768C176.735 46.768 177.407 46.384 177.407 45.616C177.407 45.36 177.316 45.1573 177.135 45.008C176.953 44.8587 176.724 44.752 176.447 44.688C176.18 44.6133 175.796 44.5333 175.295 44.448C174.612 44.3413 174.052 44.2187 173.615 44.08C173.188 43.9413 172.82 43.7067 172.511 43.376C172.201 43.0453 172.047 42.5813 172.047 41.984C172.047 41.216 172.367 40.6027 173.007 40.144C173.647 39.6747 174.505 39.44 175.583 39.44C176.148 39.44 176.713 39.5093 177.279 39.648C177.844 39.7867 178.308 39.9733 178.671 40.208L178.015 41.424C177.321 40.976 176.505 40.752 175.567 40.752C174.916 40.752 174.42 40.8587 174.079 41.072C173.737 41.2853 173.567 41.568 173.567 41.92C173.567 42.1973 173.663 42.416 173.855 42.576C174.047 42.736 174.281 42.8533 174.559 42.928C174.847 43.0027 175.247 43.088 175.759 43.184C176.441 43.3013 176.991 43.4293 177.407 43.568C177.833 43.696 178.196 43.92 178.495 44.24C178.793 44.56 178.943 45.008 178.943 45.584C178.943 46.352 178.612 46.9653 177.951 47.424C177.3 47.872 176.409 48.096 175.279 48.096ZM180.862 39.52H182.398V48H180.862V39.52ZM181.63 37.888C181.332 37.888 181.081 37.792 180.878 37.6C180.686 37.408 180.59 37.1733 180.59 36.896C180.59 36.6187 180.686 36.384 180.878 36.192C181.081 35.9893 181.332 35.888 181.63 35.888C181.929 35.888 182.174 35.984 182.366 36.176C182.569 36.3573 182.67 36.5867 182.67 36.864C182.67 37.152 182.569 37.3973 182.366 37.6C182.174 37.792 181.929 37.888 181.63 37.888ZM188.963 48.096C188.12 48.096 187.363 47.9093 186.691 47.536C186.019 47.1627 185.491 46.6507 185.107 46C184.734 45.3387 184.547 44.592 184.547 43.76C184.547 42.928 184.734 42.1867 185.107 41.536C185.491 40.8747 186.019 40.3627 186.691 40C187.363 39.6267 188.12 39.44 188.963 39.44C189.806 39.44 190.558 39.6267 191.219 40C191.891 40.3627 192.414 40.8747 192.787 41.536C193.171 42.1867 193.363 42.928 193.363 43.76C193.363 44.592 193.171 45.3387 192.787 46C192.414 46.6507 191.891 47.1627 191.219 47.536C190.558 47.9093 189.806 48.096 188.963 48.096ZM188.963 46.752C189.507 46.752 189.992 46.6293 190.419 46.384C190.856 46.128 191.198 45.776 191.443 45.328C191.688 44.8693 191.811 44.3467 191.811 43.76C191.811 43.1733 191.688 42.656 191.443 42.208C191.198 41.7493 190.856 41.3973 190.419 41.152C189.992 40.9067 189.507 40.784 188.963 40.784C188.419 40.784 187.928 40.9067 187.491 41.152C187.064 41.3973 186.723 41.7493 186.467 42.208C186.222 42.656 186.099 43.1733 186.099 43.76C186.099 44.3467 186.222 44.8693 186.467 45.328C186.723 45.776 187.064 46.128 187.491 46.384C187.928 46.6293 188.419 46.752 188.963 46.752ZM200.015 39.44C201.093 39.44 201.946 39.7547 202.575 40.384C203.215 41.0027 203.535 41.9147 203.535 43.12V48H201.999V43.296C201.999 42.4747 201.802 41.856 201.407 41.44C201.013 41.024 200.447 40.816 199.711 40.816C198.879 40.816 198.223 41.0613 197.743 41.552C197.263 42.032 197.023 42.7253 197.023 43.632V48H195.487V39.52H196.959V40.8C197.269 40.3627 197.685 40.0267 198.207 39.792C198.741 39.5573 199.343 39.44 200.015 39.44Z" fill="white"/>
<rect y="18" width="110" height="43" fill="#BEA19E"/>
<ellipse cx="266.5" cy="40" rx="33.5" ry="33" fill="#BEA19E"/>
<path d="M245.544 37.44C246.717 37.44 247.613 37.728 248.232 38.304C248.861 38.88 249.176 39.7387 249.176 40.88V46H247.72V44.88C247.464 45.2747 247.096 45.5787 246.616 45.792C246.147 45.9947 245.587 46.096 244.936 46.096C243.987 46.096 243.224 45.8667 242.648 45.408C242.083 44.9493 241.8 44.3467 241.8 43.6C241.8 42.8533 242.072 42.256 242.616 41.808C243.16 41.3493 244.024 41.12 245.208 41.12H247.64V40.816C247.64 40.1547 247.448 39.648 247.064 39.296C246.68 38.944 246.115 38.768 245.368 38.768C244.867 38.768 244.376 38.8533 243.896 39.024C243.416 39.184 243.011 39.4027 242.68 39.68L242.04 38.528C242.477 38.176 243 37.9093 243.608 37.728C244.216 37.536 244.861 37.44 245.544 37.44ZM245.192 44.912C245.779 44.912 246.285 44.784 246.712 44.528C247.139 44.2613 247.448 43.888 247.64 43.408V42.224H245.272C243.971 42.224 243.32 42.6613 243.32 43.536C243.32 43.9627 243.485 44.2987 243.816 44.544C244.147 44.7893 244.605 44.912 245.192 44.912ZM255.761 46.096C254.897 46.096 254.124 45.9093 253.441 45.536C252.769 45.1627 252.241 44.6507 251.857 44C251.473 43.3387 251.281 42.592 251.281 41.76C251.281 40.928 251.473 40.1867 251.857 39.536C252.241 38.8747 252.769 38.3627 253.441 38C254.124 37.6267 254.897 37.44 255.761 37.44C256.529 37.44 257.212 37.5947 257.809 37.904C258.417 38.2133 258.887 38.6613 259.217 39.248L258.049 40C257.783 39.5947 257.452 39.2907 257.057 39.088C256.663 38.8853 256.225 38.784 255.745 38.784C255.191 38.784 254.689 38.9067 254.241 39.152C253.804 39.3973 253.457 39.7493 253.201 40.208C252.956 40.656 252.833 41.1733 252.833 41.76C252.833 42.3573 252.956 42.8853 253.201 43.344C253.457 43.792 253.804 44.1387 254.241 44.384C254.689 44.6293 255.191 44.752 255.745 44.752C256.225 44.752 256.663 44.6507 257.057 44.448C257.452 44.2453 257.783 43.9413 258.049 43.536L259.217 44.272C258.887 44.8587 258.417 45.312 257.809 45.632C257.212 45.9413 256.529 46.096 255.761 46.096ZM266.083 45.504C265.859 45.696 265.582 45.8453 265.251 45.952C264.921 46.048 264.579 46.096 264.227 46.096C263.374 46.096 262.713 45.8667 262.243 45.408C261.774 44.9493 261.539 44.2933 261.539 43.44V38.784H260.099V37.52H261.539V35.664H263.075V37.52H265.507V38.784H263.075V43.376C263.075 43.8347 263.187 44.1867 263.411 44.432C263.646 44.6773 263.977 44.8 264.403 44.8C264.873 44.8 265.273 44.6667 265.603 44.4L266.083 45.504ZM267.94 37.52H269.476V46H267.94V37.52ZM268.708 35.888C268.41 35.888 268.159 35.792 267.956 35.6C267.764 35.408 267.668 35.1733 267.668 34.896C267.668 34.6187 267.764 34.384 267.956 34.192C268.159 33.9893 268.41 33.888 268.708 33.888C269.007 33.888 269.252 33.984 269.444 34.176C269.647 34.3573 269.748 34.5867 269.748 34.864C269.748 35.152 269.647 35.3973 269.444 35.6C269.252 35.792 269.007 35.888 268.708 35.888ZM276.041 46.096C275.198 46.096 274.441 45.9093 273.769 45.536C273.097 45.1627 272.569 44.6507 272.185 44C271.812 43.3387 271.625 42.592 271.625 41.76C271.625 40.928 271.812 40.1867 272.185 39.536C272.569 38.8747 273.097 38.3627 273.769 38C274.441 37.6267 275.198 37.44 276.041 37.44C276.884 37.44 277.636 37.6267 278.297 38C278.969 38.3627 279.492 38.8747 279.865 39.536C280.249 40.1867 280.441 40.928 280.441 41.76C280.441 42.592 280.249 43.3387 279.865 44C279.492 44.6507 278.969 45.1627 278.297 45.536C277.636 45.9093 276.884 46.096 276.041 46.096ZM276.041 44.752C276.585 44.752 277.07 44.6293 277.497 44.384C277.934 44.128 278.276 43.776 278.521 43.328C278.766 42.8693 278.889 42.3467 278.889 41.76C278.889 41.1733 278.766 40.656 278.521 40.208C278.276 39.7493 277.934 39.3973 277.497 39.152C277.07 38.9067 276.585 38.784 276.041 38.784C275.497 38.784 275.006 38.9067 274.569 39.152C274.142 39.3973 273.801 39.7493 273.545 40.208C273.3 40.656 273.177 41.1733 273.177 41.76C273.177 42.3467 273.3 42.8693 273.545 43.328C273.801 43.776 274.142 44.128 274.569 44.384C275.006 44.6293 275.497 44.752 276.041 44.752ZM287.093 37.44C288.171 37.44 289.024 37.7547 289.653 38.384C290.293 39.0027 290.613 39.9147 290.613 41.12V46H289.077V41.296C289.077 40.4747 288.88 39.856 288.485 39.44C288.091 39.024 287.525 38.816 286.789 38.816C285.957 38.816 285.301 39.0613 284.821 39.552C284.341 40.032 284.101 40.7253 284.101 41.632V46H282.565V37.52H284.037V38.8C284.347 38.3627 284.763 38.0267 285.285 37.792C285.819 37.5573 286.421 37.44 287.093 37.44Z" fill="white"/>
<path d="M35.456 34.128V46H33.984V44.656C33.6427 45.1253 33.2107 45.4827 32.688 45.728C32.1653 45.9733 31.5893 46.096 30.96 46.096C30.1387 46.096 29.4027 45.9147 28.752 45.552C28.1013 45.1893 27.5893 44.6827 27.216 44.032C26.8533 43.3707 26.672 42.6133 26.672 41.76C26.672 40.9067 26.8533 40.1547 27.216 39.504C27.5893 38.8533 28.1013 38.3467 28.752 37.984C29.4027 37.6213 30.1387 37.44 30.96 37.44C31.568 37.44 32.128 37.5573 32.64 37.792C33.152 38.016 33.5787 38.352 33.92 38.8V34.128H35.456ZM31.088 44.752C31.6213 44.752 32.1067 44.6293 32.544 44.384C32.9813 44.128 33.3227 43.776 33.568 43.328C33.8133 42.8693 33.936 42.3467 33.936 41.76C33.936 41.1733 33.8133 40.656 33.568 40.208C33.3227 39.7493 32.9813 39.3973 32.544 39.152C32.1067 38.9067 31.6213 38.784 31.088 38.784C30.544 38.784 30.0533 38.9067 29.616 39.152C29.1893 39.3973 28.848 39.7493 28.592 40.208C28.3467 40.656 28.224 41.1733 28.224 41.76C28.224 42.3467 28.3467 42.8693 28.592 43.328C28.848 43.776 29.1893 44.128 29.616 44.384C30.0533 44.6293 30.544 44.752 31.088 44.752ZM38.3623 37.52H39.8983V46H38.3623V37.52ZM39.1303 35.888C38.8316 35.888 38.5809 35.792 38.3783 35.6C38.1863 35.408 38.0903 35.1733 38.0903 34.896C38.0903 34.6187 38.1863 34.384 38.3783 34.192C38.5809 33.9893 38.8316 33.888 39.1303 33.888C39.4289 33.888 39.6743 33.984 39.8663 34.176C40.0689 34.3573 40.1703 34.5867 40.1703 34.864C40.1703 35.152 40.0689 35.3973 39.8663 35.6C39.6743 35.792 39.4289 35.888 39.1303 35.888ZM45.263 46.096C44.5697 46.096 43.903 46.0053 43.263 45.824C42.623 45.632 42.1217 45.392 41.759 45.104L42.399 43.888C42.7723 44.1547 43.2257 44.368 43.759 44.528C44.2923 44.688 44.831 44.768 45.375 44.768C46.719 44.768 47.391 44.384 47.391 43.616C47.391 43.36 47.3003 43.1573 47.119 43.008C46.9377 42.8587 46.7083 42.752 46.431 42.688C46.1643 42.6133 45.7803 42.5333 45.279 42.448C44.5963 42.3413 44.0363 42.2187 43.599 42.08C43.1723 41.9413 42.8043 41.7067 42.495 41.376C42.1857 41.0453 42.031 40.5813 42.031 39.984C42.031 39.216 42.351 38.6027 42.991 38.144C43.631 37.6747 44.4897 37.44 45.567 37.44C46.1323 37.44 46.6977 37.5093 47.263 37.648C47.8283 37.7867 48.2923 37.9733 48.655 38.208L47.999 39.424C47.3057 38.976 46.4897 38.752 45.551 38.752C44.9003 38.752 44.4043 38.8587 44.063 39.072C43.7217 39.2853 43.551 39.568 43.551 39.92C43.551 40.1973 43.647 40.416 43.839 40.576C44.031 40.736 44.2657 40.8533 44.543 40.928C44.831 41.0027 45.231 41.088 45.743 41.184C46.4257 41.3013 46.975 41.4293 47.391 41.568C47.8177 41.696 48.1803 41.92 48.479 42.24C48.7777 42.56 48.927 43.008 48.927 43.584C48.927 44.352 48.5963 44.9653 47.935 45.424C47.2843 45.872 46.3937 46.096 45.263 46.096ZM55.3426 37.44C56.164 37.44 56.9 37.6213 57.5506 37.984C58.2013 38.3467 58.708 38.8533 59.0706 39.504C59.444 40.1547 59.6306 40.9067 59.6306 41.76C59.6306 42.6133 59.444 43.3707 59.0706 44.032C58.708 44.6827 58.2013 45.1893 57.5506 45.552C56.9 45.9147 56.164 46.096 55.3426 46.096C54.7346 46.096 54.1746 45.9787 53.6626 45.744C53.1613 45.5093 52.7346 45.168 52.3826 44.72V49.104H50.8466V37.52H52.3186V38.864C52.66 38.3947 53.092 38.0427 53.6146 37.808C54.1373 37.5627 54.7133 37.44 55.3426 37.44ZM55.2146 44.752C55.7586 44.752 56.244 44.6293 56.6706 44.384C57.108 44.128 57.4493 43.776 57.6946 43.328C57.9506 42.8693 58.0786 42.3467 58.0786 41.76C58.0786 41.1733 57.9506 40.656 57.6946 40.208C57.4493 39.7493 57.108 39.3973 56.6706 39.152C56.244 38.9067 55.7586 38.784 55.2146 38.784C54.6813 38.784 54.196 38.912 53.7586 39.168C53.332 39.4133 52.9906 39.76 52.7346 40.208C52.4893 40.656 52.3666 41.1733 52.3666 41.76C52.3666 42.3467 52.4893 42.8693 52.7346 43.328C52.98 43.776 53.3213 44.128 53.7586 44.384C54.196 44.6293 54.6813 44.752 55.2146 44.752ZM61.7529 34.128H63.2889V46H61.7529V34.128ZM69.3096 37.44C70.483 37.44 71.379 37.728 71.9976 38.304C72.627 38.88 72.9416 39.7387 72.9416 40.88V46H71.4856V44.88C71.2296 45.2747 70.8616 45.5787 70.3816 45.792C69.9123 45.9947 69.3523 46.096 68.7016 46.096C67.7523 46.096 66.9896 45.8667 66.4136 45.408C65.8483 44.9493 65.5656 44.3467 65.5656 43.6C65.5656 42.8533 65.8376 42.256 66.3816 41.808C66.9256 41.3493 67.7896 41.12 68.9736 41.12H71.4056V40.816C71.4056 40.1547 71.2136 39.648 70.8296 39.296C70.4456 38.944 69.8803 38.768 69.1336 38.768C68.6323 38.768 68.1416 38.8533 67.6616 39.024C67.1816 39.184 66.7763 39.4027 66.4456 39.68L65.8056 38.528C66.243 38.176 66.7656 37.9093 67.3736 37.728C67.9816 37.536 68.627 37.44 69.3096 37.44ZM68.9576 44.912C69.5443 44.912 70.051 44.784 70.4776 44.528C70.9043 44.2613 71.2136 43.888 71.4056 43.408V42.224H69.0376C67.7363 42.224 67.0856 42.6613 67.0856 43.536C67.0856 43.9627 67.251 44.2987 67.5816 44.544C67.9123 44.7893 68.371 44.912 68.9576 44.912ZM83.1319 37.52L79.0199 46.848C78.6572 47.712 78.2305 48.32 77.7399 48.672C77.2599 49.024 76.6785 49.2 75.9959 49.2C75.5799 49.2 75.1745 49.1307 74.7799 48.992C74.3959 48.864 74.0759 48.672 73.8199 48.416L74.4759 47.264C74.9132 47.68 75.4199 47.888 75.9959 47.888C76.3692 47.888 76.6785 47.7867 76.9239 47.584C77.1799 47.392 77.4092 47.056 77.6119 46.576L77.8839 45.984L74.1399 37.52H75.7399L78.6999 44.304L81.6279 37.52H83.1319Z" fill="white"/>
</svg>
