<svg width="330" height="100" viewBox="0 0 330 100" fill="none" xmlns="http://www.w3.org/2000/svg">
<g clip-path="url(#clip0_4_319)">
<path d="M240.708 66.3477C238.735 66.3477 236.58 64.7953 236.221 61.4155C233.077 66.9855 228.68 74.3789 221.139 74.3789C217.188 74.3789 213.957 70.8201 215.214 64.0635C214.045 66.3477 211.709 69.2663 209.737 71.2735C207.849 73.1913 205.067 74.5598 202.552 74.2855C192.678 73.1913 201.477 55.759 204.617 50.1909C207.222 45.7195 209.646 45.1737 213.597 45.1737C209.737 46.4512 197.706 70.6367 203.989 72.461C205.427 72.9174 208.03 71.5488 209.737 69.5401C215.032 63.6063 217.636 56.1253 221.678 49.0978C224.281 44.6253 226.704 44.0771 230.654 44.0771C228.049 44.8972 219.702 59.5911 218.803 66.8035C218.176 72.0052 221.585 72.6454 223.294 72.461C229.306 71.9143 234.246 62.6041 236.132 57.7653C235.683 56.0319 235.325 47.8192 236.938 43.8042C238.016 41.1575 241.608 40.0619 241.608 44.7164C241.608 48.0936 240.172 52.2922 239.632 53.6607C239.183 54.8468 238.466 56.6726 237.479 58.7724C237.388 62.5136 238.913 65.1601 240.978 65.1601C244.392 65.1601 246.544 61.327 247.8 58.7724C248.161 57.9502 249.328 57.8587 248.611 59.5011C247.176 62.7875 244.57 66.3477 240.708 66.3477Z" fill="#D2232A"/>
<path d="M262.524 38.603C260.821 38.603 259.742 37.141 260.011 35.4077C260.28 33.6718 261.988 32.3037 263.693 32.3037C265.401 32.3037 266.475 33.6718 266.205 35.4077C265.85 37.141 264.232 38.603 262.524 38.603ZM257.049 71.2736C255.164 73.1913 252.38 74.7428 249.868 74.2855C239.453 72.4611 249.507 54.6638 252.65 49.0979C255.252 44.6254 257.677 44.0771 261.628 44.0771C257.769 45.3546 245.02 70.6367 251.303 72.4611C252.741 72.9174 255.345 71.457 257.049 69.5401C259.742 66.5297 261.9 62.8771 264.232 58.68C264.771 57.7653 265.401 58.5866 264.861 59.5912C262.706 63.6063 260.461 67.8068 257.049 71.2736Z" fill="#D2232A"/>
<path d="M265.309 59.5911C267.553 59.5011 268.361 61.4155 268 62.0572C266.744 61.5984 265.488 62.0572 264.5 62.877C262.884 64.1545 261.716 66.7091 261.716 68.9008C261.627 73.5567 266.475 74.1026 269.529 72.0962C271.953 70.4522 273.21 67.6262 273.928 64.5208C275.275 58.8609 274.735 51.9258 274.917 49.1877C275.005 46.906 275.814 44.5334 276.444 43.9861C272.94 45.3546 267.103 55.4851 265.309 59.5911ZM281.109 70.8201C278.776 73.0084 275.723 73.8297 274.107 73.6501C273.12 73.5567 272.58 73.2823 272.131 72.9174C270.786 73.6501 269.171 74.1026 267.464 74.3789C264.411 74.7427 261.539 74.014 260.1 71.0021C259.115 68.8123 259.293 65.707 260.1 63.6982C261.001 61.5984 262.258 59.8666 263.693 59.5911C265.221 55.9424 270.067 47.5463 273.928 43.8942C274.735 42.9829 278.238 39.6061 280.839 39.1488C284.344 38.5081 284.701 42.4362 281.467 43.5287C280.839 43.6213 279.855 43.9861 277.699 43.9861C275.633 46.997 279.313 54.9377 279.404 58.68C279.585 63.2423 277.967 68.1721 274.554 71.2735L273.3 72.1872C275.363 72.8265 278.776 71.3669 281.109 68.9942C283.983 66.2553 285.958 62.9704 287.754 59.5911C288.205 58.7724 289.008 59.5911 288.382 60.7796C286.585 64.1545 283.804 68.2606 281.109 70.8201Z" fill="#D2232A"/>
<path d="M320.074 11.3112C311.364 19.6177 303.194 34.3134 298.078 45.2637C305.259 39.8824 310.559 34.6764 316.485 28.2871C318.998 25.6415 324.652 19.5282 326.719 14.5969C329.77 7.02562 324.025 7.47894 320.074 11.3112ZM315.853 31.1172C308.494 38.3286 301.31 43.9861 297.271 47.0904C294.845 52.2922 293.231 56.3983 292.78 58.0397C294.666 55.1211 297.45 51.1956 299.335 49.1877C302.028 46.3588 304.901 44.2615 307.506 43.9861C313.519 43.4392 314.328 47.1799 312.173 52.2922C310.559 56.0319 308.225 59.959 306.428 63.4252C305.888 64.4284 304.272 67.7147 303.913 70.0884C303.643 71.9143 304.541 72.7354 305.618 72.7354C307.595 72.7354 309.481 71.093 310.826 69.5401C313.519 66.5296 315.673 62.877 318.011 58.6799C318.549 57.7653 319.266 58.5865 318.729 59.5911C316.573 63.6063 314.239 67.8067 310.826 71.2735C308.941 73.1913 306.249 75.0156 302.925 74.1026C298.887 73.0084 298.706 68.355 299.874 65.1601C301.848 59.773 306.16 55.1211 308.582 49.918C310.019 46.997 308.582 45.3546 307.056 45.5375C304.723 45.7195 302.028 47.9092 299.605 50.8307C297.271 53.4773 294.845 57.1299 292.691 60.9632C290.624 64.5208 288.202 68.7179 286.945 71.3669C285.509 74.5598 283.714 73.7386 282.545 73.7386C283.625 69.6316 286.767 62.2391 290.805 52.2922C296.372 38.7834 307.683 12.866 323.306 7.84526C324.745 7.57234 326.447 7.29854 327.795 8.2092C329.052 9.03036 329.589 11.3112 328.244 14.6919C326.357 19.5282 321.688 25.2767 315.853 31.1172Z" fill="#D2232A"/>
<path d="M81.2749 19.7087C93.5986 19.7087 92.2627 6.29385 79.3991 6.29385C72.7907 6.29385 65.9124 8.1182 62.6074 13.8682C69.2192 17.1516 75.4701 19.7087 81.2749 19.7087ZM58.9454 14.0511C48.407 9.1214 36.7088 3.28189 23.7581 3.28189C13.3968 3.28189 2.67888 9.58025 2.67888 21.4436C2.67888 30.2959 8.93264 39.0589 19.4706 39.0589C20.1866 39.0589 20.1866 40.153 19.4706 40.153C7.86051 40.153 0 29.6557 0 19.4358C0 6.10943 12.1457 -0.00387573 23.4902 -0.00387573C36.9759 -0.00387573 49.1231 6.9321 60.1076 12.5882C64.9316 6.74868 72.6117 5.19725 79.5781 5.19725C95.9213 5.19725 98.0642 20.8043 80.5622 20.8043C74.6651 20.8043 68.5036 18.4301 61.8038 15.4206C56.5356 27.6504 71.1825 41.3396 71.1825 56.3983C71.1825 75.7474 54.0357 89.5271 32.9578 89.5271C17.9523 89.5271 10.3613 81.0401 10.3613 70.5423C10.3613 43.2558 55.1929 26.9191 55.1929 50.9227C55.1929 59.1387 48.5874 67.1675 42.1561 71.2735C34.8331 76.0204 26.3475 77.0259 21.7034 75.2001C21.0769 75.0157 21.4363 74.3789 22.0609 74.5598C26.7951 75.3811 34.6532 73.7387 41.261 69.3587C46.9778 65.5251 53.4092 58.406 53.4092 50.9227C53.4092 28.8355 13.9324 46.4512 13.9324 71.093C13.9324 80.0379 19.74 87.5198 32.5103 87.5198C51.3544 87.5198 63.8586 73.2823 63.8586 57.1299C63.8586 42.9829 50.9093 26.4628 58.9454 14.0511Z" fill="#55C5CE"/>
<path d="M104.494 71.2736C102.62 73.1913 99.849 74.7428 97.3506 74.2855C92.6155 73.4633 92.0805 69.3587 93.242 64.5209C91.8134 66.8936 90.2047 69.2663 88.2423 71.2736C86.3633 73.1913 83.5944 74.5599 81.0955 74.2855C71.2717 73.1913 80.0234 55.7591 83.1478 50.191C85.7391 45.7196 88.1509 45.1737 92.0805 45.1737C88.2423 46.4512 76.2738 70.6367 82.5246 72.4611C83.9538 72.9174 86.5428 71.5489 88.2423 69.5401C93.5091 63.6063 96.1004 56.1254 100.116 49.0979C102.707 44.6254 105.12 44.0771 109.05 44.0771C105.21 45.3546 92.5275 70.6367 98.7774 72.4611C100.208 72.9174 102.799 71.457 104.494 69.5401C107.173 66.5297 109.319 62.8771 111.64 58.68C112.176 57.7653 112.801 58.5866 112.266 59.5912C110.121 63.6063 107.889 67.8068 104.494 71.2736Z" fill="#55C5CE"/>
<path d="M121.462 50.7393C117.355 55.3032 114.587 60.8696 113.513 64.7953C112.798 67.5338 112.71 71.5489 114.944 71.5489C119.588 71.5489 126.287 59.5911 128.518 56.0319C130.304 53.2044 132.182 50.1909 134.86 46.3588C130.304 43.9861 125.124 46.5407 121.462 50.7393ZM104.849 88.7969C99.4928 92.9954 100.474 99.0217 107.62 96.74C113.871 94.7312 117.534 87.5198 120.125 80.9486C116.374 82.9573 109.944 84.7808 104.849 88.7969ZM126.376 76.3852C132.896 73.0084 138.344 66.8936 142.002 60.0495C142.718 58.68 144.327 57.9502 143.168 60.0495C141.022 63.9736 138.61 67.7147 135.575 70.9086C132.896 73.8297 129.678 76.2933 125.75 78.1176C121.375 88.4344 116.908 96.6466 108.155 98.6554C98.6891 100.846 97.4404 92.3586 104.228 87.6132C109.762 83.7786 112.89 83.0499 120.926 79.2152C123.696 73.4632 126.464 64.1545 128.789 58.8609C128.342 59.3182 126.464 62.0573 125.75 63.1513C123.962 65.6151 121.195 69.6316 118.247 72.0052C111.104 77.9381 106.906 71.6404 108.958 63.6063C110.746 56.7636 114.408 51.1061 120.035 46.906C123.786 44.0771 131.02 42.9829 135.304 45.63L135.575 45.3546C138.344 41.2496 140.754 38.3286 144.594 37.4154C136.377 46.3588 129.948 67.2584 126.376 76.3852Z" fill="#55C5CE"/>
<path d="M163.259 45.2638C159.6 45.2638 156.026 47.5463 153.169 50.7393C149.151 55.3941 146.023 60.8697 145.13 64.7953C144.416 67.8068 144.594 71.5489 146.916 71.5489C151.473 71.5489 158.168 59.5912 160.491 56.032C162.992 52.0158 164.423 49.3708 168.976 47.9093C169.154 47.9093 169.335 47.8193 169.603 47.8193C168.532 46.0859 165.671 45.2638 163.259 45.2638ZM167.458 71.2736C166.386 72.3702 165.047 73.3748 163.527 73.9231C162.368 74.379 160.94 74.5599 159.42 74.1026C156.026 73.0084 155.849 68.628 156.561 65.2512C156.561 65.0683 156.561 64.7953 156.653 64.6119C154.954 66.9855 152.544 70.0885 150.133 72.0052C142.988 77.9382 138.79 71.6404 140.843 63.6063C142.542 56.8557 146.38 51.1957 152.007 46.9061C154.507 45.0827 158.349 43.8042 162.102 43.8042C166.208 43.8042 169.692 45.1737 170.853 47.4554C168.352 50.7393 165.493 56.2154 163.618 60.0495C162.368 62.695 160.491 66.8936 160.316 69.7235C160.223 71.0931 160.582 72.8265 162.457 72.8265C164.333 72.8265 166.208 71.0022 167.458 69.5401C170.137 66.5297 172.282 62.8771 174.604 58.68C175.139 57.7653 175.856 58.5866 175.318 59.5912C173.265 63.6063 170.853 67.8068 167.458 71.2736Z" fill="#55C5CE"/>
<path d="M191.394 72.0962C184.785 77.7562 178.442 73.0979 181.211 64.9758C182.73 60.5953 186.304 56.6726 189.159 52.5641C190.677 50.3738 191.572 47.18 188.268 46.7241C185.769 46.3588 181.925 46.7241 180.586 46.4512C179.782 51.0136 176.477 57.7653 173.8 62.3302C172.906 63.7916 172.726 62.1483 173.173 61.327C175.675 56.3983 178.263 51.652 179.159 46.4512C177.906 45.7196 176.838 44.0771 176.389 42.3426C175.318 37.8713 178.891 34.2201 180.496 39.2408C181.122 41.0667 180.854 43.7132 180.676 44.8074C182.642 45.5375 188.447 45.0827 191.572 44.8973C197.2 44.5335 194.522 50.4664 193.001 53.1139C191.394 56.0319 190.143 58.0397 188.536 60.5953C182.285 70.4523 184.785 76.3852 191.394 70.3628C194.699 67.3499 197.644 61.5984 199.254 58.5866C199.789 57.6758 200.235 59.0438 199.699 60.0495C197.644 63.8816 195.234 68.8124 191.394 72.0962Z" fill="#55C5CE"/>
</g>
<defs>
<clipPath id="clip0_4_319">
<rect width="330" height="100" fill="white"/>
</clipPath>
</defs>
</svg>
