<svg width="533" height="266" viewBox="0 0 533 266" fill="none" xmlns="http://www.w3.org/2000/svg">
<path d="M2.052 117.591H3.384V130.191H2.052V117.591ZM12.0376 120.651C13.2256 120.651 14.1676 120.999 14.8636 121.695C15.5716 122.379 15.9256 123.381 15.9256 124.701V130.191H14.6476V124.827C14.6476 123.843 14.4016 123.093 13.9096 122.577C13.4176 122.061 12.7156 121.803 11.8036 121.803C10.7836 121.803 9.97364 122.109 9.37364 122.721C8.78564 123.321 8.49164 124.155 8.49164 125.223V130.191H7.21364V120.723H8.43764V122.469C8.78564 121.893 9.26564 121.449 9.87764 121.137C10.5016 120.813 11.2216 120.651 12.0376 120.651ZM28.1964 120.723V129.039C28.1964 130.647 27.8004 131.835 27.0084 132.603C26.2284 133.383 25.0464 133.773 23.4624 133.773C22.5864 133.773 21.7524 133.641 20.9604 133.377C20.1804 133.125 19.5444 132.771 19.0524 132.315L19.7004 131.343C20.1564 131.751 20.7084 132.069 21.3564 132.297C22.0164 132.525 22.7064 132.639 23.4264 132.639C24.6264 132.639 25.5084 132.357 26.0724 131.793C26.6364 131.241 26.9184 130.377 26.9184 129.201V127.995C26.5224 128.595 26.0004 129.051 25.3524 129.363C24.7164 129.675 24.0084 129.831 23.2284 129.831C22.3404 129.831 21.5304 129.639 20.7984 129.255C20.0784 128.859 19.5084 128.313 19.0884 127.617C18.6804 126.909 18.4764 126.111 18.4764 125.223C18.4764 124.335 18.6804 123.543 19.0884 122.847C19.5084 122.151 20.0784 121.611 20.7984 121.227C21.5184 120.843 22.3284 120.651 23.2284 120.651C24.0324 120.651 24.7584 120.813 25.4064 121.137C26.0544 121.461 26.5764 121.929 26.9724 122.541V120.723H28.1964ZM23.3544 128.697C24.0384 128.697 24.6564 128.553 25.2084 128.265C25.7604 127.965 26.1864 127.551 26.4864 127.023C26.7984 126.495 26.9544 125.895 26.9544 125.223C26.9544 124.551 26.7984 123.957 26.4864 123.441C26.1864 122.913 25.7604 122.505 25.2084 122.217C24.6684 121.917 24.0504 121.767 23.3544 121.767C22.6704 121.767 22.0524 121.911 21.5004 122.199C20.9604 122.487 20.5344 122.895 20.2224 123.423C19.9224 123.951 19.7724 124.551 19.7724 125.223C19.7724 125.895 19.9224 126.495 20.2224 127.023C20.5344 127.551 20.9604 127.965 21.5004 128.265C22.0524 128.553 22.6704 128.697 23.3544 128.697ZM32.9943 122.577C33.2943 121.941 33.7383 121.461 34.3263 121.137C34.9263 120.813 35.6643 120.651 36.5403 120.651V121.893L36.2343 121.875C35.2383 121.875 34.4583 122.181 33.8943 122.793C33.3303 123.405 33.0483 124.263 33.0483 125.367V130.191H31.7703V120.723H32.9943V122.577ZM47.0104 125.853H39.0904C39.1624 126.837 39.5404 127.635 40.2244 128.247C40.9084 128.847 41.7724 129.147 42.8164 129.147C43.4044 129.147 43.9444 129.045 44.4364 128.841C44.9284 128.625 45.3544 128.313 45.7144 127.905L46.4344 128.733C46.0144 129.237 45.4864 129.621 44.8504 129.885C44.2264 130.149 43.5364 130.281 42.7804 130.281C41.8084 130.281 40.9444 130.077 40.1884 129.669C39.4444 129.249 38.8624 128.673 38.4424 127.941C38.0224 127.209 37.8124 126.381 37.8124 125.457C37.8124 124.533 38.0104 123.705 38.4064 122.973C38.8144 122.241 39.3664 121.671 40.0624 121.263C40.7704 120.855 41.5624 120.651 42.4384 120.651C43.3144 120.651 44.1004 120.855 44.7964 121.263C45.4924 121.671 46.0384 122.241 46.4344 122.973C46.8304 123.693 47.0284 124.521 47.0284 125.457L47.0104 125.853ZM42.4384 121.749C41.5264 121.749 40.7584 122.043 40.1344 122.631C39.5224 123.207 39.1744 123.963 39.0904 124.899H45.8044C45.7204 123.963 45.3664 123.207 44.7424 122.631C44.1304 122.043 43.3624 121.749 42.4384 121.749ZM58.2697 116.835V130.191H57.0457V128.319C56.6617 128.955 56.1517 129.441 55.5157 129.777C54.8917 130.113 54.1837 130.281 53.3917 130.281C52.5037 130.281 51.6997 130.077 50.9797 129.669C50.2597 129.261 49.6957 128.691 49.2877 127.959C48.8797 127.227 48.6757 126.393 48.6757 125.457C48.6757 124.521 48.8797 123.687 49.2877 122.955C49.6957 122.223 50.2597 121.659 50.9797 121.263C51.6997 120.855 52.5037 120.651 53.3917 120.651C54.1597 120.651 54.8497 120.813 55.4617 121.137C56.0857 121.449 56.5957 121.911 56.9917 122.523V116.835H58.2697ZM53.4997 129.147C54.1597 129.147 54.7537 128.997 55.2817 128.697C55.8217 128.385 56.2417 127.947 56.5417 127.383C56.8537 126.819 57.0097 126.177 57.0097 125.457C57.0097 124.737 56.8537 124.095 56.5417 123.531C56.2417 122.967 55.8217 122.535 55.2817 122.235C54.7537 121.923 54.1597 121.767 53.4997 121.767C52.8277 121.767 52.2217 121.923 51.6817 122.235C51.1537 122.535 50.7337 122.967 50.4217 123.531C50.1217 124.095 49.9717 124.737 49.9717 125.457C49.9717 126.177 50.1217 126.819 50.4217 127.383C50.7337 127.947 51.1537 128.385 51.6817 128.697C52.2217 128.997 52.8277 129.147 53.4997 129.147ZM61.8289 120.723H63.1069V130.191H61.8289V120.723ZM62.4769 118.653C62.2129 118.653 61.9909 118.563 61.8109 118.383C61.6309 118.203 61.5409 117.987 61.5409 117.735C61.5409 117.495 61.6309 117.285 61.8109 117.105C61.9909 116.925 62.2129 116.835 62.4769 116.835C62.7409 116.835 62.9629 116.925 63.1429 117.105C63.3229 117.273 63.4129 117.477 63.4129 117.717C63.4129 117.981 63.3229 118.203 63.1429 118.383C62.9629 118.563 62.7409 118.653 62.4769 118.653ZM74.9069 125.853H66.9869C67.0589 126.837 67.4369 127.635 68.1209 128.247C68.8049 128.847 69.6689 129.147 70.7129 129.147C71.3009 129.147 71.8409 129.045 72.3329 128.841C72.8249 128.625 73.2509 128.313 73.6109 127.905L74.3309 128.733C73.9109 129.237 73.3829 129.621 72.7469 129.885C72.1229 130.149 71.4329 130.281 70.6769 130.281C69.7049 130.281 68.8409 130.077 68.0849 129.669C67.3409 129.249 66.7589 128.673 66.3389 127.941C65.9189 127.209 65.7089 126.381 65.7089 125.457C65.7089 124.533 65.9069 123.705 66.3029 122.973C66.7109 122.241 67.2629 121.671 67.9589 121.263C68.6669 120.855 69.4589 120.651 70.3349 120.651C71.2109 120.651 71.9969 120.855 72.6929 121.263C73.3889 121.671 73.9349 122.241 74.3309 122.973C74.7269 123.693 74.9249 124.521 74.9249 125.457L74.9069 125.853ZM70.3349 121.749C69.4229 121.749 68.6549 122.043 68.0309 122.631C67.4189 123.207 67.0709 123.963 66.9869 124.899H73.7009C73.6169 123.963 73.2629 123.207 72.6389 122.631C72.0269 122.043 71.2589 121.749 70.3349 121.749ZM82.3501 120.651C83.5381 120.651 84.4801 120.999 85.1761 121.695C85.8841 122.379 86.2381 123.381 86.2381 124.701V130.191H84.9601V124.827C84.9601 123.843 84.7141 123.093 84.2221 122.577C83.7301 122.061 83.0281 121.803 82.1161 121.803C81.0961 121.803 80.2861 122.109 79.6861 122.721C79.0981 123.321 78.8041 124.155 78.8041 125.223V130.191H77.5261V120.723H78.7501V122.469C79.0981 121.893 79.5781 121.449 80.1901 121.137C80.8141 120.813 81.5341 120.651 82.3501 120.651ZM94.6938 129.615C94.4538 129.831 94.1538 129.999 93.7938 130.119C93.4458 130.227 93.0798 130.281 92.6958 130.281C91.8078 130.281 91.1238 130.041 90.6438 129.561C90.1638 129.081 89.9238 128.403 89.9238 127.527V121.803H88.2318V120.723H89.9238V118.653H91.2018V120.723H94.0818V121.803H91.2018V127.455C91.2018 128.019 91.3398 128.451 91.6158 128.751C91.9038 129.039 92.3118 129.183 92.8398 129.183C93.1038 129.183 93.3558 129.141 93.5958 129.057C93.8478 128.973 94.0638 128.853 94.2438 128.697L94.6938 129.615ZM99.5583 130.281C98.7903 130.281 98.0523 130.173 97.3443 129.957C96.6483 129.729 96.1023 129.447 95.7063 129.111L96.2823 128.103C96.6783 128.415 97.1763 128.673 97.7763 128.877C98.3763 129.069 99.0003 129.165 99.6483 129.165C100.512 129.165 101.148 129.033 101.556 128.769C101.976 128.493 102.186 128.109 102.186 127.617C102.186 127.269 102.072 126.999 101.844 126.807C101.616 126.603 101.328 126.453 100.98 126.357C100.632 126.249 100.17 126.147 99.5943 126.051C98.8263 125.907 98.2083 125.763 97.7403 125.619C97.2723 125.463 96.8703 125.205 96.5343 124.845C96.2103 124.485 96.0483 123.987 96.0483 123.351C96.0483 122.559 96.3783 121.911 97.0383 121.407C97.6983 120.903 98.6163 120.651 99.7923 120.651C100.404 120.651 101.016 120.735 101.628 120.903C102.24 121.059 102.744 121.269 103.14 121.533L102.582 122.559C101.802 122.019 100.872 121.749 99.7923 121.749C98.9763 121.749 98.3583 121.893 97.9383 122.181C97.5303 122.469 97.3263 122.847 97.3263 123.315C97.3263 123.675 97.4403 123.963 97.6683 124.179C97.9083 124.395 98.2023 124.557 98.5503 124.665C98.8983 124.761 99.3783 124.863 99.9903 124.971C100.746 125.115 101.352 125.259 101.808 125.403C102.264 125.547 102.654 125.793 102.978 126.141C103.302 126.489 103.464 126.969 103.464 127.581C103.464 128.409 103.116 129.069 102.42 129.561C101.736 130.041 100.782 130.281 99.5583 130.281Z" fill="#4B4A51"/>
<path d="M14.742 193.253C14.358 193.721 13.902 194.075 13.374 194.315C12.858 194.567 12.294 194.693 11.682 194.693C10.938 194.693 10.23 194.507 9.558 194.135C8.898 193.775 8.154 193.163 7.326 192.299C6.114 192.263 5.022 191.963 4.05 191.399C3.078 190.835 2.316 190.073 1.764 189.113C1.212 188.153 0.936 187.079 0.936 185.891C0.936 184.679 1.218 183.587 1.782 182.615C2.358 181.643 3.15 180.881 4.158 180.329C5.178 179.765 6.312 179.483 7.56 179.483C8.808 179.483 9.93 179.759 10.926 180.311C11.934 180.863 12.726 181.631 13.302 182.615C13.878 183.587 14.166 184.679 14.166 185.891C14.166 186.947 13.944 187.919 13.5 188.807C13.068 189.683 12.456 190.415 11.664 191.003C10.884 191.591 9.984 191.981 8.964 192.173C9.888 193.145 10.8 193.631 11.7 193.631C12.636 193.631 13.434 193.247 14.094 192.479L14.742 193.253ZM2.25 185.891C2.25 186.875 2.478 187.763 2.934 188.555C3.402 189.347 4.038 189.971 4.842 190.427C5.658 190.883 6.564 191.111 7.56 191.111C8.556 191.111 9.456 190.883 10.26 190.427C11.064 189.971 11.694 189.347 12.15 188.555C12.606 187.763 12.834 186.875 12.834 185.891C12.834 184.907 12.606 184.019 12.15 183.227C11.694 182.435 11.064 181.811 10.26 181.355C9.456 180.899 8.556 180.671 7.56 180.671C6.564 180.671 5.658 180.899 4.842 181.355C4.038 181.811 3.402 182.435 2.934 183.227C2.478 184.019 2.25 184.907 2.25 185.891ZM25.4136 182.723V192.191H24.1896V190.463C23.8536 191.039 23.3916 191.489 22.8036 191.813C22.2156 192.125 21.5436 192.281 20.7876 192.281C19.5516 192.281 18.5736 191.939 17.8536 191.255C17.1456 190.559 16.7916 189.545 16.7916 188.213V182.723H18.0696V188.087C18.0696 189.083 18.3156 189.839 18.8076 190.355C19.2996 190.871 20.0016 191.129 20.9136 191.129C21.9096 191.129 22.6956 190.829 23.2716 190.229C23.8476 189.617 24.1356 188.771 24.1356 187.691V182.723H25.4136ZM32.3049 182.651C33.5409 182.651 34.4889 182.963 35.1489 183.587C35.8089 184.199 36.1389 185.111 36.1389 186.323V192.191H34.9149V190.715C34.6269 191.207 34.2009 191.591 33.6369 191.867C33.0849 192.143 32.4249 192.281 31.6569 192.281C30.6009 192.281 29.7609 192.029 29.1369 191.525C28.5129 191.021 28.2009 190.355 28.2009 189.527C28.2009 188.723 28.4889 188.075 29.0649 187.583C29.6529 187.091 30.5829 186.845 31.8549 186.845H34.8609V186.269C34.8609 185.453 34.6329 184.835 34.1769 184.415C33.7209 183.983 33.0549 183.767 32.1789 183.767C31.5789 183.767 31.0029 183.869 30.4509 184.073C29.8989 184.265 29.4249 184.535 29.0289 184.883L28.4529 183.929C28.9329 183.521 29.5089 183.209 30.1809 182.993C30.8529 182.765 31.5609 182.651 32.3049 182.651ZM31.8549 191.273C32.5749 191.273 33.1929 191.111 33.7089 190.787C34.2249 190.451 34.6089 189.971 34.8609 189.347V187.799H31.8909C30.2709 187.799 29.4609 188.363 29.4609 189.491C29.4609 190.043 29.6709 190.481 30.0909 190.805C30.5109 191.117 31.0989 191.273 31.8549 191.273ZM39.6101 178.835H40.8881V192.191H39.6101V178.835ZM44.4441 182.723H45.7221V192.191H44.4441V182.723ZM45.0921 180.653C44.8281 180.653 44.6061 180.563 44.4261 180.383C44.2461 180.203 44.1561 179.987 44.1561 179.735C44.1561 179.495 44.2461 179.285 44.4261 179.105C44.6061 178.925 44.8281 178.835 45.0921 178.835C45.3561 178.835 45.5781 178.925 45.7581 179.105C45.9381 179.273 46.0281 179.477 46.0281 179.717C46.0281 179.981 45.9381 180.203 45.7581 180.383C45.5781 180.563 45.3561 180.653 45.0921 180.653ZM54.2641 191.615C54.0241 191.831 53.7241 191.999 53.3641 192.119C53.0161 192.227 52.6501 192.281 52.2661 192.281C51.3781 192.281 50.6941 192.041 50.2141 191.561C49.7341 191.081 49.4941 190.403 49.4941 189.527V183.803H47.8021V182.723H49.4941V180.653H50.7721V182.723H53.6521V183.803H50.7721V189.455C50.7721 190.019 50.9101 190.451 51.1861 190.751C51.4741 191.039 51.8821 191.183 52.4101 191.183C52.6741 191.183 52.9261 191.141 53.1661 191.057C53.4181 190.973 53.6341 190.853 53.8141 190.697L54.2641 191.615ZM64.3708 182.723L59.6368 193.325C59.2528 194.213 58.8088 194.843 58.3048 195.215C57.8008 195.587 57.1948 195.773 56.4868 195.773C56.0308 195.773 55.6048 195.701 55.2088 195.557C54.8128 195.413 54.4708 195.197 54.1828 194.909L54.7768 193.955C55.2568 194.435 55.8328 194.675 56.5048 194.675C56.9368 194.675 57.3028 194.555 57.6028 194.315C57.9148 194.075 58.2028 193.667 58.4668 193.091L58.8808 192.173L54.6508 182.723H55.9828L59.5468 190.769L63.1108 182.723H64.3708Z" fill="#4B4A51"/>
<path d="M6.768 234.591C8.376 234.591 9.636 234.975 10.548 235.743C11.46 236.511 11.916 237.567 11.916 238.911C11.916 240.255 11.46 241.311 10.548 242.079C9.636 242.835 8.376 243.213 6.768 243.213H3.384V247.191H2.052V234.591H6.768ZM6.732 242.043C7.98 242.043 8.934 241.773 9.594 241.233C10.254 240.681 10.584 239.907 10.584 238.911C10.584 237.891 10.254 237.111 9.594 236.571C8.934 236.019 7.98 235.743 6.732 235.743H3.384V242.043H6.732ZM15.504 239.577C15.804 238.941 16.248 238.461 16.836 238.137C17.436 237.813 18.174 237.651 19.05 237.651V238.893L18.744 238.875C17.748 238.875 16.968 239.181 16.404 239.793C15.84 240.405 15.558 241.263 15.558 242.367V247.191H14.28V237.723H15.504V239.577ZM21.364 237.723H22.642V247.191H21.364V237.723ZM22.012 235.653C21.748 235.653 21.526 235.563 21.346 235.383C21.166 235.203 21.076 234.987 21.076 234.735C21.076 234.495 21.166 234.285 21.346 234.105C21.526 233.925 21.748 233.835 22.012 233.835C22.276 233.835 22.498 233.925 22.678 234.105C22.858 234.273 22.948 234.477 22.948 234.717C22.948 234.981 22.858 235.203 22.678 235.383C22.498 235.563 22.276 235.653 22.012 235.653ZM30.122 247.281C29.186 247.281 28.346 247.077 27.602 246.669C26.87 246.261 26.294 245.691 25.874 244.959C25.454 244.215 25.244 243.381 25.244 242.457C25.244 241.533 25.454 240.705 25.874 239.973C26.294 239.241 26.87 238.671 27.602 238.263C28.346 237.855 29.186 237.651 30.122 237.651C30.938 237.651 31.664 237.813 32.3 238.137C32.948 238.449 33.458 238.911 33.83 239.523L32.876 240.171C32.564 239.703 32.168 239.355 31.688 239.127C31.208 238.887 30.686 238.767 30.122 238.767C29.438 238.767 28.82 238.923 28.268 239.235C27.728 239.535 27.302 239.967 26.99 240.531C26.69 241.095 26.54 241.737 26.54 242.457C26.54 243.189 26.69 243.837 26.99 244.401C27.302 244.953 27.728 245.385 28.268 245.697C28.82 245.997 29.438 246.147 30.122 246.147C30.686 246.147 31.208 246.033 31.688 245.805C32.168 245.577 32.564 245.229 32.876 244.761L33.83 245.409C33.458 246.021 32.948 246.489 32.3 246.813C31.652 247.125 30.926 247.281 30.122 247.281ZM44.4264 242.853H36.5064C36.5784 243.837 36.9564 244.635 37.6404 245.247C38.3244 245.847 39.1884 246.147 40.2324 246.147C40.8204 246.147 41.3604 246.045 41.8524 245.841C42.3444 245.625 42.7704 245.313 43.1304 244.905L43.8504 245.733C43.4304 246.237 42.9024 246.621 42.2664 246.885C41.6424 247.149 40.9524 247.281 40.1964 247.281C39.2244 247.281 38.3604 247.077 37.6044 246.669C36.8604 246.249 36.2784 245.673 35.8584 244.941C35.4384 244.209 35.2284 243.381 35.2284 242.457C35.2284 241.533 35.4264 240.705 35.8224 239.973C36.2304 239.241 36.7824 238.671 37.4784 238.263C38.1864 237.855 38.9784 237.651 39.8544 237.651C40.7304 237.651 41.5164 237.855 42.2124 238.263C42.9084 238.671 43.4544 239.241 43.8504 239.973C44.2464 240.693 44.4444 241.521 44.4444 242.457L44.4264 242.853ZM39.8544 238.749C38.9424 238.749 38.1744 239.043 37.5504 239.631C36.9384 240.207 36.5904 240.963 36.5064 241.899H43.2204C43.1364 240.963 42.7824 240.207 42.1584 239.631C41.5464 239.043 40.7784 238.749 39.8544 238.749Z" fill="#4B4A51"/>
<path d="M503.156 122.649C503.984 122.649 504.716 122.805 505.352 123.117C506 123.429 506.504 123.873 506.864 124.449C507.224 125.013 507.404 125.673 507.404 126.429C507.404 127.197 507.218 127.875 506.846 128.463C506.474 129.051 505.958 129.507 505.298 129.831C504.65 130.143 503.918 130.299 503.102 130.299C501.434 130.299 500.156 129.753 499.268 128.661C498.38 127.557 497.936 126.003 497.936 123.999C497.936 122.595 498.176 121.407 498.656 120.435C499.136 119.463 499.808 118.731 500.672 118.239C501.536 117.735 502.544 117.483 503.696 117.483C504.944 117.483 505.94 117.711 506.684 118.167L506.162 119.211C505.562 118.815 504.746 118.617 503.714 118.617C502.322 118.617 501.23 119.061 500.438 119.949C499.646 120.825 499.25 122.103 499.25 123.783C499.25 124.083 499.268 124.425 499.304 124.809C499.616 124.125 500.114 123.597 500.798 123.225C501.482 122.841 502.268 122.649 503.156 122.649ZM503.048 129.201C503.96 129.201 504.698 128.955 505.262 128.463C505.838 127.959 506.126 127.293 506.126 126.465C506.126 125.637 505.838 124.977 505.262 124.485C504.698 123.993 503.93 123.747 502.958 123.747C502.322 123.747 501.758 123.867 501.266 124.107C500.786 124.347 500.408 124.677 500.132 125.097C499.856 125.517 499.718 125.985 499.718 126.501C499.718 126.981 499.844 127.425 500.096 127.833C500.36 128.241 500.744 128.571 501.248 128.823C501.752 129.075 502.352 129.201 503.048 129.201ZM514.125 122.649C514.953 122.649 515.685 122.805 516.321 123.117C516.969 123.429 517.473 123.873 517.833 124.449C518.193 125.013 518.373 125.673 518.373 126.429C518.373 127.197 518.187 127.875 517.815 128.463C517.443 129.051 516.927 129.507 516.267 129.831C515.619 130.143 514.887 130.299 514.071 130.299C512.403 130.299 511.125 129.753 510.237 128.661C509.349 127.557 508.905 126.003 508.905 123.999C508.905 122.595 509.145 121.407 509.625 120.435C510.105 119.463 510.777 118.731 511.641 118.239C512.505 117.735 513.513 117.483 514.665 117.483C515.913 117.483 516.909 117.711 517.653 118.167L517.131 119.211C516.531 118.815 515.715 118.617 514.683 118.617C513.291 118.617 512.199 119.061 511.407 119.949C510.615 120.825 510.219 122.103 510.219 123.783C510.219 124.083 510.237 124.425 510.273 124.809C510.585 124.125 511.083 123.597 511.767 123.225C512.451 122.841 513.237 122.649 514.125 122.649ZM514.017 129.201C514.929 129.201 515.667 128.955 516.231 128.463C516.807 127.959 517.095 127.293 517.095 126.465C517.095 125.637 516.807 124.977 516.231 124.485C515.667 123.993 514.899 123.747 513.927 123.747C513.291 123.747 512.727 123.867 512.235 124.107C511.755 124.347 511.377 124.677 511.101 125.097C510.825 125.517 510.687 125.985 510.687 126.501C510.687 126.981 510.813 127.425 511.065 127.833C511.329 128.241 511.713 128.571 512.217 128.823C512.721 129.075 513.321 129.201 514.017 129.201ZM522.186 124.341C521.334 124.341 520.644 124.029 520.116 123.405C519.6 122.769 519.342 121.941 519.342 120.921C519.342 119.901 519.6 119.079 520.116 118.455C520.644 117.819 521.334 117.501 522.186 117.501C523.026 117.501 523.71 117.813 524.238 118.437C524.766 119.061 525.03 119.889 525.03 120.921C525.03 121.953 524.766 122.781 524.238 123.405C523.71 124.029 523.026 124.341 522.186 124.341ZM529.818 117.591H530.88L522.276 130.191H521.214L529.818 117.591ZM522.186 123.531C522.774 123.531 523.242 123.303 523.59 122.847C523.95 122.379 524.13 121.737 524.13 120.921C524.13 120.105 523.95 119.469 523.59 119.013C523.242 118.545 522.774 118.311 522.186 118.311C521.586 118.311 521.112 118.545 520.764 119.013C520.416 119.481 520.242 120.117 520.242 120.921C520.242 121.725 520.416 122.361 520.764 122.829C521.112 123.297 521.586 123.531 522.186 123.531ZM529.908 130.281C529.068 130.281 528.384 129.969 527.856 129.345C527.328 128.709 527.064 127.881 527.064 126.861C527.064 125.841 527.328 125.019 527.856 124.395C528.384 123.759 529.068 123.441 529.908 123.441C530.76 123.441 531.444 123.759 531.96 124.395C532.488 125.019 532.752 125.841 532.752 126.861C532.752 127.881 532.488 128.709 531.96 129.345C531.444 129.969 530.76 130.281 529.908 130.281ZM529.908 129.471C530.508 129.471 530.982 129.237 531.33 128.769C531.678 128.301 531.852 127.665 531.852 126.861C531.852 126.057 531.678 125.421 531.33 124.953C530.982 124.485 530.508 124.251 529.908 124.251C529.32 124.251 528.846 124.485 528.486 124.953C528.138 125.409 527.964 126.045 527.964 126.861C527.964 127.677 528.138 128.319 528.486 128.787C528.846 129.243 529.32 129.471 529.908 129.471Z" fill="#4B4A51"/>
<path d="M503.156 67.6494C503.984 67.6494 504.716 67.8054 505.352 68.1174C506 68.4294 506.504 68.8734 506.864 69.4494C507.224 70.0134 507.404 70.6734 507.404 71.4294C507.404 72.1974 507.218 72.8754 506.846 73.4634C506.474 74.0514 505.958 74.5074 505.298 74.8314C504.65 75.1434 503.918 75.2994 503.102 75.2994C501.434 75.2994 500.156 74.7534 499.268 73.6614C498.38 72.5574 497.936 71.0034 497.936 68.9994C497.936 67.5954 498.176 66.4074 498.656 65.4354C499.136 64.4634 499.808 63.7314 500.672 63.2394C501.536 62.7354 502.544 62.4834 503.696 62.4834C504.944 62.4834 505.94 62.7114 506.684 63.1674L506.162 64.2114C505.562 63.8154 504.746 63.6174 503.714 63.6174C502.322 63.6174 501.23 64.0614 500.438 64.9494C499.646 65.8254 499.25 67.1034 499.25 68.7834C499.25 69.0834 499.268 69.4254 499.304 69.8094C499.616 69.1254 500.114 68.5974 500.798 68.2254C501.482 67.8414 502.268 67.6494 503.156 67.6494ZM503.048 74.2014C503.96 74.2014 504.698 73.9554 505.262 73.4634C505.838 72.9594 506.126 72.2934 506.126 71.4654C506.126 70.6374 505.838 69.9774 505.262 69.4854C504.698 68.9934 503.93 68.7474 502.958 68.7474C502.322 68.7474 501.758 68.8674 501.266 69.1074C500.786 69.3474 500.408 69.6774 500.132 70.0974C499.856 70.5174 499.718 70.9854 499.718 71.5014C499.718 71.9814 499.844 72.4254 500.096 72.8334C500.36 73.2414 500.744 73.5714 501.248 73.8234C501.752 74.0754 502.352 74.2014 503.048 74.2014ZM514.125 67.6494C514.953 67.6494 515.685 67.8054 516.321 68.1174C516.969 68.4294 517.473 68.8734 517.833 69.4494C518.193 70.0134 518.373 70.6734 518.373 71.4294C518.373 72.1974 518.187 72.8754 517.815 73.4634C517.443 74.0514 516.927 74.5074 516.267 74.8314C515.619 75.1434 514.887 75.2994 514.071 75.2994C512.403 75.2994 511.125 74.7534 510.237 73.6614C509.349 72.5574 508.905 71.0034 508.905 68.9994C508.905 67.5954 509.145 66.4074 509.625 65.4354C510.105 64.4634 510.777 63.7314 511.641 63.2394C512.505 62.7354 513.513 62.4834 514.665 62.4834C515.913 62.4834 516.909 62.7114 517.653 63.1674L517.131 64.2114C516.531 63.8154 515.715 63.6174 514.683 63.6174C513.291 63.6174 512.199 64.0614 511.407 64.9494C510.615 65.8254 510.219 67.1034 510.219 68.7834C510.219 69.0834 510.237 69.4254 510.273 69.8094C510.585 69.1254 511.083 68.5974 511.767 68.2254C512.451 67.8414 513.237 67.6494 514.125 67.6494ZM514.017 74.2014C514.929 74.2014 515.667 73.9554 516.231 73.4634C516.807 72.9594 517.095 72.2934 517.095 71.4654C517.095 70.6374 516.807 69.9774 516.231 69.4854C515.667 68.9934 514.899 68.7474 513.927 68.7474C513.291 68.7474 512.727 68.8674 512.235 69.1074C511.755 69.3474 511.377 69.6774 511.101 70.0974C510.825 70.5174 510.687 70.9854 510.687 71.5014C510.687 71.9814 510.813 72.4254 511.065 72.8334C511.329 73.2414 511.713 73.5714 512.217 73.8234C512.721 74.0754 513.321 74.2014 514.017 74.2014ZM522.186 69.3414C521.334 69.3414 520.644 69.0294 520.116 68.4054C519.6 67.7694 519.342 66.9414 519.342 65.9214C519.342 64.9014 519.6 64.0794 520.116 63.4554C520.644 62.8194 521.334 62.5014 522.186 62.5014C523.026 62.5014 523.71 62.8134 524.238 63.4374C524.766 64.0614 525.03 64.8894 525.03 65.9214C525.03 66.9534 524.766 67.7814 524.238 68.4054C523.71 69.0294 523.026 69.3414 522.186 69.3414ZM529.818 62.5914H530.88L522.276 75.1914H521.214L529.818 62.5914ZM522.186 68.5314C522.774 68.5314 523.242 68.3034 523.59 67.8474C523.95 67.3794 524.13 66.7374 524.13 65.9214C524.13 65.1054 523.95 64.4694 523.59 64.0134C523.242 63.5454 522.774 63.3114 522.186 63.3114C521.586 63.3114 521.112 63.5454 520.764 64.0134C520.416 64.4814 520.242 65.1174 520.242 65.9214C520.242 66.7254 520.416 67.3614 520.764 67.8294C521.112 68.2974 521.586 68.5314 522.186 68.5314ZM529.908 75.2814C529.068 75.2814 528.384 74.9694 527.856 74.3454C527.328 73.7094 527.064 72.8814 527.064 71.8614C527.064 70.8414 527.328 70.0194 527.856 69.3954C528.384 68.7594 529.068 68.4414 529.908 68.4414C530.76 68.4414 531.444 68.7594 531.96 69.3954C532.488 70.0194 532.752 70.8414 532.752 71.8614C532.752 72.8814 532.488 73.7094 531.96 74.3454C531.444 74.9694 530.76 75.2814 529.908 75.2814ZM529.908 74.4714C530.508 74.4714 530.982 74.2374 531.33 73.7694C531.678 73.3014 531.852 72.6654 531.852 71.8614C531.852 71.0574 531.678 70.4214 531.33 69.9534C530.982 69.4854 530.508 69.2514 529.908 69.2514C529.32 69.2514 528.846 69.4854 528.486 69.9534C528.138 70.4094 527.964 71.0454 527.964 71.8614C527.964 72.6774 528.138 73.3194 528.486 73.7874C528.846 74.2434 529.32 74.4714 529.908 74.4714Z" fill="#4B4A51"/>
<path d="M502.22 5.99141C503.54 6.06341 504.542 6.42341 505.226 7.07141C505.922 7.70741 506.27 8.54141 506.27 9.57341C506.27 10.2934 506.096 10.9354 505.748 11.4994C505.4 12.0514 504.884 12.4894 504.2 12.8134C503.516 13.1374 502.682 13.2994 501.698 13.2994C500.786 13.2994 499.922 13.1554 499.106 12.8674C498.302 12.5674 497.654 12.1714 497.162 11.6794L497.792 10.6534C498.212 11.0854 498.77 11.4394 499.466 11.7154C500.162 11.9794 500.906 12.1114 501.698 12.1114C502.73 12.1114 503.528 11.8894 504.092 11.4454C504.656 10.9894 504.938 10.3654 504.938 9.57341C504.938 8.79341 504.656 8.18141 504.092 7.73741C503.528 7.29341 502.676 7.07141 501.536 7.07141H500.636V6.11741L504.128 1.74341H497.684V0.591405H505.784V1.50941L502.22 5.99141ZM515.314 6.58541C516.106 6.84941 516.712 7.24541 517.132 7.77341C517.564 8.30141 517.78 8.93741 517.78 9.68141C517.78 10.4134 517.582 11.0554 517.186 11.6074C516.79 12.1474 516.22 12.5674 515.476 12.8674C514.744 13.1554 513.88 13.2994 512.884 13.2994C511.372 13.2994 510.184 12.9754 509.32 12.3274C508.456 11.6794 508.024 10.7974 508.024 9.68141C508.024 8.92541 508.228 8.28941 508.636 7.77341C509.056 7.24541 509.662 6.84941 510.454 6.58541C509.806 6.33341 509.314 5.97341 508.978 5.50541C508.642 5.02541 508.474 4.46141 508.474 3.81341C508.474 2.79341 508.87 1.98341 509.662 1.38341C510.466 0.783406 511.54 0.483406 512.884 0.483406C513.772 0.483406 514.546 0.621406 515.206 0.897406C515.878 1.16141 516.4 1.54541 516.772 2.04941C517.144 2.55341 517.33 3.14141 517.33 3.81341C517.33 4.46141 517.156 5.02541 516.808 5.50541C516.46 5.97341 515.962 6.33341 515.314 6.58541ZM509.77 3.84941C509.77 4.54541 510.046 5.09741 510.598 5.50541C511.15 5.91341 511.912 6.11741 512.884 6.11741C513.856 6.11741 514.618 5.91341 515.17 5.50541C515.734 5.09741 516.016 4.55141 516.016 3.86741C516.016 3.15941 515.728 2.60141 515.152 2.19341C514.588 1.78541 513.832 1.58141 512.884 1.58141C511.924 1.58141 511.162 1.78541 510.598 2.19341C510.046 2.60141 509.77 3.15341 509.77 3.84941ZM512.884 12.2014C514 12.2014 514.87 11.9734 515.494 11.5174C516.13 11.0614 516.448 10.4434 516.448 9.66341C516.448 8.88341 516.13 8.27141 515.494 7.82741C514.87 7.37141 514 7.14341 512.884 7.14341C511.78 7.14341 510.91 7.37141 510.274 7.82741C509.65 8.27141 509.338 8.88341 509.338 9.66341C509.338 10.4554 509.65 11.0794 510.274 11.5354C510.898 11.9794 511.768 12.2014 512.884 12.2014ZM522.063 7.34141C521.211 7.34141 520.521 7.02941 519.993 6.40541C519.477 5.76941 519.219 4.94141 519.219 3.92141C519.219 2.90141 519.477 2.07941 519.993 1.45541C520.521 0.819406 521.211 0.501405 522.063 0.501405C522.903 0.501405 523.587 0.813405 524.115 1.43741C524.643 2.06141 524.907 2.88941 524.907 3.92141C524.907 4.95341 524.643 5.78141 524.115 6.40541C523.587 7.02941 522.903 7.34141 522.063 7.34141ZM529.695 0.591405H530.757L522.153 13.1914H521.091L529.695 0.591405ZM522.063 6.53141C522.651 6.53141 523.119 6.30341 523.467 5.84741C523.827 5.37941 524.007 4.73741 524.007 3.92141C524.007 3.10541 523.827 2.46941 523.467 2.01341C523.119 1.54541 522.651 1.31141 522.063 1.31141C521.463 1.31141 520.989 1.54541 520.641 2.01341C520.293 2.48141 520.119 3.11741 520.119 3.92141C520.119 4.72541 520.293 5.36141 520.641 5.82941C520.989 6.29741 521.463 6.53141 522.063 6.53141ZM529.785 13.2814C528.945 13.2814 528.261 12.9694 527.733 12.3454C527.205 11.7094 526.941 10.8814 526.941 9.86141C526.941 8.84141 527.205 8.01941 527.733 7.39541C528.261 6.75941 528.945 6.44141 529.785 6.44141C530.637 6.44141 531.321 6.75941 531.837 7.39541C532.365 8.01941 532.629 8.84141 532.629 9.86141C532.629 10.8814 532.365 11.7094 531.837 12.3454C531.321 12.9694 530.637 13.2814 529.785 13.2814ZM529.785 12.4714C530.385 12.4714 530.859 12.2374 531.207 11.7694C531.555 11.3014 531.729 10.6654 531.729 9.86141C531.729 9.05741 531.555 8.42141 531.207 7.95341C530.859 7.48541 530.385 7.25141 529.785 7.25141C529.197 7.25141 528.723 7.48541 528.363 7.95341C528.015 8.40941 527.841 9.04541 527.841 9.86141C527.841 10.6774 528.015 11.3194 528.363 11.7874C528.723 12.2434 529.197 12.4714 529.785 12.4714Z" fill="#4B4A51"/>
<path d="M74.5 31.1914L69.78 45.1914H68.22L64.12 33.2514L60 45.1914H58.46L53.74 31.1914H55.26L59.3 43.2314L63.48 31.1914H64.86L68.98 43.2914L73.08 31.1914H74.5ZM82.5666 34.5914C83.8866 34.5914 84.9332 34.9781 85.7066 35.7514C86.4932 36.5114 86.8866 37.6247 86.8866 39.0914V45.1914H85.4666V39.2314C85.4666 38.1381 85.1932 37.3047 84.6466 36.7314C84.0999 36.1581 83.3199 35.8714 82.3066 35.8714C81.1732 35.8714 80.2732 36.2114 79.6066 36.8914C78.9532 37.5581 78.6266 38.4847 78.6266 39.6714V45.1914H77.2066V30.3514H78.6266V36.5114C79.0132 35.8981 79.5466 35.4247 80.2266 35.0914C80.9066 34.7581 81.6866 34.5914 82.5666 34.5914ZM94.4217 34.5914C95.7951 34.5914 96.8484 34.9381 97.5817 35.6314C98.3151 36.3114 98.6817 37.3247 98.6817 38.6714V45.1914H97.3217V43.5514C97.0017 44.0981 96.5284 44.5247 95.9017 44.8314C95.2884 45.1381 94.5551 45.2914 93.7017 45.2914C92.5284 45.2914 91.5951 45.0114 90.9017 44.4514C90.2084 43.8914 89.8617 43.1514 89.8617 42.2314C89.8617 41.3381 90.1817 40.6181 90.8217 40.0714C91.4751 39.5247 92.5084 39.2514 93.9217 39.2514H97.2617V38.6114C97.2617 37.7047 97.0084 37.0181 96.5017 36.5514C95.9951 36.0714 95.2551 35.8314 94.2817 35.8314C93.6151 35.8314 92.9751 35.9447 92.3617 36.1714C91.7484 36.3847 91.2217 36.6847 90.7817 37.0714L90.1417 36.0114C90.6751 35.5581 91.3151 35.2114 92.0617 34.9714C92.8084 34.7181 93.5951 34.5914 94.4217 34.5914ZM93.9217 44.1714C94.7217 44.1714 95.4084 43.9914 95.9817 43.6314C96.5551 43.2581 96.9817 42.7247 97.2617 42.0314V40.3114H93.9617C92.1617 40.3114 91.2617 40.9381 91.2617 42.1914C91.2617 42.8047 91.4951 43.2914 91.9617 43.6514C92.4284 43.9981 93.0817 44.1714 93.9217 44.1714ZM108.079 44.5514C107.812 44.7914 107.479 44.9781 107.079 45.1114C106.692 45.2314 106.285 45.2914 105.859 45.2914C104.872 45.2914 104.112 45.0247 103.579 44.4914C103.045 43.9581 102.779 43.2047 102.779 42.2314V35.8714H100.899V34.6714H102.779V32.3714H104.199V34.6714H107.399V35.8714H104.199V42.1514C104.199 42.7781 104.352 43.2581 104.659 43.5914C104.979 43.9114 105.432 44.0714 106.019 44.0714C106.312 44.0714 106.592 44.0247 106.859 43.9314C107.139 43.8381 107.379 43.7047 107.579 43.5314L108.079 44.5514ZM119.578 34.5914C120.951 34.5914 122.005 34.9381 122.738 35.6314C123.471 36.3114 123.838 37.3247 123.838 38.6714V45.1914H122.478V43.5514C122.158 44.0981 121.685 44.5247 121.058 44.8314C120.445 45.1381 119.711 45.2914 118.858 45.2914C117.685 45.2914 116.751 45.0114 116.058 44.4514C115.365 43.8914 115.018 43.1514 115.018 42.2314C115.018 41.3381 115.338 40.6181 115.978 40.0714C116.631 39.5247 117.665 39.2514 119.078 39.2514H122.418V38.6114C122.418 37.7047 122.165 37.0181 121.658 36.5514C121.151 36.0714 120.411 35.8314 119.438 35.8314C118.771 35.8314 118.131 35.9447 117.518 36.1714C116.905 36.3847 116.378 36.6847 115.938 37.0714L115.298 36.0114C115.831 35.5581 116.471 35.2114 117.218 34.9714C117.965 34.7181 118.751 34.5914 119.578 34.5914ZM119.078 44.1714C119.878 44.1714 120.565 43.9914 121.138 43.6314C121.711 43.2581 122.138 42.7247 122.418 42.0314V40.3114H119.118C117.318 40.3114 116.418 40.9381 116.418 42.1914C116.418 42.8047 116.651 43.2914 117.118 43.6514C117.585 43.9981 118.238 44.1714 119.078 44.1714ZM129.055 36.7314C129.388 36.0247 129.882 35.4914 130.535 35.1314C131.202 34.7714 132.022 34.5914 132.995 34.5914V35.9714L132.655 35.9514C131.548 35.9514 130.682 36.2914 130.055 36.9714C129.428 37.6514 129.115 38.6047 129.115 39.8314V45.1914H127.695V34.6714H129.055V36.7314ZM144.628 40.3714H135.828C135.908 41.4647 136.328 42.3514 137.088 43.0314C137.848 43.6981 138.808 44.0314 139.968 44.0314C140.622 44.0314 141.222 43.9181 141.768 43.6914C142.315 43.4514 142.788 43.1047 143.188 42.6514L143.988 43.5714C143.522 44.1314 142.935 44.5581 142.228 44.8514C141.535 45.1447 140.768 45.2914 139.928 45.2914C138.848 45.2914 137.888 45.0647 137.048 44.6114C136.222 44.1447 135.575 43.5047 135.108 42.6914C134.642 41.8781 134.408 40.9581 134.408 39.9314C134.408 38.9047 134.628 37.9847 135.068 37.1714C135.522 36.3581 136.135 35.7247 136.908 35.2714C137.695 34.8181 138.575 34.5914 139.548 34.5914C140.522 34.5914 141.395 34.8181 142.168 35.2714C142.942 35.7247 143.548 36.3581 143.988 37.1714C144.428 37.9714 144.648 38.8914 144.648 39.9314L144.628 40.3714ZM139.548 35.8114C138.535 35.8114 137.682 36.1381 136.988 36.7914C136.308 37.4314 135.922 38.2714 135.828 39.3114H143.288C143.195 38.2714 142.802 37.4314 142.108 36.7914C141.428 36.1381 140.575 35.8114 139.548 35.8114ZM158.313 44.5514C158.046 44.7914 157.713 44.9781 157.313 45.1114C156.926 45.2314 156.52 45.2914 156.093 45.2914C155.106 45.2914 154.346 45.0247 153.813 44.4914C153.28 43.9581 153.013 43.2047 153.013 42.2314V35.8714H151.133V34.6714H153.013V32.3714H154.433V34.6714H157.633V35.8714H154.433V42.1514C154.433 42.7781 154.586 43.2581 154.893 43.5914C155.213 43.9114 155.666 44.0714 156.253 44.0714C156.546 44.0714 156.826 44.0247 157.093 43.9314C157.373 43.8381 157.613 43.7047 157.813 43.5314L158.313 44.5514ZM166.258 34.5914C167.578 34.5914 168.625 34.9781 169.398 35.7514C170.185 36.5114 170.578 37.6247 170.578 39.0914V45.1914H169.158V39.2314C169.158 38.1381 168.885 37.3047 168.338 36.7314C167.791 36.1581 167.011 35.8714 165.998 35.8714C164.865 35.8714 163.965 36.2114 163.298 36.8914C162.645 37.5581 162.318 38.4847 162.318 39.6714V45.1914H160.898V30.3514H162.318V36.5114C162.705 35.8981 163.238 35.4247 163.918 35.0914C164.598 34.7581 165.378 34.5914 166.258 34.5914ZM183.632 40.3714H174.832C174.912 41.4647 175.332 42.3514 176.092 43.0314C176.852 43.6981 177.812 44.0314 178.972 44.0314C179.626 44.0314 180.226 43.9181 180.772 43.6914C181.319 43.4514 181.792 43.1047 182.192 42.6514L182.992 43.5714C182.526 44.1314 181.939 44.5581 181.232 44.8514C180.539 45.1447 179.772 45.2914 178.932 45.2914C177.852 45.2914 176.892 45.0647 176.052 44.6114C175.226 44.1447 174.579 43.5047 174.112 42.6914C173.646 41.8781 173.412 40.9581 173.412 39.9314C173.412 38.9047 173.632 37.9847 174.072 37.1714C174.526 36.3581 175.139 35.7247 175.912 35.2714C176.699 34.8181 177.579 34.5914 178.552 34.5914C179.526 34.5914 180.399 34.8181 181.172 35.2714C181.946 35.7247 182.552 36.3581 182.992 37.1714C183.432 37.9714 183.652 38.8914 183.652 39.9314L183.632 40.3714ZM178.552 35.8114C177.539 35.8114 176.686 36.1381 175.992 36.7914C175.312 37.4314 174.926 38.2714 174.832 39.3114H182.292C182.199 38.2714 181.806 37.4314 181.112 36.7914C180.432 36.1381 179.579 35.8114 178.552 35.8114ZM204.897 34.5914C206.217 34.5914 207.25 34.9714 207.997 35.7314C208.757 36.4914 209.137 37.6114 209.137 39.0914V45.1914H207.717V39.2314C207.717 38.1381 207.45 37.3047 206.917 36.7314C206.397 36.1581 205.657 35.8714 204.697 35.8714C203.604 35.8714 202.744 36.2114 202.117 36.8914C201.49 37.5581 201.177 38.4847 201.177 39.6714V45.1914H199.757V39.2314C199.757 38.1381 199.49 37.3047 198.957 36.7314C198.437 36.1581 197.69 35.8714 196.717 35.8714C195.637 35.8714 194.777 36.2114 194.137 36.8914C193.51 37.5581 193.197 38.4847 193.197 39.6714V45.1914H191.777V34.6714H193.137V36.5914C193.51 35.9514 194.03 35.4581 194.697 35.1114C195.364 34.7647 196.13 34.5914 196.997 34.5914C197.877 34.5914 198.637 34.7781 199.277 35.1514C199.93 35.5247 200.417 36.0781 200.737 36.8114C201.124 36.1181 201.677 35.5781 202.397 35.1914C203.13 34.7914 203.964 34.5914 204.897 34.5914ZM217.327 45.2914C216.314 45.2914 215.4 45.0647 214.587 44.6114C213.774 44.1447 213.134 43.5047 212.667 42.6914C212.2 41.8781 211.967 40.9581 211.967 39.9314C211.967 38.9047 212.2 37.9847 212.667 37.1714C213.134 36.3581 213.774 35.7247 214.587 35.2714C215.4 34.8181 216.314 34.5914 217.327 34.5914C218.34 34.5914 219.254 34.8181 220.067 35.2714C220.88 35.7247 221.514 36.3581 221.967 37.1714C222.434 37.9847 222.667 38.9047 222.667 39.9314C222.667 40.9581 222.434 41.8781 221.967 42.6914C221.514 43.5047 220.88 44.1447 220.067 44.6114C219.254 45.0647 218.34 45.2914 217.327 45.2914ZM217.327 44.0314C218.074 44.0314 218.74 43.8647 219.327 43.5314C219.927 43.1847 220.394 42.6981 220.727 42.0714C221.06 41.4447 221.227 40.7314 221.227 39.9314C221.227 39.1314 221.06 38.4181 220.727 37.7914C220.394 37.1647 219.927 36.6847 219.327 36.3514C218.74 36.0047 218.074 35.8314 217.327 35.8314C216.58 35.8314 215.907 36.0047 215.307 36.3514C214.72 36.6847 214.254 37.1647 213.907 37.7914C213.574 38.4181 213.407 39.1314 213.407 39.9314C213.407 40.7314 213.574 41.4447 213.907 42.0714C214.254 42.6981 214.72 43.1847 215.307 43.5314C215.907 43.8647 216.58 44.0314 217.327 44.0314ZM228.386 45.2914C227.533 45.2914 226.713 45.1714 225.926 44.9314C225.153 44.6781 224.546 44.3647 224.106 43.9914L224.746 42.8714C225.186 43.2181 225.739 43.5047 226.406 43.7314C227.073 43.9447 227.766 44.0514 228.486 44.0514C229.446 44.0514 230.153 43.9047 230.606 43.6114C231.073 43.3047 231.306 42.8781 231.306 42.3314C231.306 41.9447 231.179 41.6447 230.926 41.4314C230.673 41.2047 230.353 41.0381 229.966 40.9314C229.579 40.8114 229.066 40.6981 228.426 40.5914C227.573 40.4314 226.886 40.2714 226.366 40.1114C225.846 39.9381 225.399 39.6514 225.026 39.2514C224.666 38.8514 224.486 38.2981 224.486 37.5914C224.486 36.7114 224.853 35.9914 225.586 35.4314C226.319 34.8714 227.339 34.5914 228.646 34.5914C229.326 34.5914 230.006 34.6847 230.686 34.8714C231.366 35.0447 231.926 35.2781 232.366 35.5714L231.746 36.7114C230.879 36.1114 229.846 35.8114 228.646 35.8114C227.739 35.8114 227.053 35.9714 226.586 36.2914C226.133 36.6114 225.906 37.0314 225.906 37.5514C225.906 37.9514 226.033 38.2714 226.286 38.5114C226.553 38.7514 226.879 38.9314 227.266 39.0514C227.653 39.1581 228.186 39.2714 228.866 39.3914C229.706 39.5514 230.379 39.7114 230.886 39.8714C231.393 40.0314 231.826 40.3047 232.186 40.6914C232.546 41.0781 232.726 41.6114 232.726 42.2914C232.726 43.2114 232.339 43.9447 231.566 44.4914C230.806 45.0247 229.746 45.2914 228.386 45.2914ZM240.891 44.5514C240.624 44.7914 240.291 44.9781 239.891 45.1114C239.504 45.2314 239.098 45.2914 238.671 45.2914C237.684 45.2914 236.924 45.0247 236.391 44.4914C235.858 43.9581 235.591 43.2047 235.591 42.2314V35.8714H233.711V34.6714H235.591V32.3714H237.011V34.6714H240.211V35.8714H237.011V42.1514C237.011 42.7781 237.164 43.2581 237.471 43.5914C237.791 43.9114 238.244 44.0714 238.831 44.0714C239.124 44.0714 239.404 44.0247 239.671 43.9314C239.951 43.8381 240.191 43.7047 240.391 43.5314L240.891 44.5514ZM248.71 34.6714H250.13V45.1914H248.71V34.6714ZM249.43 32.3714C249.137 32.3714 248.89 32.2714 248.69 32.0714C248.49 31.8714 248.39 31.6314 248.39 31.3514C248.39 31.0847 248.49 30.8514 248.69 30.6514C248.89 30.4514 249.137 30.3514 249.43 30.3514C249.724 30.3514 249.97 30.4514 250.17 30.6514C250.37 30.8381 250.47 31.0647 250.47 31.3314C250.47 31.6247 250.37 31.8714 250.17 32.0714C249.97 32.2714 249.724 32.3714 249.43 32.3714ZM267.202 34.5914C268.522 34.5914 269.555 34.9714 270.302 35.7314C271.062 36.4914 271.442 37.6114 271.442 39.0914V45.1914H270.022V39.2314C270.022 38.1381 269.755 37.3047 269.222 36.7314C268.702 36.1581 267.962 35.8714 267.002 35.8714C265.908 35.8714 265.048 36.2114 264.422 36.8914C263.795 37.5581 263.482 38.4847 263.482 39.6714V45.1914H262.062V39.2314C262.062 38.1381 261.795 37.3047 261.262 36.7314C260.742 36.1581 259.995 35.8714 259.022 35.8714C257.942 35.8714 257.082 36.2114 256.442 36.8914C255.815 37.5581 255.502 38.4847 255.502 39.6714V45.1914H254.082V34.6714H255.442V36.5914C255.815 35.9514 256.335 35.4581 257.002 35.1114C257.668 34.7647 258.435 34.5914 259.302 34.5914C260.182 34.5914 260.942 34.7781 261.582 35.1514C262.235 35.5247 262.722 36.0781 263.042 36.8114C263.428 36.1181 263.982 35.5781 264.702 35.1914C265.435 34.7914 266.268 34.5914 267.202 34.5914ZM280.713 34.5914C281.699 34.5914 282.593 34.8181 283.393 35.2714C284.193 35.7114 284.819 36.3381 285.273 37.1514C285.726 37.9647 285.953 38.8914 285.953 39.9314C285.953 40.9847 285.726 41.9181 285.273 42.7314C284.819 43.5447 284.193 44.1781 283.393 44.6314C282.606 45.0714 281.713 45.2914 280.713 45.2914C279.859 45.2914 279.086 45.1181 278.393 44.7714C277.713 44.4114 277.153 43.8914 276.713 43.2114V49.0714H275.293V34.6714H276.653V36.7514C277.079 36.0581 277.639 35.5247 278.333 35.1514C279.039 34.7781 279.833 34.5914 280.713 34.5914ZM280.613 44.0314C281.346 44.0314 282.013 43.8647 282.613 43.5314C283.213 43.1847 283.679 42.6981 284.013 42.0714C284.359 41.4447 284.533 40.7314 284.533 39.9314C284.533 39.1314 284.359 38.4247 284.013 37.8114C283.679 37.1847 283.213 36.6981 282.613 36.3514C282.013 36.0047 281.346 35.8314 280.613 35.8314C279.866 35.8314 279.193 36.0047 278.592 36.3514C278.006 36.6981 277.539 37.1847 277.193 37.8114C276.859 38.4247 276.693 39.1314 276.693 39.9314C276.693 40.7314 276.859 41.4447 277.193 42.0714C277.539 42.6981 278.006 43.1847 278.592 43.5314C279.193 43.8647 279.866 44.0314 280.613 44.0314ZM293.147 45.2914C292.134 45.2914 291.221 45.0647 290.407 44.6114C289.594 44.1447 288.954 43.5047 288.487 42.6914C288.021 41.8781 287.787 40.9581 287.787 39.9314C287.787 38.9047 288.021 37.9847 288.487 37.1714C288.954 36.3581 289.594 35.7247 290.407 35.2714C291.221 34.8181 292.134 34.5914 293.147 34.5914C294.161 34.5914 295.074 34.8181 295.887 35.2714C296.701 35.7247 297.334 36.3581 297.787 37.1714C298.254 37.9847 298.487 38.9047 298.487 39.9314C298.487 40.9581 298.254 41.8781 297.787 42.6914C297.334 43.5047 296.701 44.1447 295.887 44.6114C295.074 45.0647 294.161 45.2914 293.147 45.2914ZM293.147 44.0314C293.894 44.0314 294.561 43.8647 295.147 43.5314C295.747 43.1847 296.214 42.6981 296.547 42.0714C296.881 41.4447 297.047 40.7314 297.047 39.9314C297.047 39.1314 296.881 38.4181 296.547 37.7914C296.214 37.1647 295.747 36.6847 295.147 36.3514C294.561 36.0047 293.894 35.8314 293.147 35.8314C292.401 35.8314 291.727 36.0047 291.127 36.3514C290.541 36.6847 290.074 37.1647 289.727 37.7914C289.394 38.4181 289.227 39.1314 289.227 39.9314C289.227 40.7314 289.394 41.4447 289.727 42.0714C290.074 42.6981 290.541 43.1847 291.127 43.5314C291.727 43.8647 292.401 44.0314 293.147 44.0314ZM302.746 36.7314C303.08 36.0247 303.573 35.4914 304.226 35.1314C304.893 34.7714 305.713 34.5914 306.686 34.5914V35.9714L306.346 35.9514C305.24 35.9514 304.373 36.2914 303.746 36.9714C303.12 37.6514 302.806 38.6047 302.806 39.8314V45.1914H301.386V34.6714H302.746V36.7314ZM315.247 44.5514C314.98 44.7914 314.647 44.9781 314.247 45.1114C313.86 45.2314 313.453 45.2914 313.027 45.2914C312.04 45.2914 311.28 45.0247 310.747 44.4914C310.213 43.9581 309.947 43.2047 309.947 42.2314V35.8714H308.067V34.6714H309.947V32.3714H311.367V34.6714H314.567V35.8714H311.367V42.1514C311.367 42.7781 311.52 43.2581 311.827 43.5914C312.147 43.9114 312.6 44.0714 313.187 44.0714C313.48 44.0714 313.76 44.0247 314.027 43.9314C314.307 43.8381 314.547 43.7047 314.747 43.5314L315.247 44.5514ZM321.512 34.5914C322.885 34.5914 323.938 34.9381 324.672 35.6314C325.405 36.3114 325.772 37.3247 325.772 38.6714V45.1914H324.412V43.5514C324.092 44.0981 323.618 44.5247 322.992 44.8314C322.378 45.1381 321.645 45.2914 320.792 45.2914C319.618 45.2914 318.685 45.0114 317.992 44.4514C317.298 43.8914 316.952 43.1514 316.952 42.2314C316.952 41.3381 317.272 40.6181 317.912 40.0714C318.565 39.5247 319.598 39.2514 321.012 39.2514H324.352V38.6114C324.352 37.7047 324.098 37.0181 323.592 36.5514C323.085 36.0714 322.345 35.8314 321.372 35.8314C320.705 35.8314 320.065 35.9447 319.452 36.1714C318.838 36.3847 318.312 36.6847 317.872 37.0714L317.232 36.0114C317.765 35.5581 318.405 35.2114 319.152 34.9714C319.898 34.7181 320.685 34.5914 321.512 34.5914ZM321.012 44.1714C321.812 44.1714 322.498 43.9914 323.072 43.6314C323.645 43.2581 324.072 42.7247 324.352 42.0314V40.3114H321.052C319.252 40.3114 318.352 40.9381 318.352 42.1914C318.352 42.8047 318.585 43.2914 319.052 43.6514C319.518 43.9981 320.172 44.1714 321.012 44.1714ZM334.988 34.5914C336.308 34.5914 337.355 34.9781 338.128 35.7514C338.915 36.5114 339.308 37.6247 339.308 39.0914V45.1914H337.888V39.2314C337.888 38.1381 337.615 37.3047 337.068 36.7314C336.522 36.1581 335.742 35.8714 334.728 35.8714C333.595 35.8714 332.695 36.2114 332.028 36.8914C331.375 37.5581 331.048 38.4847 331.048 39.6714V45.1914H329.628V34.6714H330.988V36.6114C331.375 35.9714 331.908 35.4781 332.588 35.1314C333.282 34.7714 334.082 34.5914 334.988 34.5914ZM348.704 44.5514C348.437 44.7914 348.104 44.9781 347.704 45.1114C347.317 45.2314 346.91 45.2914 346.484 45.2914C345.497 45.2914 344.737 45.0247 344.204 44.4914C343.67 43.9581 343.404 43.2047 343.404 42.2314V35.8714H341.524V34.6714H343.404V32.3714H344.824V34.6714H348.024V35.8714H344.824V42.1514C344.824 42.7781 344.977 43.2581 345.284 43.5914C345.604 43.9114 346.057 44.0714 346.644 44.0714C346.937 44.0714 347.217 44.0247 347.484 43.9314C347.764 43.8381 348.004 43.7047 348.204 43.5314L348.704 44.5514ZM362.063 44.5514C361.796 44.7914 361.463 44.9781 361.063 45.1114C360.676 45.2314 360.27 45.2914 359.843 45.2914C358.856 45.2914 358.096 45.0247 357.563 44.4914C357.03 43.9581 356.763 43.2047 356.763 42.2314V35.8714H354.883V34.6714H356.763V32.3714H358.183V34.6714H361.383V35.8714H358.183V42.1514C358.183 42.7781 358.336 43.2581 358.643 43.5914C358.963 43.9114 359.416 44.0714 360.003 44.0714C360.296 44.0714 360.576 44.0247 360.843 43.9314C361.123 43.8381 361.363 43.7047 361.563 43.5314L362.063 44.5514ZM370.008 34.5914C371.328 34.5914 372.375 34.9781 373.148 35.7514C373.935 36.5114 374.328 37.6247 374.328 39.0914V45.1914H372.908V39.2314C372.908 38.1381 372.635 37.3047 372.088 36.7314C371.541 36.1581 370.761 35.8714 369.748 35.8714C368.615 35.8714 367.715 36.2114 367.048 36.8914C366.395 37.5581 366.068 38.4847 366.068 39.6714V45.1914H364.648V30.3514H366.068V36.5114C366.455 35.8981 366.988 35.4247 367.668 35.0914C368.348 34.7581 369.128 34.5914 370.008 34.5914ZM378.183 34.6714H379.603V45.1914H378.183V34.6714ZM378.903 32.3714C378.61 32.3714 378.363 32.2714 378.163 32.0714C377.963 31.8714 377.863 31.6314 377.863 31.3514C377.863 31.0847 377.963 30.8514 378.163 30.6514C378.363 30.4514 378.61 30.3514 378.903 30.3514C379.196 30.3514 379.443 30.4514 379.643 30.6514C379.843 30.8381 379.943 31.0647 379.943 31.3314C379.943 31.6247 379.843 31.8714 379.643 32.0714C379.443 32.2714 379.196 32.3714 378.903 32.3714ZM388.914 34.5914C390.234 34.5914 391.281 34.9781 392.054 35.7514C392.841 36.5114 393.234 37.6247 393.234 39.0914V45.1914H391.814V39.2314C391.814 38.1381 391.541 37.3047 390.994 36.7314C390.448 36.1581 389.668 35.8714 388.654 35.8714C387.521 35.8714 386.621 36.2114 385.954 36.8914C385.301 37.5581 384.974 38.4847 384.974 39.6714V45.1914H383.554V34.6714H384.914V36.6114C385.301 35.9714 385.834 35.4781 386.514 35.1314C387.208 34.7714 388.008 34.5914 388.914 34.5914ZM406.868 34.6714V43.9114C406.868 45.6981 406.428 47.0181 405.548 47.8714C404.682 48.7381 403.368 49.1714 401.608 49.1714C400.635 49.1714 399.708 49.0247 398.828 48.7314C397.962 48.4514 397.255 48.0581 396.708 47.5514L397.428 46.4714C397.935 46.9247 398.548 47.2781 399.268 47.5314C400.002 47.7847 400.768 47.9114 401.568 47.9114C402.902 47.9114 403.882 47.5981 404.508 46.9714C405.135 46.3581 405.448 45.3981 405.448 44.0914V42.7514C405.008 43.4181 404.428 43.9247 403.708 44.2714C403.002 44.6181 402.215 44.7914 401.348 44.7914C400.362 44.7914 399.462 44.5781 398.648 44.1514C397.848 43.7114 397.215 43.1047 396.748 42.3314C396.295 41.5447 396.068 40.6581 396.068 39.6714C396.068 38.6847 396.295 37.8047 396.748 37.0314C397.215 36.2581 397.848 35.6581 398.648 35.2314C399.448 34.8047 400.348 34.5914 401.348 34.5914C402.242 34.5914 403.048 34.7714 403.768 35.1314C404.488 35.4914 405.068 36.0114 405.508 36.6914V34.6714H406.868ZM401.488 43.5314C402.248 43.5314 402.935 43.3714 403.548 43.0514C404.162 42.7181 404.635 42.2581 404.968 41.6714C405.315 41.0847 405.488 40.4181 405.488 39.6714C405.488 38.9247 405.315 38.2647 404.968 37.6914C404.635 37.1047 404.162 36.6514 403.548 36.3314C402.948 35.9981 402.262 35.8314 401.488 35.8314C400.728 35.8314 400.042 35.9914 399.428 36.3114C398.828 36.6314 398.355 37.0847 398.008 37.6714C397.675 38.2581 397.508 38.9247 397.508 39.6714C397.508 40.4181 397.675 41.0847 398.008 41.6714C398.355 42.2581 398.828 42.7181 399.428 43.0514C400.042 43.3714 400.728 43.5314 401.488 43.5314ZM413.659 45.2914C412.806 45.2914 411.986 45.1714 411.199 44.9314C410.426 44.6781 409.819 44.3647 409.379 43.9914L410.019 42.8714C410.459 43.2181 411.013 43.5047 411.679 43.7314C412.346 43.9447 413.039 44.0514 413.759 44.0514C414.719 44.0514 415.426 43.9047 415.879 43.6114C416.346 43.3047 416.579 42.8781 416.579 42.3314C416.579 41.9447 416.453 41.6447 416.199 41.4314C415.946 41.2047 415.626 41.0381 415.239 40.9314C414.853 40.8114 414.339 40.6981 413.699 40.5914C412.846 40.4314 412.159 40.2714 411.639 40.1114C411.119 39.9381 410.673 39.6514 410.299 39.2514C409.939 38.8514 409.759 38.2981 409.759 37.5914C409.759 36.7114 410.126 35.9914 410.859 35.4314C411.593 34.8714 412.613 34.5914 413.919 34.5914C414.599 34.5914 415.279 34.6847 415.959 34.8714C416.639 35.0447 417.199 35.2781 417.639 35.5714L417.019 36.7114C416.153 36.1114 415.119 35.8114 413.919 35.8114C413.013 35.8114 412.326 35.9714 411.859 36.2914C411.406 36.6114 411.179 37.0314 411.179 37.5514C411.179 37.9514 411.306 38.2714 411.559 38.5114C411.826 38.7514 412.153 38.9314 412.539 39.0514C412.926 39.1581 413.459 39.2714 414.139 39.3914C414.979 39.5514 415.653 39.7114 416.159 39.8714C416.666 40.0314 417.099 40.3047 417.459 40.6914C417.819 41.0781 417.999 41.6114 417.999 42.2914C417.999 43.2114 417.613 43.9447 416.839 44.4914C416.079 45.0247 415.019 45.2914 413.659 45.2914ZM434.699 34.6714L429.439 46.4514C429.012 47.4381 428.519 48.1381 427.959 48.5514C427.399 48.9647 426.726 49.1714 425.939 49.1714C425.432 49.1714 424.959 49.0914 424.519 48.9314C424.079 48.7714 423.699 48.5314 423.379 48.2114L424.039 47.1514C424.572 47.6847 425.212 47.9514 425.959 47.9514C426.439 47.9514 426.846 47.8181 427.179 47.5514C427.526 47.2847 427.846 46.8314 428.139 46.1914L428.599 45.1714L423.899 34.6714H425.379L429.339 43.6114L433.299 34.6714H434.699ZM440.706 45.2914C439.692 45.2914 438.779 45.0647 437.966 44.6114C437.152 44.1447 436.512 43.5047 436.046 42.6914C435.579 41.8781 435.346 40.9581 435.346 39.9314C435.346 38.9047 435.579 37.9847 436.046 37.1714C436.512 36.3581 437.152 35.7247 437.966 35.2714C438.779 34.8181 439.692 34.5914 440.706 34.5914C441.719 34.5914 442.632 34.8181 443.446 35.2714C444.259 35.7247 444.892 36.3581 445.346 37.1714C445.812 37.9847 446.046 38.9047 446.046 39.9314C446.046 40.9581 445.812 41.8781 445.346 42.6914C444.892 43.5047 444.259 44.1447 443.446 44.6114C442.632 45.0647 441.719 45.2914 440.706 45.2914ZM440.706 44.0314C441.452 44.0314 442.119 43.8647 442.706 43.5314C443.306 43.1847 443.772 42.6981 444.106 42.0714C444.439 41.4447 444.606 40.7314 444.606 39.9314C444.606 39.1314 444.439 38.4181 444.106 37.7914C443.772 37.1647 443.306 36.6847 442.706 36.3514C442.119 36.0047 441.452 35.8314 440.706 35.8314C439.959 35.8314 439.286 36.0047 438.686 36.3514C438.099 36.6847 437.632 37.1647 437.286 37.7914C436.952 38.4181 436.786 39.1314 436.786 39.9314C436.786 40.7314 436.952 41.4447 437.286 42.0714C437.632 42.6981 438.099 43.1847 438.686 43.5314C439.286 43.8647 439.959 44.0314 440.706 44.0314ZM458.425 34.6714V45.1914H457.065V43.2714C456.692 43.9114 456.178 44.4114 455.525 44.7714C454.872 45.1181 454.125 45.2914 453.285 45.2914C451.912 45.2914 450.825 44.9114 450.025 44.1514C449.238 43.3781 448.845 42.2514 448.845 40.7714V34.6714H450.265V40.6314C450.265 41.7381 450.538 42.5781 451.085 43.1514C451.632 43.7247 452.412 44.0114 453.425 44.0114C454.532 44.0114 455.405 43.6781 456.045 43.0114C456.685 42.3314 457.005 41.3914 457.005 40.1914V34.6714H458.425ZM483.076 34.6714L479.096 45.1914H477.756L474.436 36.5714L471.116 45.1914H469.776L465.816 34.6714H467.176L470.476 43.6114L473.856 34.6714H475.076L478.436 43.6114L481.776 34.6714H483.076ZM488.582 34.5914C489.955 34.5914 491.009 34.9381 491.742 35.6314C492.475 36.3114 492.842 37.3247 492.842 38.6714V45.1914H491.482V43.5514C491.162 44.0981 490.689 44.5247 490.062 44.8314C489.449 45.1381 488.715 45.2914 487.862 45.2914C486.689 45.2914 485.755 45.0114 485.062 44.4514C484.369 43.8914 484.022 43.1514 484.022 42.2314C484.022 41.3381 484.342 40.6181 484.982 40.0714C485.635 39.5247 486.669 39.2514 488.082 39.2514H491.422V38.6114C491.422 37.7047 491.169 37.0181 490.662 36.5514C490.155 36.0714 489.415 35.8314 488.442 35.8314C487.775 35.8314 487.135 35.9447 486.522 36.1714C485.909 36.3847 485.382 36.6847 484.942 37.0714L484.302 36.0114C484.835 35.5581 485.475 35.2114 486.222 34.9714C486.969 34.7181 487.755 34.5914 488.582 34.5914ZM488.082 44.1714C488.882 44.1714 489.569 43.9914 490.142 43.6314C490.715 43.2581 491.142 42.7247 491.422 42.0314V40.3114H488.122C486.322 40.3114 485.422 40.9381 485.422 42.1914C485.422 42.8047 485.655 43.2914 486.122 43.6514C486.589 43.9981 487.242 44.1714 488.082 44.1714ZM502.059 34.5914C503.379 34.5914 504.425 34.9781 505.199 35.7514C505.985 36.5114 506.379 37.6247 506.379 39.0914V45.1914H504.959V39.2314C504.959 38.1381 504.685 37.3047 504.139 36.7314C503.592 36.1581 502.812 35.8714 501.799 35.8714C500.665 35.8714 499.765 36.2114 499.099 36.8914C498.445 37.5581 498.119 38.4847 498.119 39.6714V45.1914H496.699V34.6714H498.059V36.6114C498.445 35.9714 498.979 35.4781 499.659 35.1314C500.352 34.7714 501.152 34.5914 502.059 34.5914ZM515.774 44.5514C515.507 44.7914 515.174 44.9781 514.774 45.1114C514.387 45.2314 513.981 45.2914 513.554 45.2914C512.567 45.2914 511.807 45.0247 511.274 44.4914C510.741 43.9581 510.474 43.2047 510.474 42.2314V35.8714H508.594V34.6714H510.474V32.3714H511.894V34.6714H515.094V35.8714H511.894V42.1514C511.894 42.7781 512.047 43.2581 512.354 43.5914C512.674 43.9114 513.127 44.0714 513.714 44.0714C514.007 44.0714 514.287 44.0247 514.554 43.9314C514.834 43.8381 515.074 43.7047 515.274 43.5314L515.774 44.5514ZM60.52 68.5514C60.2533 68.7914 59.92 68.9781 59.52 69.1114C59.1333 69.2314 58.7267 69.2914 58.3 69.2914C57.3133 69.2914 56.5533 69.0247 56.02 68.4914C55.4867 67.9581 55.22 67.2047 55.22 66.2314V59.8714H53.34V58.6714H55.22V56.3714H56.64V58.6714H59.84V59.8714H56.64V66.1514C56.64 66.7781 56.7933 67.2581 57.1 67.5914C57.42 67.9114 57.8733 68.0714 58.46 68.0714C58.7533 68.0714 59.0333 68.0247 59.3 67.9314C59.58 67.8381 59.82 67.7047 60.02 67.5314L60.52 68.5514ZM67.0339 69.2914C66.0206 69.2914 65.1072 69.0647 64.2939 68.6114C63.4806 68.1447 62.8406 67.5047 62.3739 66.6914C61.9072 65.8781 61.6739 64.9581 61.6739 63.9314C61.6739 62.9047 61.9072 61.9847 62.3739 61.1714C62.8406 60.3581 63.4806 59.7247 64.2939 59.2714C65.1072 58.8181 66.0206 58.5914 67.0339 58.5914C68.0472 58.5914 68.9606 58.8181 69.7739 59.2714C70.5872 59.7247 71.2206 60.3581 71.6739 61.1714C72.1406 61.9847 72.3739 62.9047 72.3739 63.9314C72.3739 64.9581 72.1406 65.8781 71.6739 66.6914C71.2206 67.5047 70.5872 68.1447 69.7739 68.6114C68.9606 69.0647 68.0472 69.2914 67.0339 69.2914ZM67.0339 68.0314C67.7806 68.0314 68.4472 67.8647 69.0339 67.5314C69.6339 67.1847 70.1006 66.6981 70.4339 66.0714C70.7672 65.4447 70.9339 64.7314 70.9339 63.9314C70.9339 63.1314 70.7672 62.4181 70.4339 61.7914C70.1006 61.1647 69.6339 60.6847 69.0339 60.3514C68.4472 60.0047 67.7806 59.8314 67.0339 59.8314C66.2872 59.8314 65.6139 60.0047 65.0139 60.3514C64.4272 60.6847 63.9606 61.1647 63.6139 61.7914C63.2806 62.4181 63.1139 63.1314 63.1139 63.9314C63.1139 64.7314 63.2806 65.4447 63.6139 66.0714C63.9606 66.6981 64.4272 67.1847 65.0139 67.5314C65.6139 67.8647 66.2872 68.0314 67.0339 68.0314ZM84.4073 63.9114L81.9273 66.1914V69.1914H80.5073V54.3514H81.9273V64.4114L88.2073 58.6714H89.9673L85.4673 62.9714L90.3873 69.1914H88.6473L84.4073 63.9114ZM97.7228 58.5914C99.0428 58.5914 100.089 58.9781 100.863 59.7514C101.649 60.5114 102.043 61.6247 102.043 63.0914V69.1914H100.623V63.2314C100.623 62.1381 100.349 61.3047 99.8028 60.7314C99.2561 60.1581 98.4761 59.8714 97.4628 59.8714C96.3295 59.8714 95.4295 60.2114 94.7628 60.8914C94.1095 61.5581 93.7828 62.4847 93.7828 63.6714V69.1914H92.3628V58.6714H93.7228V60.6114C94.1095 59.9714 94.6428 59.4781 95.3228 59.1314C96.0161 58.7714 96.8161 58.5914 97.7228 58.5914ZM110.237 69.2914C109.224 69.2914 108.31 69.0647 107.497 68.6114C106.684 68.1447 106.044 67.5047 105.577 66.6914C105.11 65.8781 104.877 64.9581 104.877 63.9314C104.877 62.9047 105.11 61.9847 105.577 61.1714C106.044 60.3581 106.684 59.7247 107.497 59.2714C108.31 58.8181 109.224 58.5914 110.237 58.5914C111.25 58.5914 112.164 58.8181 112.977 59.2714C113.79 59.7247 114.424 60.3581 114.877 61.1714C115.344 61.9847 115.577 62.9047 115.577 63.9314C115.577 64.9581 115.344 65.8781 114.877 66.6914C114.424 67.5047 113.79 68.1447 112.977 68.6114C112.164 69.0647 111.25 69.2914 110.237 69.2914ZM110.237 68.0314C110.984 68.0314 111.65 67.8647 112.237 67.5314C112.837 67.1847 113.304 66.6981 113.637 66.0714C113.97 65.4447 114.137 64.7314 114.137 63.9314C114.137 63.1314 113.97 62.4181 113.637 61.7914C113.304 61.1647 112.837 60.6847 112.237 60.3514C111.65 60.0047 110.984 59.8314 110.237 59.8314C109.49 59.8314 108.817 60.0047 108.217 60.3514C107.63 60.6847 107.164 61.1647 106.817 61.7914C106.484 62.4181 106.317 63.1314 106.317 63.9314C106.317 64.7314 106.484 65.4447 106.817 66.0714C107.164 66.6981 107.63 67.1847 108.217 67.5314C108.817 67.8647 109.49 68.0314 110.237 68.0314ZM133.623 58.6714L129.643 69.1914H128.303L124.983 60.5714L121.663 69.1914H120.323L116.363 58.6714H117.723L121.023 67.6114L124.403 58.6714H125.623L128.983 67.6114L132.323 58.6714H133.623ZM144.676 58.5914C146.049 58.5914 147.102 58.9381 147.836 59.6314C148.569 60.3114 148.936 61.3247 148.936 62.6714V69.1914H147.576V67.5514C147.256 68.0981 146.782 68.5247 146.156 68.8314C145.542 69.1381 144.809 69.2914 143.956 69.2914C142.782 69.2914 141.849 69.0114 141.156 68.4514C140.462 67.8914 140.116 67.1514 140.116 66.2314C140.116 65.3381 140.436 64.6181 141.076 64.0714C141.729 63.5247 142.762 63.2514 144.176 63.2514H147.516V62.6114C147.516 61.7047 147.262 61.0181 146.756 60.5514C146.249 60.0714 145.509 59.8314 144.536 59.8314C143.869 59.8314 143.229 59.9447 142.616 60.1714C142.002 60.3847 141.476 60.6847 141.036 61.0714L140.396 60.0114C140.929 59.5581 141.569 59.2114 142.316 58.9714C143.062 58.7181 143.849 58.5914 144.676 58.5914ZM144.176 68.1714C144.976 68.1714 145.662 67.9914 146.236 67.6314C146.809 67.2581 147.236 66.7247 147.516 66.0314V64.3114H144.216C142.416 64.3114 141.516 64.9381 141.516 66.1914C141.516 66.8047 141.749 67.2914 142.216 67.6514C142.682 67.9981 143.336 68.1714 144.176 68.1714ZM158.213 58.5914C159.199 58.5914 160.093 58.8181 160.893 59.2714C161.693 59.7114 162.319 60.3381 162.773 61.1514C163.226 61.9647 163.453 62.8914 163.453 63.9314C163.453 64.9714 163.226 65.8981 162.773 66.7114C162.319 67.5247 161.693 68.1581 160.893 68.6114C160.093 69.0647 159.199 69.2914 158.213 69.2914C157.333 69.2914 156.539 69.1047 155.833 68.7314C155.139 68.3581 154.579 67.8181 154.153 67.1114V69.1914H152.793V54.3514H154.213V60.6714C154.653 59.9914 155.213 59.4781 155.893 59.1314C156.586 58.7714 157.359 58.5914 158.213 58.5914ZM158.113 68.0314C158.846 68.0314 159.513 67.8647 160.113 67.5314C160.713 67.1847 161.179 66.6981 161.513 66.0714C161.859 65.4447 162.033 64.7314 162.033 63.9314C162.033 63.1314 161.859 62.4181 161.513 61.7914C161.179 61.1647 160.713 60.6847 160.113 60.3514C159.513 60.0047 158.846 59.8314 158.113 59.8314C157.366 59.8314 156.693 60.0047 156.092 60.3514C155.506 60.6847 155.039 61.1647 154.693 61.7914C154.359 62.4181 154.193 63.1314 154.193 63.9314C154.193 64.7314 154.359 65.4447 154.693 66.0714C155.039 66.6981 155.506 67.1847 156.092 67.5314C156.693 67.8647 157.366 68.0314 158.113 68.0314ZM170.647 69.2914C169.634 69.2914 168.721 69.0647 167.907 68.6114C167.094 68.1447 166.454 67.5047 165.987 66.6914C165.521 65.8781 165.287 64.9581 165.287 63.9314C165.287 62.9047 165.521 61.9847 165.987 61.1714C166.454 60.3581 167.094 59.7247 167.907 59.2714C168.721 58.8181 169.634 58.5914 170.647 58.5914C171.661 58.5914 172.574 58.8181 173.387 59.2714C174.201 59.7247 174.834 60.3581 175.287 61.1714C175.754 61.9847 175.987 62.9047 175.987 63.9314C175.987 64.9581 175.754 65.8781 175.287 66.6914C174.834 67.5047 174.201 68.1447 173.387 68.6114C172.574 69.0647 171.661 69.2914 170.647 69.2914ZM170.647 68.0314C171.394 68.0314 172.061 67.8647 172.647 67.5314C173.247 67.1847 173.714 66.6981 174.047 66.0714C174.381 65.4447 174.547 64.7314 174.547 63.9314C174.547 63.1314 174.381 62.4181 174.047 61.7914C173.714 61.1647 173.247 60.6847 172.647 60.3514C172.061 60.0047 171.394 59.8314 170.647 59.8314C169.901 59.8314 169.227 60.0047 168.627 60.3514C168.041 60.6847 167.574 61.1647 167.227 61.7914C166.894 62.4181 166.727 63.1314 166.727 63.9314C166.727 64.7314 166.894 65.4447 167.227 66.0714C167.574 66.6981 168.041 67.1847 168.627 67.5314C169.227 67.8647 169.901 68.0314 170.647 68.0314ZM188.366 58.6714V69.1914H187.006V67.2714C186.633 67.9114 186.12 68.4114 185.466 68.7714C184.813 69.1181 184.066 69.2914 183.226 69.2914C181.853 69.2914 180.766 68.9114 179.966 68.1514C179.18 67.3781 178.786 66.2514 178.786 64.7714V58.6714H180.206V64.6314C180.206 65.7381 180.48 66.5781 181.026 67.1514C181.573 67.7247 182.353 68.0114 183.366 68.0114C184.473 68.0114 185.346 67.6781 185.986 67.0114C186.626 66.3314 186.946 65.3914 186.946 64.1914V58.6714H188.366ZM197.883 68.5514C197.617 68.7914 197.283 68.9781 196.883 69.1114C196.497 69.2314 196.09 69.2914 195.663 69.2914C194.677 69.2914 193.917 69.0247 193.383 68.4914C192.85 67.9581 192.583 67.2047 192.583 66.2314V59.8714H190.703V58.6714H192.583V56.3714H194.003V58.6714H197.203V59.8714H194.003V66.1514C194.003 66.7781 194.157 67.2581 194.463 67.5914C194.783 67.9114 195.237 68.0714 195.823 68.0714C196.117 68.0714 196.397 68.0247 196.663 67.9314C196.943 67.8381 197.183 67.7047 197.383 67.5314L197.883 68.5514ZM209.383 58.5914C210.756 58.5914 211.809 58.9381 212.543 59.6314C213.276 60.3114 213.643 61.3247 213.643 62.6714V69.1914H212.283V67.5514C211.963 68.0981 211.489 68.5247 210.863 68.8314C210.249 69.1381 209.516 69.2914 208.663 69.2914C207.489 69.2914 206.556 69.0114 205.863 68.4514C205.169 67.8914 204.823 67.1514 204.823 66.2314C204.823 65.3381 205.143 64.6181 205.783 64.0714C206.436 63.5247 207.469 63.2514 208.883 63.2514H212.223V62.6114C212.223 61.7047 211.969 61.0181 211.463 60.5514C210.956 60.0714 210.216 59.8314 209.243 59.8314C208.576 59.8314 207.936 59.9447 207.323 60.1714C206.709 60.3847 206.183 60.6847 205.743 61.0714L205.103 60.0114C205.636 59.5581 206.276 59.2114 207.023 58.9714C207.769 58.7181 208.556 58.5914 209.383 58.5914ZM208.883 68.1714C209.683 68.1714 210.369 67.9914 210.943 67.6314C211.516 67.2581 211.943 66.7247 212.223 66.0314V64.3114H208.923C207.123 64.3114 206.223 64.9381 206.223 66.1914C206.223 66.8047 206.456 67.2914 206.923 67.6514C207.389 67.9981 208.043 68.1714 208.883 68.1714ZM228.154 58.5914C229.141 58.5914 230.034 58.8181 230.834 59.2714C231.634 59.7114 232.261 60.3381 232.714 61.1514C233.167 61.9647 233.394 62.8914 233.394 63.9314C233.394 64.9847 233.167 65.9181 232.714 66.7314C232.261 67.5447 231.634 68.1781 230.834 68.6314C230.047 69.0714 229.154 69.2914 228.154 69.2914C227.301 69.2914 226.527 69.1181 225.834 68.7714C225.154 68.4114 224.594 67.8914 224.154 67.2114V73.0714H222.734V58.6714H224.094V60.7514C224.521 60.0581 225.081 59.5247 225.774 59.1514C226.481 58.7781 227.274 58.5914 228.154 58.5914ZM228.054 68.0314C228.787 68.0314 229.454 67.8647 230.054 67.5314C230.654 67.1847 231.121 66.6981 231.454 66.0714C231.801 65.4447 231.974 64.7314 231.974 63.9314C231.974 63.1314 231.801 62.4247 231.454 61.8114C231.121 61.1847 230.654 60.6981 230.054 60.3514C229.454 60.0047 228.787 59.8314 228.054 59.8314C227.307 59.8314 226.634 60.0047 226.034 60.3514C225.447 60.6981 224.981 61.1847 224.634 61.8114C224.301 62.4247 224.134 63.1314 224.134 63.9314C224.134 64.7314 224.301 65.4447 224.634 66.0714C224.981 66.6981 225.447 67.1847 226.034 67.5314C226.634 67.8647 227.307 68.0314 228.054 68.0314ZM237.649 60.7314C237.982 60.0247 238.475 59.4914 239.129 59.1314C239.795 58.7714 240.615 58.5914 241.589 58.5914V59.9714L241.249 59.9514C240.142 59.9514 239.275 60.2914 238.649 60.9714C238.022 61.6514 237.709 62.6047 237.709 63.8314V69.1914H236.289V58.6714H237.649V60.7314ZM248.362 69.2914C247.349 69.2914 246.435 69.0647 245.622 68.6114C244.809 68.1447 244.169 67.5047 243.702 66.6914C243.235 65.8781 243.002 64.9581 243.002 63.9314C243.002 62.9047 243.235 61.9847 243.702 61.1714C244.169 60.3581 244.809 59.7247 245.622 59.2714C246.435 58.8181 247.349 58.5914 248.362 58.5914C249.375 58.5914 250.289 58.8181 251.102 59.2714C251.915 59.7247 252.549 60.3581 253.002 61.1714C253.469 61.9847 253.702 62.9047 253.702 63.9314C253.702 64.9581 253.469 65.8781 253.002 66.6914C252.549 67.5047 251.915 68.1447 251.102 68.6114C250.289 69.0647 249.375 69.2914 248.362 69.2914ZM248.362 68.0314C249.109 68.0314 249.775 67.8647 250.362 67.5314C250.962 67.1847 251.429 66.6981 251.762 66.0714C252.095 65.4447 252.262 64.7314 252.262 63.9314C252.262 63.1314 252.095 62.4181 251.762 61.7914C251.429 61.1647 250.962 60.6847 250.362 60.3514C249.775 60.0047 249.109 59.8314 248.362 59.8314C247.615 59.8314 246.942 60.0047 246.342 60.3514C245.755 60.6847 245.289 61.1647 244.942 61.7914C244.609 62.4181 244.442 63.1314 244.442 63.9314C244.442 64.7314 244.609 65.4447 244.942 66.0714C245.289 66.6981 245.755 67.1847 246.342 67.5314C246.942 67.8647 247.615 68.0314 248.362 68.0314ZM266.201 54.3514V69.1914H264.841V67.1114C264.414 67.8181 263.848 68.3581 263.141 68.7314C262.448 69.1047 261.661 69.2914 260.781 69.2914C259.794 69.2914 258.901 69.0647 258.101 68.6114C257.301 68.1581 256.674 67.5247 256.221 66.7114C255.768 65.8981 255.541 64.9714 255.541 63.9314C255.541 62.8914 255.768 61.9647 256.221 61.1514C256.674 60.3381 257.301 59.7114 258.101 59.2714C258.901 58.8181 259.794 58.5914 260.781 58.5914C261.634 58.5914 262.401 58.7714 263.081 59.1314C263.774 59.4781 264.341 59.9914 264.781 60.6714V54.3514H266.201ZM260.901 68.0314C261.634 68.0314 262.294 67.8647 262.881 67.5314C263.481 67.1847 263.948 66.6981 264.281 66.0714C264.628 65.4447 264.801 64.7314 264.801 63.9314C264.801 63.1314 264.628 62.4181 264.281 61.7914C263.948 61.1647 263.481 60.6847 262.881 60.3514C262.294 60.0047 261.634 59.8314 260.901 59.8314C260.154 59.8314 259.481 60.0047 258.881 60.3514C258.294 60.6847 257.828 61.1647 257.481 61.7914C257.148 62.4181 256.981 63.1314 256.981 63.9314C256.981 64.7314 257.148 65.4447 257.481 66.0714C257.828 66.6981 258.294 67.1847 258.881 67.5314C259.481 67.8647 260.154 68.0314 260.901 68.0314ZM279.636 58.6714V69.1914H278.276V67.2714C277.902 67.9114 277.389 68.4114 276.736 68.7714C276.082 69.1181 275.336 69.2914 274.496 69.2914C273.122 69.2914 272.036 68.9114 271.236 68.1514C270.449 67.3781 270.056 66.2514 270.056 64.7714V58.6714H271.476V64.6314C271.476 65.7381 271.749 66.5781 272.296 67.1514C272.842 67.7247 273.622 68.0114 274.636 68.0114C275.742 68.0114 276.616 67.6781 277.256 67.0114C277.896 66.3314 278.216 65.3914 278.216 64.1914V58.6714H279.636ZM287.973 69.2914C286.933 69.2914 285.999 69.0647 285.173 68.6114C284.359 68.1581 283.719 67.5247 283.253 66.7114C282.786 65.8847 282.553 64.9581 282.553 63.9314C282.553 62.9047 282.786 61.9847 283.253 61.1714C283.719 60.3581 284.359 59.7247 285.173 59.2714C285.999 58.8181 286.933 58.5914 287.973 58.5914C288.879 58.5914 289.686 58.7714 290.393 59.1314C291.113 59.4781 291.679 59.9914 292.093 60.6714L291.033 61.3914C290.686 60.8714 290.246 60.4847 289.713 60.2314C289.179 59.9647 288.599 59.8314 287.973 59.8314C287.213 59.8314 286.526 60.0047 285.913 60.3514C285.313 60.6847 284.839 61.1647 284.493 61.7914C284.159 62.4181 283.993 63.1314 283.993 63.9314C283.993 64.7447 284.159 65.4647 284.493 66.0914C284.839 66.7047 285.313 67.1847 285.913 67.5314C286.526 67.8647 287.213 68.0314 287.973 68.0314C288.599 68.0314 289.179 67.9047 289.713 67.6514C290.246 67.3981 290.686 67.0114 291.033 66.4914L292.093 67.2114C291.679 67.8914 291.113 68.4114 290.393 68.7714C289.673 69.1181 288.866 69.2914 287.973 69.2914ZM300.54 68.5514C300.273 68.7914 299.94 68.9781 299.54 69.1114C299.153 69.2314 298.746 69.2914 298.32 69.2914C297.333 69.2914 296.573 69.0247 296.04 68.4914C295.506 67.9581 295.24 67.2047 295.24 66.2314V59.8714H293.36V58.6714H295.24V56.3714H296.66V58.6714H299.86V59.8714H296.66V66.1514C296.66 66.7781 296.813 67.2581 297.12 67.5914C297.44 67.9114 297.893 68.0714 298.48 68.0714C298.773 68.0714 299.053 68.0247 299.32 67.9314C299.6 67.8381 299.84 67.7047 300.04 67.5314L300.54 68.5514ZM323.799 58.6714L319.819 69.1914H318.479L315.159 60.5714L311.839 69.1914H310.499L306.539 58.6714H307.899L311.199 67.6114L314.579 58.6714H315.799L319.159 67.6114L322.499 58.6714H323.799ZM331.297 58.5914C332.617 58.5914 333.664 58.9781 334.437 59.7514C335.224 60.5114 335.617 61.6247 335.617 63.0914V69.1914H334.197V63.2314C334.197 62.1381 333.924 61.3047 333.377 60.7314C332.83 60.1581 332.05 59.8714 331.037 59.8714C329.904 59.8714 329.004 60.2114 328.337 60.8914C327.684 61.5581 327.357 62.4847 327.357 63.6714V69.1914H325.937V54.3514H327.357V60.5114C327.744 59.8981 328.277 59.4247 328.957 59.0914C329.637 58.7581 330.417 58.5914 331.297 58.5914ZM348.671 64.3714H339.871C339.951 65.4647 340.371 66.3514 341.131 67.0314C341.891 67.6981 342.851 68.0314 344.011 68.0314C344.665 68.0314 345.265 67.9181 345.811 67.6914C346.358 67.4514 346.831 67.1047 347.231 66.6514L348.031 67.5714C347.565 68.1314 346.978 68.5581 346.271 68.8514C345.578 69.1447 344.811 69.2914 343.971 69.2914C342.891 69.2914 341.931 69.0647 341.091 68.6114C340.265 68.1447 339.618 67.5047 339.151 66.6914C338.685 65.8781 338.451 64.9581 338.451 63.9314C338.451 62.9047 338.671 61.9847 339.111 61.1714C339.565 60.3581 340.178 59.7247 340.951 59.2714C341.738 58.8181 342.618 58.5914 343.591 58.5914C344.565 58.5914 345.438 58.8181 346.211 59.2714C346.985 59.7247 347.591 60.3581 348.031 61.1714C348.471 61.9714 348.691 62.8914 348.691 63.9314L348.671 64.3714ZM343.591 59.8114C342.578 59.8114 341.725 60.1381 341.031 60.7914C340.351 61.4314 339.965 62.2714 339.871 63.3114H347.331C347.238 62.2714 346.845 61.4314 346.151 60.7914C345.471 60.1381 344.618 59.8114 343.591 59.8114ZM356.942 58.5914C358.262 58.5914 359.308 58.9781 360.082 59.7514C360.868 60.5114 361.262 61.6247 361.262 63.0914V69.1914H359.842V63.2314C359.842 62.1381 359.568 61.3047 359.022 60.7314C358.475 60.1581 357.695 59.8714 356.682 59.8714C355.548 59.8714 354.648 60.2114 353.982 60.8914C353.328 61.5581 353.002 62.4847 353.002 63.6714V69.1914H351.582V58.6714H352.942V60.6114C353.328 59.9714 353.862 59.4781 354.542 59.1314C355.235 58.7714 356.035 58.5914 356.942 58.5914ZM375.771 58.5914C376.758 58.5914 377.651 58.8181 378.451 59.2714C379.251 59.7114 379.878 60.3381 380.331 61.1514C380.784 61.9647 381.011 62.8914 381.011 63.9314C381.011 64.9714 380.784 65.8981 380.331 66.7114C379.878 67.5247 379.251 68.1581 378.451 68.6114C377.651 69.0647 376.758 69.2914 375.771 69.2914C374.891 69.2914 374.098 69.1047 373.391 68.7314C372.698 68.3581 372.138 67.8181 371.711 67.1114V69.1914H370.351V54.3514H371.771V60.6714C372.211 59.9914 372.771 59.4781 373.451 59.1314C374.144 58.7714 374.918 58.5914 375.771 58.5914ZM375.671 68.0314C376.404 68.0314 377.071 67.8647 377.671 67.5314C378.271 67.1847 378.738 66.6981 379.071 66.0714C379.418 65.4447 379.591 64.7314 379.591 63.9314C379.591 63.1314 379.418 62.4181 379.071 61.7914C378.738 61.1647 378.271 60.6847 377.671 60.3514C377.071 60.0047 376.404 59.8314 375.671 59.8314C374.924 59.8314 374.251 60.0047 373.651 60.3514C373.064 60.6847 372.598 61.1647 372.251 61.7914C371.918 62.4181 371.751 63.1314 371.751 63.9314C371.751 64.7314 371.918 65.4447 372.251 66.0714C372.598 66.6981 373.064 67.1847 373.651 67.5314C374.251 67.8647 374.924 68.0314 375.671 68.0314ZM385.266 60.7314C385.599 60.0247 386.092 59.4914 386.746 59.1314C387.412 58.7714 388.232 58.5914 389.206 58.5914V59.9714L388.866 59.9514C387.759 59.9514 386.892 60.2914 386.266 60.9714C385.639 61.6514 385.326 62.6047 385.326 63.8314V69.1914H383.906V58.6714H385.266V60.7314ZM395.979 69.2914C394.966 69.2914 394.053 69.0647 393.239 68.6114C392.426 68.1447 391.786 67.5047 391.319 66.6914C390.853 65.8781 390.619 64.9581 390.619 63.9314C390.619 62.9047 390.853 61.9847 391.319 61.1714C391.786 60.3581 392.426 59.7247 393.239 59.2714C394.053 58.8181 394.966 58.5914 395.979 58.5914C396.993 58.5914 397.906 58.8181 398.719 59.2714C399.533 59.7247 400.166 60.3581 400.619 61.1714C401.086 61.9847 401.319 62.9047 401.319 63.9314C401.319 64.9581 401.086 65.8781 400.619 66.6914C400.166 67.5047 399.533 68.1447 398.719 68.6114C397.906 69.0647 396.993 69.2914 395.979 69.2914ZM395.979 68.0314C396.726 68.0314 397.393 67.8647 397.979 67.5314C398.579 67.1847 399.046 66.6981 399.379 66.0714C399.713 65.4447 399.879 64.7314 399.879 63.9314C399.879 63.1314 399.713 62.4181 399.379 61.7914C399.046 61.1647 398.579 60.6847 397.979 60.3514C397.393 60.0047 396.726 59.8314 395.979 59.8314C395.233 59.8314 394.559 60.0047 393.959 60.3514C393.373 60.6847 392.906 61.1647 392.559 61.7914C392.226 62.4181 392.059 63.1314 392.059 63.9314C392.059 64.7314 392.226 65.4447 392.559 66.0714C392.906 66.6981 393.373 67.1847 393.959 67.5314C394.559 67.8647 395.233 68.0314 395.979 68.0314ZM419.365 58.6714L415.385 69.1914H414.045L410.725 60.5714L407.405 69.1914H406.065L402.105 58.6714H403.465L406.765 67.6114L410.145 58.6714H411.365L414.725 67.6114L418.065 58.6714H419.365ZM424.206 69.2914C423.353 69.2914 422.533 69.1714 421.746 68.9314C420.973 68.6781 420.366 68.3647 419.926 67.9914L420.566 66.8714C421.006 67.2181 421.56 67.5047 422.226 67.7314C422.893 67.9447 423.586 68.0514 424.306 68.0514C425.266 68.0514 425.973 67.9047 426.426 67.6114C426.893 67.3047 427.126 66.8781 427.126 66.3314C427.126 65.9447 427 65.6447 426.746 65.4314C426.493 65.2047 426.173 65.0381 425.786 64.9314C425.4 64.8114 424.886 64.6981 424.246 64.5914C423.393 64.4314 422.706 64.2714 422.186 64.1114C421.666 63.9381 421.22 63.6514 420.846 63.2514C420.486 62.8514 420.306 62.2981 420.306 61.5914C420.306 60.7114 420.673 59.9914 421.406 59.4314C422.14 58.8714 423.16 58.5914 424.466 58.5914C425.146 58.5914 425.826 58.6847 426.506 58.8714C427.186 59.0447 427.746 59.2781 428.186 59.5714L427.566 60.7114C426.7 60.1114 425.666 59.8114 424.466 59.8114C423.56 59.8114 422.873 59.9714 422.406 60.2914C421.953 60.6114 421.726 61.0314 421.726 61.5514C421.726 61.9514 421.853 62.2714 422.106 62.5114C422.373 62.7514 422.7 62.9314 423.086 63.0514C423.473 63.1581 424.006 63.2714 424.686 63.3914C425.526 63.5514 426.2 63.7114 426.706 63.8714C427.213 64.0314 427.646 64.3047 428.006 64.6914C428.366 65.0781 428.546 65.6114 428.546 66.2914C428.546 67.2114 428.16 67.9447 427.386 68.4914C426.626 69.0247 425.566 69.2914 424.206 69.2914ZM431.171 58.6714H432.591V69.1914H431.171V58.6714ZM431.891 56.3714C431.598 56.3714 431.351 56.2714 431.151 56.0714C430.951 55.8714 430.851 55.6314 430.851 55.3514C430.851 55.0847 430.951 54.8514 431.151 54.6514C431.351 54.4514 431.598 54.3514 431.891 54.3514C432.185 54.3514 432.431 54.4514 432.631 54.6514C432.831 54.8381 432.931 55.0647 432.931 55.3314C432.931 55.6247 432.831 55.8714 432.631 56.0714C432.431 56.2714 432.185 56.3714 431.891 56.3714ZM441.903 58.5914C443.223 58.5914 444.269 58.9781 445.043 59.7514C445.829 60.5114 446.223 61.6247 446.223 63.0914V69.1914H444.803V63.2314C444.803 62.1381 444.529 61.3047 443.983 60.7314C443.436 60.1581 442.656 59.8714 441.643 59.8714C440.509 59.8714 439.609 60.2114 438.943 60.8914C438.289 61.5581 437.963 62.4847 437.963 63.6714V69.1914H436.543V58.6714H437.903V60.6114C438.289 59.9714 438.823 59.4781 439.503 59.1314C440.196 58.7714 440.996 58.5914 441.903 58.5914ZM459.857 58.6714V67.9114C459.857 69.6981 459.417 71.0181 458.537 71.8714C457.67 72.7381 456.357 73.1714 454.597 73.1714C453.623 73.1714 452.697 73.0247 451.817 72.7314C450.95 72.4514 450.243 72.0581 449.697 71.5514L450.417 70.4714C450.923 70.9247 451.537 71.2781 452.257 71.5314C452.99 71.7847 453.757 71.9114 454.557 71.9114C455.89 71.9114 456.87 71.5981 457.497 70.9714C458.123 70.3581 458.437 69.3981 458.437 68.0914V66.7514C457.997 67.4181 457.417 67.9247 456.697 68.2714C455.99 68.6181 455.203 68.7914 454.337 68.7914C453.35 68.7914 452.45 68.5781 451.637 68.1514C450.837 67.7114 450.203 67.1047 449.737 66.3314C449.283 65.5447 449.057 64.6581 449.057 63.6714C449.057 62.6847 449.283 61.8047 449.737 61.0314C450.203 60.2581 450.837 59.6581 451.637 59.2314C452.437 58.8047 453.337 58.5914 454.337 58.5914C455.23 58.5914 456.037 58.7714 456.757 59.1314C457.477 59.4914 458.057 60.0114 458.497 60.6914V58.6714H459.857ZM454.477 67.5314C455.237 67.5314 455.923 67.3714 456.537 67.0514C457.15 66.7181 457.623 66.2581 457.957 65.6714C458.303 65.0847 458.477 64.4181 458.477 63.6714C458.477 62.9247 458.303 62.2647 457.957 61.6914C457.623 61.1047 457.15 60.6514 456.537 60.3314C455.937 59.9981 455.25 59.8314 454.477 59.8314C453.717 59.8314 453.03 59.9914 452.417 60.3114C451.817 60.6314 451.343 61.0847 450.997 61.6714C450.663 62.2581 450.497 62.9247 450.497 63.6714C450.497 64.4181 450.663 65.0847 450.997 65.6714C451.343 66.2581 451.817 66.7181 452.417 67.0514C453.03 67.3714 453.717 67.5314 454.477 67.5314ZM466.743 64.9914C466.743 64.4447 466.83 63.9647 467.003 63.5514C467.19 63.1381 467.416 62.7847 467.683 62.4914C467.95 62.1981 468.296 61.8647 468.723 61.4914C469.296 60.9847 469.716 60.5447 469.983 60.1714C470.263 59.7847 470.403 59.3181 470.403 58.7714C470.403 58.0381 470.116 57.4514 469.543 57.0114C468.97 56.5581 468.183 56.3314 467.183 56.3314C465.53 56.3314 464.256 56.8714 463.363 57.9514L462.303 57.1514C463.436 55.7647 465.096 55.0714 467.283 55.0714C468.683 55.0714 469.796 55.3847 470.623 56.0114C471.463 56.6381 471.883 57.4847 471.883 58.5514C471.883 59.0981 471.79 59.5847 471.603 60.0114C471.43 60.4247 471.21 60.7781 470.943 61.0714C470.69 61.3647 470.35 61.7047 469.923 62.0914C469.35 62.6114 468.923 63.0781 468.643 63.4914C468.363 63.8914 468.223 64.3914 468.223 64.9914H466.743ZM467.483 69.2914C467.19 69.2914 466.943 69.1914 466.743 68.9914C466.543 68.7781 466.443 68.5314 466.443 68.2514C466.443 67.9581 466.543 67.7181 466.743 67.5314C466.943 67.3314 467.19 67.2314 467.483 67.2314C467.79 67.2314 468.043 67.3314 468.243 67.5314C468.443 67.7181 468.543 67.9581 468.543 68.2514C468.543 68.5314 468.436 68.7781 468.223 68.9914C468.023 69.1914 467.776 69.2914 467.483 69.2914Z" fill="#4B4A51"/>
<rect x="120.2" y="90.3914" width="59.6" height="174.6" stroke="#C4C4C4" stroke-width="0.4"/>
<rect x="180.2" y="90.3914" width="59.6" height="174.6" stroke="#C4C4C4" stroke-width="0.4"/>
<rect x="240.2" y="90.3914" width="59.6" height="174.6" stroke="#C4C4C4" stroke-width="0.4"/>
<rect x="300.2" y="90.3914" width="59.6" height="174.6" stroke="#C4C4C4" stroke-width="0.4"/>
<rect x="360.2" y="90.3914" width="59.6" height="174.6" stroke="#C4C4C4" stroke-width="0.4"/>
<rect x="420.2" y="90.3914" width="59.6" height="174.6" stroke="#C4C4C4" stroke-width="0.4"/>
<line x1="121" y1="90.1914" x2="121" y2="265.191" stroke="#4B4A51" stroke-width="2"/>
<rect x="122" y="109.191" width="195" height="29" fill="#55C5CE"/>
<rect x="122" y="226.191" width="325" height="29" fill="#6EA7C5"/>
<rect x="122" y="171.191" width="320" height="29" fill="#FFBDAE"/>
</svg>
