<svg width="458" height="238" viewBox="0 0 458 238" fill="none" xmlns="http://www.w3.org/2000/svg">
<path d="M290.5 5.19141L285.78 19.1914H284.22L280.12 7.25141L276 19.1914H274.46L269.74 5.19141H271.26L275.3 17.2314L279.48 5.19141H280.86L284.98 17.2914L289.08 5.19141H290.5ZM298.567 8.59141C299.887 8.59141 300.933 8.97807 301.707 9.75141C302.493 10.5114 302.887 11.6247 302.887 13.0914V19.1914H301.467V13.2314C301.467 12.1381 301.193 11.3047 300.647 10.7314C300.1 10.1581 299.32 9.87141 298.307 9.87141C297.173 9.87141 296.273 10.2114 295.607 10.8914C294.953 11.5581 294.627 12.4847 294.627 13.6714V19.1914H293.207V4.35141H294.627V10.5114C295.013 9.89807 295.547 9.42474 296.227 9.09141C296.907 8.75807 297.687 8.59141 298.567 8.59141ZM315.941 14.3714H307.141C307.221 15.4647 307.641 16.3514 308.401 17.0314C309.161 17.6981 310.121 18.0314 311.281 18.0314C311.934 18.0314 312.534 17.9181 313.081 17.6914C313.627 17.4514 314.101 17.1047 314.501 16.6514L315.301 17.5714C314.834 18.1314 314.247 18.5581 313.541 18.8514C312.847 19.1447 312.081 19.2914 311.241 19.2914C310.161 19.2914 309.201 19.0647 308.361 18.6114C307.534 18.1447 306.887 17.5047 306.421 16.6914C305.954 15.8781 305.721 14.9581 305.721 13.9314C305.721 12.9047 305.941 11.9847 306.381 11.1714C306.834 10.3581 307.447 9.72474 308.221 9.27141C309.007 8.81807 309.887 8.59141 310.861 8.59141C311.834 8.59141 312.707 8.81807 313.481 9.27141C314.254 9.72474 314.861 10.3581 315.301 11.1714C315.741 11.9714 315.961 12.8914 315.961 13.9314L315.941 14.3714ZM310.861 9.81141C309.847 9.81141 308.994 10.1381 308.301 10.7914C307.621 11.4314 307.234 12.2714 307.141 13.3114H314.601C314.507 12.2714 314.114 11.4314 313.421 10.7914C312.741 10.1381 311.887 9.81141 310.861 9.81141ZM320.211 10.7314C320.544 10.0247 321.038 9.49141 321.691 9.13141C322.358 8.77141 323.178 8.59141 324.151 8.59141V9.97141L323.811 9.95141C322.704 9.95141 321.838 10.2914 321.211 10.9714C320.584 11.6514 320.271 12.6047 320.271 13.8314V19.1914H318.851V8.67141H320.211V10.7314ZM335.785 14.3714H326.985C327.065 15.4647 327.485 16.3514 328.245 17.0314C329.005 17.6981 329.965 18.0314 331.125 18.0314C331.778 18.0314 332.378 17.9181 332.925 17.6914C333.471 17.4514 333.945 17.1047 334.345 16.6514L335.145 17.5714C334.678 18.1314 334.091 18.5581 333.385 18.8514C332.691 19.1447 331.925 19.2914 331.085 19.2914C330.005 19.2914 329.045 19.0647 328.205 18.6114C327.378 18.1447 326.731 17.5047 326.265 16.6914C325.798 15.8781 325.565 14.9581 325.565 13.9314C325.565 12.9047 325.785 11.9847 326.225 11.1714C326.678 10.3581 327.291 9.72474 328.065 9.27141C328.851 8.81807 329.731 8.59141 330.705 8.59141C331.678 8.59141 332.551 8.81807 333.325 9.27141C334.098 9.72474 334.705 10.3581 335.145 11.1714C335.585 11.9714 335.805 12.8914 335.805 13.9314L335.785 14.3714ZM330.705 9.81141C329.691 9.81141 328.838 10.1381 328.145 10.7914C327.465 11.4314 327.078 12.2714 326.985 13.3114H334.445C334.351 12.2714 333.958 11.4314 333.265 10.7914C332.585 10.1381 331.731 9.81141 330.705 9.81141ZM353.529 4.35141V19.1914H352.169V17.1114C351.743 17.8181 351.176 18.3581 350.469 18.7314C349.776 19.1047 348.989 19.2914 348.109 19.2914C347.123 19.2914 346.229 19.0647 345.429 18.6114C344.629 18.1581 344.003 17.5247 343.549 16.7114C343.096 15.8981 342.869 14.9714 342.869 13.9314C342.869 12.8914 343.096 11.9647 343.549 11.1514C344.003 10.3381 344.629 9.71141 345.429 9.27141C346.229 8.81807 347.123 8.59141 348.109 8.59141C348.963 8.59141 349.729 8.77141 350.409 9.13141C351.103 9.47807 351.669 9.99141 352.109 10.6714V4.35141H353.529ZM348.229 18.0314C348.963 18.0314 349.623 17.8647 350.209 17.5314C350.809 17.1847 351.276 16.6981 351.609 16.0714C351.956 15.4447 352.129 14.7314 352.129 13.9314C352.129 13.1314 351.956 12.4181 351.609 11.7914C351.276 11.1647 350.809 10.6847 350.209 10.3514C349.623 10.0047 348.963 9.83141 348.229 9.83141C347.483 9.83141 346.809 10.0047 346.209 10.3514C345.623 10.6847 345.156 11.1647 344.809 11.7914C344.476 12.4181 344.309 13.1314 344.309 13.9314C344.309 14.7314 344.476 15.4447 344.809 16.0714C345.156 16.6981 345.623 17.1847 346.209 17.5314C346.809 17.8647 347.483 18.0314 348.229 18.0314ZM361.784 19.2914C360.771 19.2914 359.857 19.0647 359.044 18.6114C358.231 18.1447 357.591 17.5047 357.124 16.6914C356.657 15.8781 356.424 14.9581 356.424 13.9314C356.424 12.9047 356.657 11.9847 357.124 11.1714C357.591 10.3581 358.231 9.72474 359.044 9.27141C359.857 8.81807 360.771 8.59141 361.784 8.59141C362.797 8.59141 363.711 8.81807 364.524 9.27141C365.337 9.72474 365.971 10.3581 366.424 11.1714C366.891 11.9847 367.124 12.9047 367.124 13.9314C367.124 14.9581 366.891 15.8781 366.424 16.6914C365.971 17.5047 365.337 18.1447 364.524 18.6114C363.711 19.0647 362.797 19.2914 361.784 19.2914ZM361.784 18.0314C362.531 18.0314 363.197 17.8647 363.784 17.5314C364.384 17.1847 364.851 16.6981 365.184 16.0714C365.517 15.4447 365.684 14.7314 365.684 13.9314C365.684 13.1314 365.517 12.4181 365.184 11.7914C364.851 11.1647 364.384 10.6847 363.784 10.3514C363.197 10.0047 362.531 9.83141 361.784 9.83141C361.037 9.83141 360.364 10.0047 359.764 10.3514C359.177 10.6847 358.711 11.1647 358.364 11.7914C358.031 12.4181 357.864 13.1314 357.864 13.9314C357.864 14.7314 358.031 15.4447 358.364 16.0714C358.711 16.6981 359.177 17.1847 359.764 17.5314C360.364 17.8647 361.037 18.0314 361.784 18.0314ZM384.097 8.67141L378.837 20.4514C378.411 21.4381 377.917 22.1381 377.357 22.5514C376.797 22.9647 376.124 23.1714 375.337 23.1714C374.831 23.1714 374.357 23.0914 373.917 22.9314C373.477 22.7714 373.097 22.5314 372.777 22.2114L373.437 21.1514C373.971 21.6847 374.611 21.9514 375.357 21.9514C375.837 21.9514 376.244 21.8181 376.577 21.5514C376.924 21.2847 377.244 20.8314 377.537 20.1914L377.997 19.1714L373.297 8.67141H374.777L378.737 17.6114L382.697 8.67141H384.097ZM390.104 19.2914C389.091 19.2914 388.178 19.0647 387.364 18.6114C386.551 18.1447 385.911 17.5047 385.444 16.6914C384.978 15.8781 384.744 14.9581 384.744 13.9314C384.744 12.9047 384.978 11.9847 385.444 11.1714C385.911 10.3581 386.551 9.72474 387.364 9.27141C388.178 8.81807 389.091 8.59141 390.104 8.59141C391.118 8.59141 392.031 8.81807 392.844 9.27141C393.658 9.72474 394.291 10.3581 394.744 11.1714C395.211 11.9847 395.444 12.9047 395.444 13.9314C395.444 14.9581 395.211 15.8781 394.744 16.6914C394.291 17.5047 393.658 18.1447 392.844 18.6114C392.031 19.0647 391.118 19.2914 390.104 19.2914ZM390.104 18.0314C390.851 18.0314 391.518 17.8647 392.104 17.5314C392.704 17.1847 393.171 16.6981 393.504 16.0714C393.838 15.4447 394.004 14.7314 394.004 13.9314C394.004 13.1314 393.838 12.4181 393.504 11.7914C393.171 11.1647 392.704 10.6847 392.104 10.3514C391.518 10.0047 390.851 9.83141 390.104 9.83141C389.358 9.83141 388.684 10.0047 388.084 10.3514C387.498 10.6847 387.031 11.1647 386.684 11.7914C386.351 12.4181 386.184 13.1314 386.184 13.9314C386.184 14.7314 386.351 15.4447 386.684 16.0714C387.031 16.6981 387.498 17.1847 388.084 17.5314C388.684 17.8647 389.358 18.0314 390.104 18.0314ZM407.823 8.67141V19.1914H406.463V17.2714C406.09 17.9114 405.577 18.4114 404.923 18.7714C404.27 19.1181 403.523 19.2914 402.683 19.2914C401.31 19.2914 400.223 18.9114 399.423 18.1514C398.637 17.3781 398.243 16.2514 398.243 14.7714V8.67141H399.663V14.6314C399.663 15.7381 399.937 16.5781 400.483 17.1514C401.03 17.7247 401.81 18.0114 402.823 18.0114C403.93 18.0114 404.803 17.6781 405.443 17.0114C406.083 16.3314 406.403 15.3914 406.403 14.1914V8.67141H407.823ZM417.035 4.35141H418.455V19.1914H417.035V4.35141ZM422.406 8.67141H423.826V19.1914H422.406V8.67141ZM423.126 6.37141C422.832 6.37141 422.586 6.27141 422.386 6.07141C422.186 5.87141 422.086 5.63141 422.086 5.35141C422.086 5.08474 422.186 4.85141 422.386 4.65141C422.586 4.45141 422.832 4.35141 423.126 4.35141C423.419 4.35141 423.666 4.45141 423.866 4.65141C424.066 4.83807 424.166 5.06474 424.166 5.33141C424.166 5.62474 424.066 5.87141 423.866 6.07141C423.666 6.27141 423.419 6.37141 423.126 6.37141ZM436.617 8.67141L431.937 19.1914H430.477L425.817 8.67141H427.297L431.237 17.6314L435.217 8.67141H436.617ZM447.484 14.3714H438.684C438.764 15.4647 439.184 16.3514 439.944 17.0314C440.704 17.6981 441.664 18.0314 442.824 18.0314C443.477 18.0314 444.077 17.9181 444.624 17.6914C445.17 17.4514 445.644 17.1047 446.044 16.6514L446.844 17.5714C446.377 18.1314 445.79 18.5581 445.084 18.8514C444.39 19.1447 443.624 19.2914 442.784 19.2914C441.704 19.2914 440.744 19.0647 439.904 18.6114C439.077 18.1447 438.43 17.5047 437.964 16.6914C437.497 15.8781 437.264 14.9581 437.264 13.9314C437.264 12.9047 437.484 11.9847 437.924 11.1714C438.377 10.3581 438.99 9.72474 439.764 9.27141C440.55 8.81807 441.43 8.59141 442.404 8.59141C443.377 8.59141 444.25 8.81807 445.024 9.27141C445.797 9.72474 446.404 10.3581 446.844 11.1714C447.284 11.9714 447.504 12.8914 447.504 13.9314L447.484 14.3714ZM442.404 9.81141C441.39 9.81141 440.537 10.1381 439.844 10.7914C439.164 11.4314 438.777 12.2714 438.684 13.3114H446.144C446.05 12.2714 445.657 11.4314 444.964 10.7914C444.284 10.1381 443.43 9.81141 442.404 9.81141ZM452.157 14.9914C452.157 14.4447 452.244 13.9647 452.417 13.5514C452.604 13.1381 452.83 12.7847 453.097 12.4914C453.364 12.1981 453.71 11.8647 454.137 11.4914C454.71 10.9847 455.13 10.5447 455.397 10.1714C455.677 9.78474 455.817 9.31807 455.817 8.77141C455.817 8.03807 455.53 7.45141 454.957 7.01141C454.384 6.55807 453.597 6.33141 452.597 6.33141C450.944 6.33141 449.67 6.87141 448.777 7.95141L447.717 7.15141C448.85 5.76474 450.51 5.07141 452.697 5.07141C454.097 5.07141 455.21 5.38474 456.037 6.01141C456.877 6.63807 457.297 7.48474 457.297 8.55141C457.297 9.09807 457.204 9.58474 457.017 10.0114C456.844 10.4247 456.624 10.7781 456.357 11.0714C456.104 11.3647 455.764 11.7047 455.337 12.0914C454.764 12.6114 454.337 13.0781 454.057 13.4914C453.777 13.8914 453.637 14.3914 453.637 14.9914H452.157ZM452.897 19.2914C452.604 19.2914 452.357 19.1914 452.157 18.9914C451.957 18.7781 451.857 18.5314 451.857 18.2514C451.857 17.9581 451.957 17.7181 452.157 17.5314C452.357 17.3314 452.604 17.2314 452.897 17.2314C453.204 17.2314 453.457 17.3314 453.657 17.5314C453.857 17.7181 453.957 17.9581 453.957 18.2514C453.957 18.5314 453.85 18.7781 453.637 18.9914C453.437 19.1914 453.19 19.2914 452.897 19.2914Z" fill="#4B4A51"/>
<path d="M301.128 136.299C299.496 136.299 298.224 135.831 297.312 134.895C296.4 133.959 295.944 132.597 295.944 130.809V123.591H297.276V130.755C297.276 132.219 297.606 133.311 298.266 134.031C298.926 134.751 299.88 135.111 301.128 135.111C302.388 135.111 303.348 134.751 304.008 134.031C304.668 133.311 304.998 132.219 304.998 130.755V123.591H306.294V130.809C306.294 132.597 305.838 133.959 304.926 134.895C304.026 135.831 302.76 136.299 301.128 136.299ZM313.782 136.299C312.846 136.299 311.946 136.149 311.082 135.849C310.23 135.549 309.57 135.153 309.102 134.661L309.624 133.635C310.08 134.091 310.686 134.463 311.442 134.751C312.198 135.027 312.978 135.165 313.782 135.165C314.91 135.165 315.756 134.961 316.32 134.553C316.884 134.133 317.166 133.593 317.166 132.933C317.166 132.429 317.01 132.027 316.698 131.727C316.398 131.427 316.026 131.199 315.582 131.043C315.138 130.875 314.52 130.695 313.728 130.503C312.78 130.263 312.024 130.035 311.46 129.819C310.896 129.591 310.41 129.249 310.002 128.793C309.606 128.337 309.408 127.719 309.408 126.939C309.408 126.303 309.576 125.727 309.912 125.211C310.248 124.683 310.764 124.263 311.46 123.951C312.156 123.639 313.02 123.483 314.052 123.483C314.772 123.483 315.474 123.585 316.158 123.789C316.854 123.981 317.454 124.251 317.958 124.599L317.508 125.661C316.98 125.313 316.416 125.055 315.816 124.887C315.216 124.707 314.628 124.617 314.052 124.617C312.948 124.617 312.114 124.833 311.55 125.265C310.998 125.685 310.722 126.231 310.722 126.903C310.722 127.407 310.872 127.815 311.172 128.127C311.484 128.427 311.868 128.661 312.324 128.829C312.792 128.985 313.416 129.159 314.196 129.351C315.12 129.579 315.864 129.807 316.428 130.035C317.004 130.251 317.49 130.587 317.886 131.043C318.282 131.487 318.48 132.093 318.48 132.861C318.48 133.497 318.306 134.079 317.958 134.607C317.622 135.123 317.1 135.537 316.392 135.849C315.684 136.149 314.814 136.299 313.782 136.299ZM329.284 132.825H322.264L320.752 136.191H319.366L325.126 123.591H326.44L332.2 136.191H330.796L329.284 132.825ZM328.798 131.745L325.774 124.977L322.75 131.745H328.798Z" fill="#4B4A51"/>
<path d="M304.962 163.039V164.191H296.052V151.591H304.692V152.743H297.384V157.225H303.9V158.359H297.384V163.039H304.962ZM316.214 154.723V164.191H314.99V162.463C314.654 163.039 314.192 163.489 313.604 163.813C313.016 164.125 312.344 164.281 311.588 164.281C310.352 164.281 309.374 163.939 308.654 163.255C307.946 162.559 307.592 161.545 307.592 160.213V154.723H308.87V160.087C308.87 161.083 309.116 161.839 309.608 162.355C310.1 162.871 310.802 163.129 311.714 163.129C312.71 163.129 313.496 162.829 314.072 162.229C314.648 161.617 314.936 160.771 314.936 159.691V154.723H316.214ZM321.018 156.577C321.318 155.941 321.762 155.461 322.35 155.137C322.95 154.813 323.688 154.651 324.564 154.651V155.893L324.258 155.875C323.262 155.875 322.482 156.181 321.918 156.793C321.354 157.405 321.072 158.263 321.072 159.367V164.191H319.794V154.723H321.018V156.577ZM330.66 164.281C329.748 164.281 328.926 164.077 328.194 163.669C327.462 163.249 326.886 162.673 326.466 161.941C326.046 161.209 325.836 160.381 325.836 159.457C325.836 158.533 326.046 157.705 326.466 156.973C326.886 156.241 327.462 155.671 328.194 155.263C328.926 154.855 329.748 154.651 330.66 154.651C331.572 154.651 332.394 154.855 333.126 155.263C333.858 155.671 334.428 156.241 334.836 156.973C335.256 157.705 335.466 158.533 335.466 159.457C335.466 160.381 335.256 161.209 334.836 161.941C334.428 162.673 333.858 163.249 333.126 163.669C332.394 164.077 331.572 164.281 330.66 164.281ZM330.66 163.147C331.332 163.147 331.932 162.997 332.46 162.697C333 162.385 333.42 161.947 333.72 161.383C334.02 160.819 334.17 160.177 334.17 159.457C334.17 158.737 334.02 158.095 333.72 157.531C333.42 156.967 333 156.535 332.46 156.235C331.932 155.923 331.332 155.767 330.66 155.767C329.988 155.767 329.382 155.923 328.842 156.235C328.314 156.535 327.894 156.967 327.582 157.531C327.282 158.095 327.132 158.737 327.132 159.457C327.132 160.177 327.282 160.819 327.582 161.383C327.894 161.947 328.314 162.385 328.842 162.697C329.382 162.997 329.988 163.147 330.66 163.147ZM342.953 154.651C343.841 154.651 344.645 154.855 345.365 155.263C346.085 155.659 346.649 156.223 347.057 156.955C347.465 157.687 347.669 158.521 347.669 159.457C347.669 160.405 347.465 161.245 347.057 161.977C346.649 162.709 346.085 163.279 345.365 163.687C344.657 164.083 343.853 164.281 342.953 164.281C342.185 164.281 341.489 164.125 340.865 163.813C340.253 163.489 339.749 163.021 339.353 162.409V167.683H338.075V154.723H339.299V156.595C339.683 155.971 340.187 155.491 340.811 155.155C341.447 154.819 342.161 154.651 342.953 154.651ZM342.863 163.147C343.523 163.147 344.123 162.997 344.663 162.697C345.203 162.385 345.623 161.947 345.923 161.383C346.235 160.819 346.391 160.177 346.391 159.457C346.391 158.737 346.235 158.101 345.923 157.549C345.623 156.985 345.203 156.547 344.663 156.235C344.123 155.923 343.523 155.767 342.863 155.767C342.191 155.767 341.585 155.923 341.045 156.235C340.517 156.547 340.097 156.985 339.785 157.549C339.485 158.101 339.335 158.737 339.335 159.457C339.335 160.177 339.485 160.819 339.785 161.383C340.097 161.947 340.517 162.385 341.045 162.697C341.585 162.997 342.191 163.147 342.863 163.147ZM358.518 159.853H350.598C350.67 160.837 351.048 161.635 351.732 162.247C352.416 162.847 353.28 163.147 354.324 163.147C354.912 163.147 355.452 163.045 355.944 162.841C356.436 162.625 356.862 162.313 357.222 161.905L357.942 162.733C357.522 163.237 356.994 163.621 356.358 163.885C355.734 164.149 355.044 164.281 354.288 164.281C353.316 164.281 352.452 164.077 351.696 163.669C350.952 163.249 350.37 162.673 349.95 161.941C349.53 161.209 349.32 160.381 349.32 159.457C349.32 158.533 349.518 157.705 349.914 156.973C350.322 156.241 350.874 155.671 351.57 155.263C352.278 154.855 353.07 154.651 353.946 154.651C354.822 154.651 355.608 154.855 356.304 155.263C357 155.671 357.546 156.241 357.942 156.973C358.338 157.693 358.536 158.521 358.536 159.457L358.518 159.853ZM353.946 155.749C353.034 155.749 352.266 156.043 351.642 156.631C351.03 157.207 350.682 157.963 350.598 158.899H357.312C357.228 157.963 356.874 157.207 356.25 156.631C355.638 156.043 354.87 155.749 353.946 155.749Z" fill="#4B4A51"/>
<path d="M299.652 192.281C298.74 192.281 297.918 192.077 297.186 191.669C296.454 191.249 295.878 190.673 295.458 189.941C295.038 189.209 294.828 188.381 294.828 187.457C294.828 186.533 295.038 185.705 295.458 184.973C295.878 184.241 296.454 183.671 297.186 183.263C297.918 182.855 298.74 182.651 299.652 182.651C300.564 182.651 301.386 182.855 302.118 183.263C302.85 183.671 303.42 184.241 303.828 184.973C304.248 185.705 304.458 186.533 304.458 187.457C304.458 188.381 304.248 189.209 303.828 189.941C303.42 190.673 302.85 191.249 302.118 191.669C301.386 192.077 300.564 192.281 299.652 192.281ZM299.652 191.147C300.324 191.147 300.924 190.997 301.452 190.697C301.992 190.385 302.412 189.947 302.712 189.383C303.012 188.819 303.162 188.177 303.162 187.457C303.162 186.737 303.012 186.095 302.712 185.531C302.412 184.967 301.992 184.535 301.452 184.235C300.924 183.923 300.324 183.767 299.652 183.767C298.98 183.767 298.374 183.923 297.834 184.235C297.306 184.535 296.886 184.967 296.574 185.531C296.274 186.095 296.124 186.737 296.124 187.457C296.124 188.177 296.274 188.819 296.574 189.383C296.886 189.947 297.306 190.385 297.834 190.697C298.374 190.997 298.98 191.147 299.652 191.147ZM312.053 191.615C311.813 191.831 311.513 191.999 311.153 192.119C310.805 192.227 310.439 192.281 310.055 192.281C309.167 192.281 308.483 192.041 308.003 191.561C307.523 191.081 307.283 190.403 307.283 189.527V183.803H305.591V182.723H307.283V180.653H308.561V182.723H311.441V183.803H308.561V189.455C308.561 190.019 308.699 190.451 308.975 190.751C309.263 191.039 309.671 191.183 310.199 191.183C310.463 191.183 310.715 191.141 310.955 191.057C311.207 190.973 311.423 190.853 311.603 190.697L312.053 191.615ZM319.204 182.651C320.392 182.651 321.334 182.999 322.03 183.695C322.738 184.379 323.092 185.381 323.092 186.701V192.191H321.814V186.827C321.814 185.843 321.568 185.093 321.076 184.577C320.584 184.061 319.882 183.803 318.97 183.803C317.95 183.803 317.14 184.109 316.54 184.721C315.952 185.321 315.658 186.155 315.658 187.223V192.191H314.38V178.835H315.658V184.379C316.006 183.827 316.486 183.401 317.098 183.101C317.71 182.801 318.412 182.651 319.204 182.651ZM334.84 187.853H326.92C326.992 188.837 327.37 189.635 328.054 190.247C328.738 190.847 329.602 191.147 330.646 191.147C331.234 191.147 331.774 191.045 332.266 190.841C332.758 190.625 333.184 190.313 333.544 189.905L334.264 190.733C333.844 191.237 333.316 191.621 332.68 191.885C332.056 192.149 331.366 192.281 330.61 192.281C329.638 192.281 328.774 192.077 328.018 191.669C327.274 191.249 326.692 190.673 326.272 189.941C325.852 189.209 325.642 188.381 325.642 187.457C325.642 186.533 325.84 185.705 326.236 184.973C326.644 184.241 327.196 183.671 327.892 183.263C328.6 182.855 329.392 182.651 330.268 182.651C331.144 182.651 331.93 182.855 332.626 183.263C333.322 183.671 333.868 184.241 334.264 184.973C334.66 185.693 334.858 186.521 334.858 187.457L334.84 187.853ZM330.268 183.749C329.356 183.749 328.588 184.043 327.964 184.631C327.352 185.207 327.004 185.963 326.92 186.899H333.634C333.55 185.963 333.196 185.207 332.572 184.631C331.96 184.043 331.192 183.749 330.268 183.749ZM338.684 184.577C338.984 183.941 339.428 183.461 340.016 183.137C340.616 182.813 341.354 182.651 342.23 182.651V183.893L341.924 183.875C340.928 183.875 340.148 184.181 339.584 184.793C339.02 185.405 338.738 186.263 338.738 187.367V192.191H337.46V182.723H338.684V184.577Z" fill="#4B4A51"/>
<path fill-rule="evenodd" clip-rule="evenodd" d="M223.836 172.846C232.402 156.13 236.869 137.617 236.869 118.834H118.435L23.9221 47.4609C12.6029 62.4498 5.01099 79.9159 1.77308 98.4175C-1.46483 116.919 -0.2559 135.925 5.30008 153.867C10.8561 171.81 20.5998 188.173 33.7268 201.607C46.8539 215.041 62.9879 225.16 80.7969 231.129C98.6059 237.098 117.579 238.746 136.151 235.936C154.722 233.127 172.359 225.94 187.605 214.97C202.852 204.001 215.27 189.562 223.836 172.846Z" fill="#6EA7C5"/>
<path fill-rule="evenodd" clip-rule="evenodd" d="M163.758 9.41471C149.388 3.46281 133.988 0.399408 118.435 0.399409L118.435 118.834L236.869 118.834C236.869 103.281 233.806 87.8802 227.854 73.5111C221.902 59.1419 213.178 46.0858 202.181 35.0881C191.183 24.0904 178.127 15.3666 163.758 9.41471Z" fill="#55C5CE"/>
<path fill-rule="evenodd" clip-rule="evenodd" d="M66.0133 12.0483C49.2202 20.1504 34.5772 32.1029 23.276 46.9332L117.477 118.717L119.917 0.307776C101.275 -0.0763767 82.8065 3.94628 66.0133 12.0483Z" fill="#FFBDAE"/>
<circle cx="119.5" cy="117.691" r="58.5" fill="white"/>
<circle cx="274.5" cy="129.691" r="4.5" fill="#6EA7C5"/>
<circle cx="274.5" cy="157.691" r="4.5" fill="#55C5CE"/>
<circle cx="274.5" cy="185.691" r="4.5" fill="#FFBDAE"/>
<path d="M63.464 189.613C65.264 189.613 66.584 189.955 67.424 190.639C68.276 191.311 68.702 192.235 68.702 193.411C68.702 194.155 68.522 194.827 68.162 195.427C67.814 196.015 67.28 196.483 66.56 196.831C65.852 197.167 64.976 197.335 63.932 197.335C63.044 197.335 62.186 197.203 61.358 196.939C60.53 196.663 59.846 196.285 59.306 195.805L60.134 194.383C60.566 194.791 61.118 195.121 61.79 195.373C62.462 195.613 63.17 195.733 63.914 195.733C64.862 195.733 65.594 195.535 66.11 195.139C66.638 194.731 66.902 194.179 66.902 193.483C66.902 192.727 66.614 192.157 66.038 191.773C65.462 191.377 64.478 191.179 63.086 191.179H60.224L60.89 184.591H68V186.157H62.402L62.06 189.613H63.464ZM75.6359 189.541C76.4639 189.541 77.2019 189.697 77.8499 190.009C78.5099 190.321 79.0259 190.771 79.3979 191.359C79.7699 191.935 79.9559 192.601 79.9559 193.357C79.9559 194.149 79.7579 194.845 79.3619 195.445C78.9779 196.045 78.4439 196.513 77.7599 196.849C77.0879 197.173 76.3319 197.335 75.4919 197.335C73.7999 197.335 72.4919 196.789 71.5679 195.697C70.6559 194.605 70.1999 193.057 70.1999 191.053C70.1999 189.649 70.4459 188.455 70.9379 187.471C71.4419 186.475 72.1379 185.725 73.0259 185.221C73.9259 184.705 74.9699 184.447 76.1579 184.447C76.7699 184.447 77.3459 184.513 77.8859 184.645C78.4259 184.765 78.8939 184.945 79.2899 185.185L78.6059 186.589C78.0059 186.193 77.2019 185.995 76.1939 185.995C74.8859 185.995 73.8599 186.403 73.1159 187.219C72.3719 188.023 71.9999 189.199 71.9999 190.747C71.9999 190.939 72.0059 191.089 72.0179 191.197C72.3779 190.657 72.8699 190.249 73.4939 189.973C74.1299 189.685 74.8439 189.541 75.6359 189.541ZM75.4199 195.877C76.2479 195.877 76.9199 195.655 77.4359 195.211C77.9519 194.767 78.2099 194.173 78.2099 193.429C78.2099 192.685 77.9459 192.097 77.4179 191.665C76.9019 191.221 76.2059 190.999 75.3299 190.999C74.7659 190.999 74.2619 191.107 73.8179 191.323C73.3859 191.539 73.0439 191.833 72.7919 192.205C72.5519 192.577 72.4319 192.991 72.4319 193.447C72.4319 193.891 72.5459 194.299 72.7739 194.671C73.0139 195.031 73.3559 195.325 73.7999 195.553C74.2559 195.769 74.7959 195.877 75.4199 195.877ZM88.8793 191.359C88.0033 191.359 87.2953 191.041 86.7553 190.405C86.2153 189.769 85.9453 188.941 85.9453 187.921C85.9453 186.901 86.2153 186.073 86.7553 185.437C87.2953 184.801 88.0033 184.483 88.8793 184.483C89.7553 184.483 90.4573 184.801 90.9853 185.437C91.5253 186.061 91.7953 186.889 91.7953 187.921C91.7953 188.953 91.5253 189.787 90.9853 190.423C90.4573 191.047 89.7553 191.359 88.8793 191.359ZM96.4753 184.591H97.8613L89.2573 197.191H87.8713L96.4753 184.591ZM88.8793 190.333C89.4313 190.333 89.8633 190.123 90.1753 189.703C90.4873 189.271 90.6433 188.677 90.6433 187.921C90.6433 187.165 90.4873 186.577 90.1753 186.157C89.8633 185.725 89.4313 185.509 88.8793 185.509C88.3393 185.509 87.9073 185.725 87.5833 186.157C87.2713 186.589 87.1153 187.177 87.1153 187.921C87.1153 188.665 87.2713 189.253 87.5833 189.685C87.9073 190.117 88.3393 190.333 88.8793 190.333ZM96.8533 197.299C95.9773 197.299 95.2693 196.987 94.7293 196.363C94.2013 195.727 93.9373 194.893 93.9373 193.861C93.9373 192.829 94.2013 192.001 94.7293 191.377C95.2693 190.741 95.9773 190.423 96.8533 190.423C97.7293 190.423 98.4373 190.741 98.9773 191.377C99.5173 192.013 99.7873 192.841 99.7873 193.861C99.7873 194.881 99.5173 195.709 98.9773 196.345C98.4373 196.981 97.7293 197.299 96.8533 197.299ZM96.8533 196.273C97.3933 196.273 97.8193 196.057 98.1313 195.625C98.4553 195.193 98.6173 194.605 98.6173 193.861C98.6173 193.117 98.4553 192.529 98.1313 192.097C97.8193 191.665 97.3933 191.449 96.8533 191.449C96.3013 191.449 95.8693 191.665 95.5573 192.097C95.2453 192.517 95.0893 193.105 95.0893 193.861C95.0893 194.617 95.2453 195.211 95.5573 195.643C95.8693 196.063 96.3013 196.273 96.8533 196.273Z" fill="white"/>
<path d="M168.688 60.8834C169.924 61.0034 170.866 61.3874 171.514 62.0354C172.162 62.6714 172.486 63.4874 172.486 64.4834C172.486 65.2034 172.306 65.8574 171.946 66.4454C171.586 67.0214 171.046 67.4834 170.326 67.8314C169.618 68.1674 168.748 68.3354 167.716 68.3354C166.816 68.3354 165.952 68.2034 165.124 67.9394C164.296 67.6634 163.618 67.2854 163.09 66.8054L163.918 65.3834C164.35 65.7914 164.902 66.1214 165.574 66.3734C166.246 66.6134 166.96 66.7334 167.716 66.7334C168.652 66.7334 169.378 66.5354 169.894 66.1394C170.422 65.7434 170.686 65.1974 170.686 64.5014C170.686 63.8054 170.428 63.2654 169.912 62.8814C169.396 62.4974 168.616 62.3054 167.572 62.3054H166.564V61.0454L169.732 57.1574H163.666V55.5914H171.982V56.8154L168.688 60.8834ZM178.901 60.8834C180.137 61.0034 181.079 61.3874 181.727 62.0354C182.375 62.6714 182.699 63.4874 182.699 64.4834C182.699 65.2034 182.519 65.8574 182.159 66.4454C181.799 67.0214 181.259 67.4834 180.539 67.8314C179.831 68.1674 178.961 68.3354 177.929 68.3354C177.029 68.3354 176.165 68.2034 175.337 67.9394C174.509 67.6634 173.831 67.2854 173.303 66.8054L174.131 65.3834C174.563 65.7914 175.115 66.1214 175.787 66.3734C176.459 66.6134 177.173 66.7334 177.929 66.7334C178.865 66.7334 179.591 66.5354 180.107 66.1394C180.635 65.7434 180.899 65.1974 180.899 64.5014C180.899 63.8054 180.641 63.2654 180.125 62.8814C179.609 62.4974 178.829 62.3054 177.785 62.3054H176.777V61.0454L179.945 57.1574H173.879V55.5914H182.195V56.8154L178.901 60.8834ZM191.948 62.3594C191.072 62.3594 190.364 62.0414 189.824 61.4054C189.284 60.7694 189.014 59.9414 189.014 58.9214C189.014 57.9014 189.284 57.0734 189.824 56.4374C190.364 55.8014 191.072 55.4834 191.948 55.4834C192.824 55.4834 193.526 55.8014 194.054 56.4374C194.594 57.0614 194.864 57.8894 194.864 58.9214C194.864 59.9534 194.594 60.7874 194.054 61.4234C193.526 62.0474 192.824 62.3594 191.948 62.3594ZM199.544 55.5914H200.93L192.326 68.1914H190.94L199.544 55.5914ZM191.948 61.3334C192.5 61.3334 192.932 61.1234 193.244 60.7034C193.556 60.2714 193.712 59.6774 193.712 58.9214C193.712 58.1654 193.556 57.5774 193.244 57.1574C192.932 56.7254 192.5 56.5094 191.948 56.5094C191.408 56.5094 190.976 56.7254 190.652 57.1574C190.34 57.5894 190.184 58.1774 190.184 58.9214C190.184 59.6654 190.34 60.2534 190.652 60.6854C190.976 61.1174 191.408 61.3334 191.948 61.3334ZM199.922 68.2994C199.046 68.2994 198.338 67.9874 197.798 67.3634C197.27 66.7274 197.006 65.8934 197.006 64.8614C197.006 63.8294 197.27 63.0014 197.798 62.3774C198.338 61.7414 199.046 61.4234 199.922 61.4234C200.798 61.4234 201.506 61.7414 202.046 62.3774C202.586 63.0134 202.856 63.8414 202.856 64.8614C202.856 65.8814 202.586 66.7094 202.046 67.3454C201.506 67.9814 200.798 68.2994 199.922 68.2994ZM199.922 67.2734C200.462 67.2734 200.888 67.0574 201.2 66.6254C201.524 66.1934 201.686 65.6054 201.686 64.8614C201.686 64.1174 201.524 63.5294 201.2 63.0974C200.888 62.6654 200.462 62.4494 199.922 62.4494C199.37 62.4494 198.938 62.6654 198.626 63.0974C198.314 63.5174 198.158 64.1054 198.158 64.8614C198.158 65.6174 198.314 66.2114 198.626 66.6434C198.938 67.0634 199.37 67.2734 199.922 67.2734Z" fill="white"/>
<path d="M63.77 37.5914V50.1914H61.988V39.1574H59.144V37.5914H63.77ZM70.4321 37.5914V50.1914H68.6501V39.1574H65.8061V37.5914H70.4321ZM80.7582 44.3594C79.8822 44.3594 79.1742 44.0414 78.6342 43.4054C78.0942 42.7694 77.8242 41.9414 77.8242 40.9214C77.8242 39.9014 78.0942 39.0734 78.6342 38.4374C79.1742 37.8014 79.8822 37.4834 80.7582 37.4834C81.6342 37.4834 82.3362 37.8014 82.8642 38.4374C83.4042 39.0614 83.6742 39.8894 83.6742 40.9214C83.6742 41.9534 83.4042 42.7874 82.8642 43.4234C82.3362 44.0474 81.6342 44.3594 80.7582 44.3594ZM88.3542 37.5914H89.7402L81.1362 50.1914H79.7502L88.3542 37.5914ZM80.7582 43.3334C81.3102 43.3334 81.7422 43.1234 82.0542 42.7034C82.3662 42.2714 82.5222 41.6774 82.5222 40.9214C82.5222 40.1654 82.3662 39.5774 82.0542 39.1574C81.7422 38.7254 81.3102 38.5094 80.7582 38.5094C80.2182 38.5094 79.7862 38.7254 79.4622 39.1574C79.1502 39.5894 78.9942 40.1774 78.9942 40.9214C78.9942 41.6654 79.1502 42.2534 79.4622 42.6854C79.7862 43.1174 80.2182 43.3334 80.7582 43.3334ZM88.7322 50.2994C87.8562 50.2994 87.1482 49.9874 86.6082 49.3634C86.0802 48.7274 85.8162 47.8934 85.8162 46.8614C85.8162 45.8294 86.0802 45.0014 86.6082 44.3774C87.1482 43.7414 87.8562 43.4234 88.7322 43.4234C89.6082 43.4234 90.3162 43.7414 90.8562 44.3774C91.3962 45.0134 91.6662 45.8414 91.6662 46.8614C91.6662 47.8814 91.3962 48.7094 90.8562 49.3454C90.3162 49.9814 89.6082 50.2994 88.7322 50.2994ZM88.7322 49.2734C89.2722 49.2734 89.6982 49.0574 90.0102 48.6254C90.3342 48.1934 90.4962 47.6054 90.4962 46.8614C90.4962 46.1174 90.3342 45.5294 90.0102 45.0974C89.6982 44.6654 89.2722 44.4494 88.7322 44.4494C88.1802 44.4494 87.7482 44.6654 87.4362 45.0974C87.1242 45.5174 86.9682 46.1054 86.9682 46.8614C86.9682 47.6174 87.1242 48.2114 87.4362 48.6434C87.7482 49.0634 88.1802 49.2734 88.7322 49.2734Z" fill="white"/>
</svg>
