<svg width="525" height="238" viewBox="0 0 525 238" fill="none" xmlns="http://www.w3.org/2000/svg">
<path d="M299.606 126.651C300.794 126.651 301.736 126.999 302.432 127.695C303.14 128.379 303.494 129.381 303.494 130.701V136.191H302.216V130.827C302.216 129.843 301.97 129.093 301.478 128.577C300.986 128.061 300.284 127.803 299.372 127.803C298.352 127.803 297.542 128.109 296.942 128.721C296.354 129.321 296.06 130.155 296.06 131.223V136.191H294.782V126.723H296.006V128.469C296.354 127.893 296.834 127.449 297.446 127.137C298.07 126.813 298.79 126.651 299.606 126.651ZM310.869 136.281C309.957 136.281 309.135 136.077 308.403 135.669C307.671 135.249 307.095 134.673 306.675 133.941C306.255 133.209 306.045 132.381 306.045 131.457C306.045 130.533 306.255 129.705 306.675 128.973C307.095 128.241 307.671 127.671 308.403 127.263C309.135 126.855 309.957 126.651 310.869 126.651C311.781 126.651 312.603 126.855 313.335 127.263C314.067 127.671 314.637 128.241 315.045 128.973C315.465 129.705 315.675 130.533 315.675 131.457C315.675 132.381 315.465 133.209 315.045 133.941C314.637 134.673 314.067 135.249 313.335 135.669C312.603 136.077 311.781 136.281 310.869 136.281ZM310.869 135.147C311.541 135.147 312.141 134.997 312.669 134.697C313.209 134.385 313.629 133.947 313.929 133.383C314.229 132.819 314.379 132.177 314.379 131.457C314.379 130.737 314.229 130.095 313.929 129.531C313.629 128.967 313.209 128.535 312.669 128.235C312.141 127.923 311.541 127.767 310.869 127.767C310.197 127.767 309.591 127.923 309.051 128.235C308.523 128.535 308.103 128.967 307.791 129.531C307.491 130.095 307.341 130.737 307.341 131.457C307.341 132.177 307.491 132.819 307.791 133.383C308.103 133.947 308.523 134.385 309.051 134.697C309.591 134.997 310.197 135.147 310.869 135.147ZM323.27 135.615C323.03 135.831 322.73 135.999 322.37 136.119C322.022 136.227 321.656 136.281 321.272 136.281C320.384 136.281 319.7 136.041 319.22 135.561C318.74 135.081 318.5 134.403 318.5 133.527V127.803H316.808V126.723H318.5V124.653H319.778V126.723H322.658V127.803H319.778V133.455C319.778 134.019 319.916 134.451 320.192 134.751C320.48 135.039 320.888 135.183 321.416 135.183C321.68 135.183 321.932 135.141 322.172 135.057C322.424 134.973 322.64 134.853 322.82 134.697L323.27 135.615ZM332.845 136.281C332.077 136.281 331.339 136.173 330.631 135.957C329.935 135.729 329.389 135.447 328.993 135.111L329.569 134.103C329.965 134.415 330.463 134.673 331.063 134.877C331.663 135.069 332.287 135.165 332.935 135.165C333.799 135.165 334.435 135.033 334.843 134.769C335.263 134.493 335.473 134.109 335.473 133.617C335.473 133.269 335.359 132.999 335.131 132.807C334.903 132.603 334.615 132.453 334.267 132.357C333.919 132.249 333.457 132.147 332.881 132.051C332.113 131.907 331.495 131.763 331.027 131.619C330.559 131.463 330.157 131.205 329.821 130.845C329.497 130.485 329.335 129.987 329.335 129.351C329.335 128.559 329.665 127.911 330.325 127.407C330.985 126.903 331.903 126.651 333.079 126.651C333.691 126.651 334.303 126.735 334.915 126.903C335.527 127.059 336.031 127.269 336.427 127.533L335.869 128.559C335.089 128.019 334.159 127.749 333.079 127.749C332.263 127.749 331.645 127.893 331.225 128.181C330.817 128.469 330.613 128.847 330.613 129.315C330.613 129.675 330.727 129.963 330.955 130.179C331.195 130.395 331.489 130.557 331.837 130.665C332.185 130.761 332.665 130.863 333.277 130.971C334.033 131.115 334.639 131.259 335.095 131.403C335.551 131.547 335.941 131.793 336.265 132.141C336.589 132.489 336.751 132.969 336.751 133.581C336.751 134.409 336.403 135.069 335.707 135.561C335.023 136.041 334.069 136.281 332.845 136.281ZM342.984 136.281C342.072 136.281 341.25 136.077 340.518 135.669C339.786 135.249 339.21 134.673 338.79 133.941C338.37 133.209 338.16 132.381 338.16 131.457C338.16 130.533 338.37 129.705 338.79 128.973C339.21 128.241 339.786 127.671 340.518 127.263C341.25 126.855 342.072 126.651 342.984 126.651C343.896 126.651 344.718 126.855 345.45 127.263C346.182 127.671 346.752 128.241 347.16 128.973C347.58 129.705 347.79 130.533 347.79 131.457C347.79 132.381 347.58 133.209 347.16 133.941C346.752 134.673 346.182 135.249 345.45 135.669C344.718 136.077 343.896 136.281 342.984 136.281ZM342.984 135.147C343.656 135.147 344.256 134.997 344.784 134.697C345.324 134.385 345.744 133.947 346.044 133.383C346.344 132.819 346.494 132.177 346.494 131.457C346.494 130.737 346.344 130.095 346.044 129.531C345.744 128.967 345.324 128.535 344.784 128.235C344.256 127.923 343.656 127.767 342.984 127.767C342.312 127.767 341.706 127.923 341.166 128.235C340.638 128.535 340.218 128.967 339.906 129.531C339.606 130.095 339.456 130.737 339.456 131.457C339.456 132.177 339.606 132.819 339.906 133.383C340.218 133.947 340.638 134.385 341.166 134.697C341.706 134.997 342.312 135.147 342.984 135.147ZM366.918 126.651C368.106 126.651 369.036 126.993 369.708 127.677C370.392 128.361 370.734 129.369 370.734 130.701V136.191H369.456V130.827C369.456 129.843 369.216 129.093 368.736 128.577C368.268 128.061 367.602 127.803 366.738 127.803C365.754 127.803 364.98 128.109 364.416 128.721C363.852 129.321 363.57 130.155 363.57 131.223V136.191H362.292V130.827C362.292 129.843 362.052 129.093 361.572 128.577C361.104 128.061 360.432 127.803 359.556 127.803C358.584 127.803 357.81 128.109 357.234 128.721C356.67 129.321 356.388 130.155 356.388 131.223V136.191H355.11V126.723H356.334V128.451C356.67 127.875 357.138 127.431 357.738 127.119C358.338 126.807 359.028 126.651 359.808 126.651C360.6 126.651 361.284 126.819 361.86 127.155C362.448 127.491 362.886 127.989 363.174 128.649C363.522 128.025 364.02 127.539 364.668 127.191C365.328 126.831 366.078 126.651 366.918 126.651ZM382.732 126.723V136.191H381.508V134.463C381.172 135.039 380.71 135.489 380.122 135.813C379.534 136.125 378.862 136.281 378.106 136.281C376.87 136.281 375.892 135.939 375.172 135.255C374.464 134.559 374.11 133.545 374.11 132.213V126.723H375.388V132.087C375.388 133.083 375.634 133.839 376.126 134.355C376.618 134.871 377.32 135.129 378.232 135.129C379.228 135.129 380.014 134.829 380.59 134.229C381.166 133.617 381.454 132.771 381.454 131.691V126.723H382.732ZM390.235 136.281C389.299 136.281 388.459 136.077 387.715 135.669C386.983 135.261 386.407 134.691 385.987 133.959C385.567 133.215 385.357 132.381 385.357 131.457C385.357 130.533 385.567 129.705 385.987 128.973C386.407 128.241 386.983 127.671 387.715 127.263C388.459 126.855 389.299 126.651 390.235 126.651C391.051 126.651 391.777 126.813 392.413 127.137C393.061 127.449 393.571 127.911 393.943 128.523L392.989 129.171C392.677 128.703 392.281 128.355 391.801 128.127C391.321 127.887 390.799 127.767 390.235 127.767C389.551 127.767 388.933 127.923 388.381 128.235C387.841 128.535 387.415 128.967 387.103 129.531C386.803 130.095 386.653 130.737 386.653 131.457C386.653 132.189 386.803 132.837 387.103 133.401C387.415 133.953 387.841 134.385 388.381 134.697C388.933 134.997 389.551 135.147 390.235 135.147C390.799 135.147 391.321 135.033 391.801 134.805C392.281 134.577 392.677 134.229 392.989 133.761L393.943 134.409C393.571 135.021 393.061 135.489 392.413 135.813C391.765 136.125 391.039 136.281 390.235 136.281ZM401.137 126.651C402.325 126.651 403.267 126.999 403.963 127.695C404.671 128.379 405.025 129.381 405.025 130.701V136.191H403.747V130.827C403.747 129.843 403.501 129.093 403.009 128.577C402.517 128.061 401.815 127.803 400.903 127.803C399.883 127.803 399.073 128.109 398.473 128.721C397.885 129.321 397.591 130.155 397.591 131.223V136.191H396.313V122.835H397.591V128.379C397.939 127.827 398.419 127.401 399.031 127.101C399.643 126.801 400.345 126.651 401.137 126.651Z" fill="#4B4A51"/>
<path d="M302.738 154.723L298.004 165.325C297.62 166.213 297.176 166.843 296.672 167.215C296.168 167.587 295.562 167.773 294.854 167.773C294.398 167.773 293.972 167.701 293.576 167.557C293.18 167.413 292.838 167.197 292.55 166.909L293.144 165.955C293.624 166.435 294.2 166.675 294.872 166.675C295.304 166.675 295.67 166.555 295.97 166.315C296.282 166.075 296.57 165.667 296.834 165.091L297.248 164.173L293.018 154.723H294.35L297.914 162.769L301.478 154.723H302.738ZM312.518 159.853H304.598C304.67 160.837 305.048 161.635 305.732 162.247C306.416 162.847 307.28 163.147 308.324 163.147C308.912 163.147 309.452 163.045 309.944 162.841C310.436 162.625 310.862 162.313 311.222 161.905L311.942 162.733C311.522 163.237 310.994 163.621 310.358 163.885C309.734 164.149 309.044 164.281 308.288 164.281C307.316 164.281 306.452 164.077 305.696 163.669C304.952 163.249 304.37 162.673 303.95 161.941C303.53 161.209 303.32 160.381 303.32 159.457C303.32 158.533 303.518 157.705 303.914 156.973C304.322 156.241 304.874 155.671 305.57 155.263C306.278 154.855 307.07 154.651 307.946 154.651C308.822 154.651 309.608 154.855 310.304 155.263C311 155.671 311.546 156.241 311.942 156.973C312.338 157.693 312.536 158.521 312.536 159.457L312.518 159.853ZM307.946 155.749C307.034 155.749 306.266 156.043 305.642 156.631C305.03 157.207 304.682 157.963 304.598 158.899H311.312C311.228 157.963 310.874 157.207 310.25 156.631C309.638 156.043 308.87 155.749 307.946 155.749ZM317.675 164.281C316.907 164.281 316.169 164.173 315.461 163.957C314.765 163.729 314.219 163.447 313.823 163.111L314.399 162.103C314.795 162.415 315.293 162.673 315.893 162.877C316.493 163.069 317.117 163.165 317.765 163.165C318.629 163.165 319.265 163.033 319.673 162.769C320.093 162.493 320.303 162.109 320.303 161.617C320.303 161.269 320.189 160.999 319.961 160.807C319.733 160.603 319.445 160.453 319.097 160.357C318.749 160.249 318.287 160.147 317.711 160.051C316.943 159.907 316.325 159.763 315.857 159.619C315.389 159.463 314.987 159.205 314.651 158.845C314.327 158.485 314.165 157.987 314.165 157.351C314.165 156.559 314.495 155.911 315.155 155.407C315.815 154.903 316.733 154.651 317.909 154.651C318.521 154.651 319.133 154.735 319.745 154.903C320.357 155.059 320.861 155.269 321.257 155.533L320.699 156.559C319.919 156.019 318.989 155.749 317.909 155.749C317.093 155.749 316.475 155.893 316.055 156.181C315.647 156.469 315.443 156.847 315.443 157.315C315.443 157.675 315.557 157.963 315.785 158.179C316.025 158.395 316.319 158.557 316.667 158.665C317.015 158.761 317.495 158.863 318.107 158.971C318.863 159.115 319.469 159.259 319.925 159.403C320.381 159.547 320.771 159.793 321.095 160.141C321.419 160.489 321.581 160.969 321.581 161.581C321.581 162.409 321.233 163.069 320.537 163.561C319.853 164.041 318.899 164.281 317.675 164.281ZM324.088 162.319C324.364 162.319 324.592 162.415 324.772 162.607C324.952 162.787 325.042 163.015 325.042 163.291C325.042 163.435 325.018 163.591 324.97 163.759C324.934 163.927 324.874 164.119 324.79 164.335L324.034 166.819H323.17L323.782 164.209C323.59 164.149 323.434 164.041 323.314 163.885C323.194 163.717 323.134 163.519 323.134 163.291C323.134 163.015 323.224 162.787 323.404 162.607C323.584 162.415 323.812 162.319 324.088 162.319ZM340.426 154.723L336.214 164.191H334.9L330.706 154.723H332.038L335.584 162.787L339.166 154.723H340.426ZM350.206 159.853H342.286C342.358 160.837 342.736 161.635 343.42 162.247C344.104 162.847 344.968 163.147 346.012 163.147C346.6 163.147 347.14 163.045 347.632 162.841C348.124 162.625 348.55 162.313 348.91 161.905L349.63 162.733C349.21 163.237 348.682 163.621 348.046 163.885C347.422 164.149 346.732 164.281 345.976 164.281C345.004 164.281 344.14 164.077 343.384 163.669C342.64 163.249 342.058 162.673 341.638 161.941C341.218 161.209 341.008 160.381 341.008 159.457C341.008 158.533 341.206 157.705 341.602 156.973C342.01 156.241 342.562 155.671 343.258 155.263C343.966 154.855 344.758 154.651 345.634 154.651C346.51 154.651 347.296 154.855 347.992 155.263C348.688 155.671 349.234 156.241 349.63 156.973C350.026 157.693 350.224 158.521 350.224 159.457L350.206 159.853ZM345.634 155.749C344.722 155.749 343.954 156.043 343.33 156.631C342.718 157.207 342.37 157.963 342.286 158.899H349C348.916 157.963 348.562 157.207 347.938 156.631C347.326 156.043 346.558 155.749 345.634 155.749ZM354.049 156.577C354.349 155.941 354.793 155.461 355.381 155.137C355.981 154.813 356.719 154.651 357.595 154.651V155.893L357.289 155.875C356.293 155.875 355.513 156.181 354.949 156.793C354.385 157.405 354.103 158.263 354.103 159.367V164.191H352.825V154.723H354.049V156.577ZM368.269 154.723L363.535 165.325C363.151 166.213 362.707 166.843 362.203 167.215C361.699 167.587 361.093 167.773 360.385 167.773C359.929 167.773 359.503 167.701 359.107 167.557C358.711 167.413 358.369 167.197 358.081 166.909L358.675 165.955C359.155 166.435 359.731 166.675 360.403 166.675C360.835 166.675 361.201 166.555 361.501 166.315C361.813 166.075 362.101 165.667 362.365 165.091L362.779 164.173L358.549 154.723H359.881L363.445 162.769L367.009 154.723H368.269ZM374.78 154.723H376.058V164.191H374.78V154.723ZM375.428 152.653C375.164 152.653 374.942 152.563 374.762 152.383C374.582 152.203 374.492 151.987 374.492 151.735C374.492 151.495 374.582 151.285 374.762 151.105C374.942 150.925 375.164 150.835 375.428 150.835C375.692 150.835 375.914 150.925 376.094 151.105C376.274 151.273 376.364 151.477 376.364 151.717C376.364 151.981 376.274 152.203 376.094 152.383C375.914 152.563 375.692 152.653 375.428 152.653ZM391.422 154.651C392.61 154.651 393.54 154.993 394.212 155.677C394.896 156.361 395.238 157.369 395.238 158.701V164.191H393.96V158.827C393.96 157.843 393.72 157.093 393.24 156.577C392.772 156.061 392.106 155.803 391.242 155.803C390.258 155.803 389.484 156.109 388.92 156.721C388.356 157.321 388.074 158.155 388.074 159.223V164.191H386.796V158.827C386.796 157.843 386.556 157.093 386.076 156.577C385.608 156.061 384.936 155.803 384.06 155.803C383.088 155.803 382.314 156.109 381.738 156.721C381.174 157.321 380.892 158.155 380.892 159.223V164.191H379.614V154.723H380.838V156.451C381.174 155.875 381.642 155.431 382.242 155.119C382.842 154.807 383.532 154.651 384.312 154.651C385.104 154.651 385.788 154.819 386.364 155.155C386.952 155.491 387.39 155.989 387.678 156.649C388.026 156.025 388.524 155.539 389.172 155.191C389.832 154.831 390.582 154.651 391.422 154.651ZM403.582 154.651C404.47 154.651 405.274 154.855 405.994 155.263C406.714 155.659 407.278 156.223 407.686 156.955C408.094 157.687 408.298 158.521 408.298 159.457C408.298 160.405 408.094 161.245 407.686 161.977C407.278 162.709 406.714 163.279 405.994 163.687C405.286 164.083 404.482 164.281 403.582 164.281C402.814 164.281 402.118 164.125 401.494 163.813C400.882 163.489 400.378 163.021 399.982 162.409V167.683H398.704V154.723H399.928V156.595C400.312 155.971 400.816 155.491 401.44 155.155C402.076 154.819 402.79 154.651 403.582 154.651ZM403.492 163.147C404.152 163.147 404.752 162.997 405.292 162.697C405.832 162.385 406.252 161.947 406.552 161.383C406.864 160.819 407.02 160.177 407.02 159.457C407.02 158.737 406.864 158.101 406.552 157.549C406.252 156.985 405.832 156.547 405.292 156.235C404.752 155.923 404.152 155.767 403.492 155.767C402.82 155.767 402.214 155.923 401.674 156.235C401.146 156.547 400.726 156.985 400.414 157.549C400.114 158.101 399.964 158.737 399.964 159.457C399.964 160.177 400.114 160.819 400.414 161.383C400.726 161.947 401.146 162.385 401.674 162.697C402.214 162.997 402.82 163.147 403.492 163.147ZM414.773 164.281C413.861 164.281 413.039 164.077 412.307 163.669C411.575 163.249 410.999 162.673 410.579 161.941C410.159 161.209 409.949 160.381 409.949 159.457C409.949 158.533 410.159 157.705 410.579 156.973C410.999 156.241 411.575 155.671 412.307 155.263C413.039 154.855 413.861 154.651 414.773 154.651C415.685 154.651 416.507 154.855 417.239 155.263C417.971 155.671 418.541 156.241 418.949 156.973C419.369 157.705 419.579 158.533 419.579 159.457C419.579 160.381 419.369 161.209 418.949 161.941C418.541 162.673 417.971 163.249 417.239 163.669C416.507 164.077 415.685 164.281 414.773 164.281ZM414.773 163.147C415.445 163.147 416.045 162.997 416.573 162.697C417.113 162.385 417.533 161.947 417.833 161.383C418.133 160.819 418.283 160.177 418.283 159.457C418.283 158.737 418.133 158.095 417.833 157.531C417.533 156.967 417.113 156.535 416.573 156.235C416.045 155.923 415.445 155.767 414.773 155.767C414.101 155.767 413.495 155.923 412.955 156.235C412.427 156.535 412.007 156.967 411.695 157.531C411.395 158.095 411.245 158.737 411.245 159.457C411.245 160.177 411.395 160.819 411.695 161.383C412.007 161.947 412.427 162.385 412.955 162.697C413.495 162.997 414.101 163.147 414.773 163.147ZM423.412 156.577C423.712 155.941 424.156 155.461 424.744 155.137C425.344 154.813 426.082 154.651 426.958 154.651V155.893L426.652 155.875C425.656 155.875 424.876 156.181 424.312 156.793C423.748 157.405 423.466 158.263 423.466 159.367V164.191H422.188V154.723H423.412V156.577ZM434.663 163.615C434.423 163.831 434.123 163.999 433.763 164.119C433.415 164.227 433.049 164.281 432.665 164.281C431.777 164.281 431.093 164.041 430.613 163.561C430.133 163.081 429.893 162.403 429.893 161.527V155.803H428.201V154.723H429.893V152.653H431.171V154.723H434.051V155.803H431.171V161.455C431.171 162.019 431.309 162.451 431.585 162.751C431.873 163.039 432.281 163.183 432.809 163.183C433.073 163.183 433.325 163.141 433.565 163.057C433.817 162.973 434.033 162.853 434.213 162.697L434.663 163.615ZM440.301 154.651C441.537 154.651 442.485 154.963 443.145 155.587C443.805 156.199 444.135 157.111 444.135 158.323V164.191H442.911V162.715C442.623 163.207 442.197 163.591 441.633 163.867C441.081 164.143 440.421 164.281 439.653 164.281C438.597 164.281 437.757 164.029 437.133 163.525C436.509 163.021 436.197 162.355 436.197 161.527C436.197 160.723 436.485 160.075 437.061 159.583C437.649 159.091 438.579 158.845 439.851 158.845H442.857V158.269C442.857 157.453 442.629 156.835 442.173 156.415C441.717 155.983 441.051 155.767 440.175 155.767C439.575 155.767 438.999 155.869 438.447 156.073C437.895 156.265 437.421 156.535 437.025 156.883L436.449 155.929C436.929 155.521 437.505 155.209 438.177 154.993C438.849 154.765 439.557 154.651 440.301 154.651ZM439.851 163.273C440.571 163.273 441.189 163.111 441.705 162.787C442.221 162.451 442.605 161.971 442.857 161.347V159.799H439.887C438.267 159.799 437.457 160.363 437.457 161.491C437.457 162.043 437.667 162.481 438.087 162.805C438.507 163.117 439.095 163.273 439.851 163.273ZM452.43 154.651C453.618 154.651 454.56 154.999 455.256 155.695C455.964 156.379 456.318 157.381 456.318 158.701V164.191H455.04V158.827C455.04 157.843 454.794 157.093 454.302 156.577C453.81 156.061 453.108 155.803 452.196 155.803C451.176 155.803 450.366 156.109 449.766 156.721C449.178 157.321 448.884 158.155 448.884 159.223V164.191H447.606V154.723H448.83V156.469C449.178 155.893 449.658 155.449 450.27 155.137C450.894 154.813 451.614 154.651 452.43 154.651ZM464.774 163.615C464.534 163.831 464.234 163.999 463.874 164.119C463.526 164.227 463.16 164.281 462.776 164.281C461.888 164.281 461.204 164.041 460.724 163.561C460.244 163.081 460.004 162.403 460.004 161.527V155.803H458.312V154.723H460.004V152.653H461.282V154.723H464.162V155.803H461.282V161.455C461.282 162.019 461.42 162.451 461.696 162.751C461.984 163.039 462.392 163.183 462.92 163.183C463.184 163.183 463.436 163.141 463.676 163.057C463.928 162.973 464.144 162.853 464.324 162.697L464.774 163.615Z" fill="#4B4A51"/>
<path d="M271.28 5.19141H276.98C278.46 5.19141 279.767 5.49141 280.9 6.09141C282.033 6.67807 282.913 7.50474 283.54 8.57141C284.167 9.62474 284.48 10.8314 284.48 12.1914C284.48 13.5514 284.167 14.7647 283.54 15.8314C282.913 16.8847 282.033 17.7114 280.9 18.3114C279.767 18.8981 278.46 19.1914 276.98 19.1914H271.28V5.19141ZM276.9 17.9114C278.127 17.9114 279.2 17.6714 280.12 17.1914C281.04 16.6981 281.753 16.0247 282.26 15.1714C282.767 14.3047 283.02 13.3114 283.02 12.1914C283.02 11.0714 282.767 10.0847 282.26 9.23141C281.753 8.36474 281.04 7.69141 280.12 7.21141C279.2 6.71807 278.127 6.47141 276.9 6.47141H272.76V17.9114H276.9ZM291.803 19.2914C290.79 19.2914 289.877 19.0647 289.063 18.6114C288.25 18.1447 287.61 17.5047 287.143 16.6914C286.677 15.8781 286.443 14.9581 286.443 13.9314C286.443 12.9047 286.677 11.9847 287.143 11.1714C287.61 10.3581 288.25 9.72474 289.063 9.27141C289.877 8.81807 290.79 8.59141 291.803 8.59141C292.817 8.59141 293.73 8.81807 294.543 9.27141C295.357 9.72474 295.99 10.3581 296.443 11.1714C296.91 11.9847 297.143 12.9047 297.143 13.9314C297.143 14.9581 296.91 15.8781 296.443 16.6914C295.99 17.5047 295.357 18.1447 294.543 18.6114C293.73 19.0647 292.817 19.2914 291.803 19.2914ZM291.803 18.0314C292.55 18.0314 293.217 17.8647 293.803 17.5314C294.403 17.1847 294.87 16.6981 295.203 16.0714C295.537 15.4447 295.703 14.7314 295.703 13.9314C295.703 13.1314 295.537 12.4181 295.203 11.7914C294.87 11.1647 294.403 10.6847 293.803 10.3514C293.217 10.0047 292.55 9.83141 291.803 9.83141C291.057 9.83141 290.383 10.0047 289.783 10.3514C289.197 10.6847 288.73 11.1647 288.383 11.7914C288.05 12.4181 287.883 13.1314 287.883 13.9314C287.883 14.7314 288.05 15.4447 288.383 16.0714C288.73 16.6981 289.197 17.1847 289.783 17.5314C290.383 17.8647 291.057 18.0314 291.803 18.0314ZM314.117 8.67141L308.857 20.4514C308.43 21.4381 307.937 22.1381 307.377 22.5514C306.817 22.9647 306.144 23.1714 305.357 23.1714C304.85 23.1714 304.377 23.0914 303.937 22.9314C303.497 22.7714 303.117 22.5314 302.797 22.2114L303.457 21.1514C303.99 21.6847 304.63 21.9514 305.377 21.9514C305.857 21.9514 306.264 21.8181 306.597 21.5514C306.944 21.2847 307.264 20.8314 307.557 20.1914L308.017 19.1714L303.317 8.67141H304.797L308.757 17.6114L312.717 8.67141H314.117ZM320.124 19.2914C319.11 19.2914 318.197 19.0647 317.384 18.6114C316.57 18.1447 315.93 17.5047 315.464 16.6914C314.997 15.8781 314.764 14.9581 314.764 13.9314C314.764 12.9047 314.997 11.9847 315.464 11.1714C315.93 10.3581 316.57 9.72474 317.384 9.27141C318.197 8.81807 319.11 8.59141 320.124 8.59141C321.137 8.59141 322.05 8.81807 322.864 9.27141C323.677 9.72474 324.31 10.3581 324.764 11.1714C325.23 11.9847 325.464 12.9047 325.464 13.9314C325.464 14.9581 325.23 15.8781 324.764 16.6914C324.31 17.5047 323.677 18.1447 322.864 18.6114C322.05 19.0647 321.137 19.2914 320.124 19.2914ZM320.124 18.0314C320.87 18.0314 321.537 17.8647 322.124 17.5314C322.724 17.1847 323.19 16.6981 323.524 16.0714C323.857 15.4447 324.024 14.7314 324.024 13.9314C324.024 13.1314 323.857 12.4181 323.524 11.7914C323.19 11.1647 322.724 10.6847 322.124 10.3514C321.537 10.0047 320.87 9.83141 320.124 9.83141C319.377 9.83141 318.704 10.0047 318.104 10.3514C317.517 10.6847 317.05 11.1647 316.704 11.7914C316.37 12.4181 316.204 13.1314 316.204 13.9314C316.204 14.7314 316.37 15.4447 316.704 16.0714C317.05 16.6981 317.517 17.1847 318.104 17.5314C318.704 17.8647 319.377 18.0314 320.124 18.0314ZM337.843 8.67141V19.1914H336.483V17.2714C336.109 17.9114 335.596 18.4114 334.943 18.7714C334.289 19.1181 333.543 19.2914 332.703 19.2914C331.329 19.2914 330.243 18.9114 329.443 18.1514C328.656 17.3781 328.263 16.2514 328.263 14.7714V8.67141H329.683V14.6314C329.683 15.7381 329.956 16.5781 330.503 17.1514C331.049 17.7247 331.829 18.0114 332.843 18.0114C333.949 18.0114 334.823 17.6781 335.463 17.0114C336.103 16.3314 336.423 15.3914 336.423 14.1914V8.67141H337.843ZM356.534 8.67141V19.1914H355.174V17.2714C354.801 17.9114 354.288 18.4114 353.634 18.7714C352.981 19.1181 352.234 19.2914 351.394 19.2914C350.021 19.2914 348.934 18.9114 348.134 18.1514C347.348 17.3781 346.954 16.2514 346.954 14.7714V8.67141H348.374V14.6314C348.374 15.7381 348.648 16.5781 349.194 17.1514C349.741 17.7247 350.521 18.0114 351.534 18.0114C352.641 18.0114 353.514 17.6781 354.154 17.0114C354.794 16.3314 355.114 15.3914 355.114 14.1914V8.67141H356.534ZM363.331 19.2914C362.478 19.2914 361.658 19.1714 360.871 18.9314C360.098 18.6781 359.491 18.3647 359.051 17.9914L359.691 16.8714C360.131 17.2181 360.685 17.5047 361.351 17.7314C362.018 17.9447 362.711 18.0514 363.431 18.0514C364.391 18.0514 365.098 17.9047 365.551 17.6114C366.018 17.3047 366.251 16.8781 366.251 16.3314C366.251 15.9447 366.125 15.6447 365.871 15.4314C365.618 15.2047 365.298 15.0381 364.911 14.9314C364.525 14.8114 364.011 14.6981 363.371 14.5914C362.518 14.4314 361.831 14.2714 361.311 14.1114C360.791 13.9381 360.345 13.6514 359.971 13.2514C359.611 12.8514 359.431 12.2981 359.431 11.5914C359.431 10.7114 359.798 9.99141 360.531 9.43141C361.265 8.87141 362.285 8.59141 363.591 8.59141C364.271 8.59141 364.951 8.68474 365.631 8.87141C366.311 9.04474 366.871 9.27807 367.311 9.57141L366.691 10.7114C365.825 10.1114 364.791 9.81141 363.591 9.81141C362.685 9.81141 361.998 9.97141 361.531 10.2914C361.078 10.6114 360.851 11.0314 360.851 11.5514C360.851 11.9514 360.978 12.2714 361.231 12.5114C361.498 12.7514 361.825 12.9314 362.211 13.0514C362.598 13.1581 363.131 13.2714 363.811 13.3914C364.651 13.5514 365.325 13.7114 365.831 13.8714C366.338 14.0314 366.771 14.3047 367.131 14.6914C367.491 15.0781 367.671 15.6114 367.671 16.2914C367.671 17.2114 367.285 17.9447 366.511 18.4914C365.751 19.0247 364.691 19.2914 363.331 19.2914ZM379.776 8.67141V19.1914H378.416V17.2714C378.043 17.9114 377.53 18.4114 376.876 18.7714C376.223 19.1181 375.476 19.2914 374.636 19.2914C373.263 19.2914 372.176 18.9114 371.376 18.1514C370.59 17.3781 370.196 16.2514 370.196 14.7714V8.67141H371.616V14.6314C371.616 15.7381 371.89 16.5781 372.436 17.1514C372.983 17.7247 373.763 18.0114 374.776 18.0114C375.883 18.0114 376.756 17.6781 377.396 17.0114C378.036 16.3314 378.356 15.3914 378.356 14.1914V8.67141H379.776ZM387.433 8.59141C388.807 8.59141 389.86 8.93807 390.593 9.63141C391.327 10.3114 391.693 11.3247 391.693 12.6714V19.1914H390.333V17.5514C390.013 18.0981 389.54 18.5247 388.913 18.8314C388.3 19.1381 387.567 19.2914 386.713 19.2914C385.54 19.2914 384.607 19.0114 383.913 18.4514C383.22 17.8914 382.873 17.1514 382.873 16.2314C382.873 15.3381 383.193 14.6181 383.833 14.0714C384.487 13.5247 385.52 13.2514 386.933 13.2514H390.273V12.6114C390.273 11.7047 390.02 11.0181 389.513 10.5514C389.007 10.0714 388.267 9.83141 387.293 9.83141C386.627 9.83141 385.987 9.94474 385.373 10.1714C384.76 10.3847 384.233 10.6847 383.793 11.0714L383.153 10.0114C383.687 9.55807 384.327 9.21141 385.073 8.97141C385.82 8.71807 386.607 8.59141 387.433 8.59141ZM386.933 18.1714C387.733 18.1714 388.42 17.9914 388.993 17.6314C389.567 17.2581 389.993 16.7247 390.273 16.0314V14.3114H386.973C385.173 14.3114 384.273 14.9381 384.273 16.1914C384.273 16.8047 384.507 17.2914 384.973 17.6514C385.44 17.9981 386.093 18.1714 386.933 18.1714ZM395.55 4.35141H396.97V19.1914H395.55V4.35141ZM400.921 4.35141H402.341V19.1914H400.921V4.35141ZM415.133 8.67141L409.873 20.4514C409.446 21.4381 408.953 22.1381 408.393 22.5514C407.833 22.9647 407.159 23.1714 406.373 23.1714C405.866 23.1714 405.393 23.0914 404.953 22.9314C404.513 22.7714 404.132 22.5314 403.812 22.2114L404.473 21.1514C405.006 21.6847 405.646 21.9514 406.393 21.9514C406.873 21.9514 407.279 21.8181 407.613 21.5514C407.959 21.2847 408.279 20.8314 408.573 20.1914L409.033 19.1714L404.333 8.67141H405.813L409.773 17.6114L413.733 8.67141H415.133ZM432.107 8.67141V17.9114C432.107 19.6981 431.667 21.0181 430.787 21.8714C429.92 22.7381 428.607 23.1714 426.847 23.1714C425.873 23.1714 424.947 23.0247 424.067 22.7314C423.2 22.4514 422.493 22.0581 421.947 21.5514L422.667 20.4714C423.173 20.9247 423.787 21.2781 424.507 21.5314C425.24 21.7847 426.007 21.9114 426.807 21.9114C428.14 21.9114 429.12 21.5981 429.747 20.9714C430.373 20.3581 430.687 19.3981 430.687 18.0914V16.7514C430.247 17.4181 429.667 17.9247 428.947 18.2714C428.24 18.6181 427.453 18.7914 426.587 18.7914C425.6 18.7914 424.7 18.5781 423.887 18.1514C423.087 17.7114 422.453 17.1047 421.987 16.3314C421.533 15.5447 421.307 14.6581 421.307 13.6714C421.307 12.6847 421.533 11.8047 421.987 11.0314C422.453 10.2581 423.087 9.65807 423.887 9.23141C424.687 8.80474 425.587 8.59141 426.587 8.59141C427.48 8.59141 428.287 8.77141 429.007 9.13141C429.727 9.49141 430.307 10.0114 430.747 10.6914V8.67141H432.107ZM426.727 17.5314C427.487 17.5314 428.173 17.3714 428.787 17.0514C429.4 16.7181 429.873 16.2581 430.207 15.6714C430.553 15.0847 430.727 14.4181 430.727 13.6714C430.727 12.9247 430.553 12.2647 430.207 11.6914C429.873 11.1047 429.4 10.6514 428.787 10.3314C428.187 9.99807 427.5 9.83141 426.727 9.83141C425.967 9.83141 425.28 9.99141 424.667 10.3114C424.067 10.6314 423.593 11.0847 423.247 11.6714C422.913 12.2581 422.747 12.9247 422.747 13.6714C422.747 14.4181 422.913 15.0847 423.247 15.6714C423.593 16.2581 424.067 16.7181 424.667 17.0514C425.28 17.3714 425.967 17.5314 426.727 17.5314ZM445.238 14.3714H436.438C436.518 15.4647 436.938 16.3514 437.698 17.0314C438.458 17.6981 439.418 18.0314 440.578 18.0314C441.231 18.0314 441.831 17.9181 442.378 17.6914C442.924 17.4514 443.398 17.1047 443.798 16.6514L444.598 17.5714C444.131 18.1314 443.544 18.5581 442.838 18.8514C442.144 19.1447 441.378 19.2914 440.538 19.2914C439.458 19.2914 438.498 19.0647 437.658 18.6114C436.831 18.1447 436.184 17.5047 435.718 16.6914C435.251 15.8781 435.018 14.9581 435.018 13.9314C435.018 12.9047 435.238 11.9847 435.678 11.1714C436.131 10.3581 436.744 9.72474 437.518 9.27141C438.304 8.81807 439.184 8.59141 440.158 8.59141C441.131 8.59141 442.004 8.81807 442.778 9.27141C443.551 9.72474 444.158 10.3581 444.598 11.1714C445.038 11.9714 445.258 12.8914 445.258 13.9314L445.238 14.3714ZM440.158 9.81141C439.144 9.81141 438.291 10.1381 437.598 10.7914C436.918 11.4314 436.531 12.2714 436.438 13.3114H443.898C443.804 12.2714 443.411 11.4314 442.718 10.7914C442.038 10.1381 441.184 9.81141 440.158 9.81141ZM453.688 18.5514C453.421 18.7914 453.088 18.9781 452.688 19.1114C452.301 19.2314 451.895 19.2914 451.468 19.2914C450.481 19.2914 449.721 19.0247 449.188 18.4914C448.655 17.9581 448.388 17.2047 448.388 16.2314V9.87141H446.508V8.67141H448.388V6.37141H449.808V8.67141H453.008V9.87141H449.808V16.1514C449.808 16.7781 449.961 17.2581 450.268 17.5914C450.588 17.9114 451.041 18.0714 451.628 18.0714C451.921 18.0714 452.201 18.0247 452.468 17.9314C452.748 17.8381 452.988 17.7047 453.188 17.5314L453.688 18.5514ZM471.247 8.67141V17.9114C471.247 19.6981 470.807 21.0181 469.927 21.8714C469.061 22.7381 467.747 23.1714 465.987 23.1714C465.014 23.1714 464.087 23.0247 463.207 22.7314C462.341 22.4514 461.634 22.0581 461.087 21.5514L461.807 20.4714C462.314 20.9247 462.927 21.2781 463.647 21.5314C464.381 21.7847 465.147 21.9114 465.947 21.9114C467.281 21.9114 468.261 21.5981 468.887 20.9714C469.514 20.3581 469.827 19.3981 469.827 18.0914V16.7514C469.387 17.4181 468.807 17.9247 468.087 18.2714C467.381 18.6181 466.594 18.7914 465.727 18.7914C464.741 18.7914 463.841 18.5781 463.027 18.1514C462.227 17.7114 461.594 17.1047 461.127 16.3314C460.674 15.5447 460.447 14.6581 460.447 13.6714C460.447 12.6847 460.674 11.8047 461.127 11.0314C461.594 10.2581 462.227 9.65807 463.027 9.23141C463.827 8.80474 464.727 8.59141 465.727 8.59141C466.621 8.59141 467.427 8.77141 468.147 9.13141C468.867 9.49141 469.447 10.0114 469.887 10.6914V8.67141H471.247ZM465.867 17.5314C466.627 17.5314 467.314 17.3714 467.927 17.0514C468.541 16.7181 469.014 16.2581 469.347 15.6714C469.694 15.0847 469.867 14.4181 469.867 13.6714C469.867 12.9247 469.694 12.2647 469.347 11.6914C469.014 11.1047 468.541 10.6514 467.927 10.3314C467.327 9.99807 466.641 9.83141 465.867 9.83141C465.107 9.83141 464.421 9.99141 463.807 10.3114C463.207 10.6314 462.734 11.0847 462.387 11.6714C462.054 12.2581 461.887 12.9247 461.887 13.6714C461.887 14.4181 462.054 15.0847 462.387 15.6714C462.734 16.2581 463.207 16.7181 463.807 17.0514C464.421 17.3714 465.107 17.5314 465.867 17.5314ZM475.218 8.67141H476.638V19.1914H475.218V8.67141ZM475.938 6.37141C475.645 6.37141 475.398 6.27141 475.198 6.07141C474.998 5.87141 474.898 5.63141 474.898 5.35141C474.898 5.08474 474.998 4.85141 475.198 4.65141C475.398 4.45141 475.645 4.35141 475.938 4.35141C476.232 4.35141 476.478 4.45141 476.678 4.65141C476.878 4.83807 476.978 5.06474 476.978 5.33141C476.978 5.62474 476.878 5.87141 476.678 6.07141C476.478 6.27141 476.232 6.37141 475.938 6.37141ZM484.069 5.45141C483.456 5.45141 482.989 5.61807 482.669 5.95141C482.363 6.28474 482.209 6.77807 482.209 7.43141V8.67141H485.449V9.87141H482.249V19.1914H480.829V9.87141H478.949V8.67141H480.829V7.37141C480.829 6.41141 481.103 5.65141 481.649 5.09141C482.209 4.53141 482.996 4.25141 484.009 4.25141C484.409 4.25141 484.796 4.31141 485.169 4.43141C485.543 4.53807 485.856 4.69807 486.109 4.91141L485.629 5.97141C485.216 5.62474 484.696 5.45141 484.069 5.45141ZM492.907 18.5514C492.64 18.7914 492.307 18.9781 491.907 19.1114C491.52 19.2314 491.113 19.2914 490.687 19.2914C489.7 19.2914 488.94 19.0247 488.407 18.4914C487.873 17.9581 487.607 17.2047 487.607 16.2314V9.87141H485.727V8.67141H487.607V6.37141H489.027V8.67141H492.227V9.87141H489.027V16.1514C489.027 16.7781 489.18 17.2581 489.487 17.5914C489.807 17.9114 490.26 18.0714 490.847 18.0714C491.14 18.0714 491.42 18.0247 491.687 17.9314C491.967 17.8381 492.207 17.7047 492.407 17.5314L492.907 18.5514ZM495.492 8.67141H496.912V19.1914H495.492V8.67141ZM496.212 6.37141C495.918 6.37141 495.672 6.27141 495.472 6.07141C495.272 5.87141 495.172 5.63141 495.172 5.35141C495.172 5.08474 495.272 4.85141 495.472 4.65141C495.672 4.45141 495.918 4.35141 496.212 4.35141C496.505 4.35141 496.752 4.45141 496.952 4.65141C497.152 4.83807 497.252 5.06474 497.252 5.33141C497.252 5.62474 497.152 5.87141 496.952 6.07141C496.752 6.27141 496.505 6.37141 496.212 6.37141ZM506.223 8.59141C507.543 8.59141 508.589 8.97807 509.363 9.75141C510.149 10.5114 510.543 11.6247 510.543 13.0914V19.1914H509.123V13.2314C509.123 12.1381 508.849 11.3047 508.303 10.7314C507.756 10.1581 506.976 9.87141 505.963 9.87141C504.829 9.87141 503.929 10.2114 503.263 10.8914C502.609 11.5581 502.283 12.4847 502.283 13.6714V19.1914H500.863V8.67141H502.223V10.6114C502.609 9.97141 503.143 9.47807 503.823 9.13141C504.516 8.77141 505.316 8.59141 506.223 8.59141ZM524.177 8.67141V17.9114C524.177 19.6981 523.737 21.0181 522.857 21.8714C521.99 22.7381 520.677 23.1714 518.917 23.1714C517.944 23.1714 517.017 23.0247 516.137 22.7314C515.27 22.4514 514.564 22.0581 514.017 21.5514L514.737 20.4714C515.244 20.9247 515.857 21.2781 516.577 21.5314C517.31 21.7847 518.077 21.9114 518.877 21.9114C520.21 21.9114 521.19 21.5981 521.817 20.9714C522.444 20.3581 522.757 19.3981 522.757 18.0914V16.7514C522.317 17.4181 521.737 17.9247 521.017 18.2714C520.31 18.6181 519.524 18.7914 518.657 18.7914C517.67 18.7914 516.77 18.5781 515.957 18.1514C515.157 17.7114 514.524 17.1047 514.057 16.3314C513.604 15.5447 513.377 14.6581 513.377 13.6714C513.377 12.6847 513.604 11.8047 514.057 11.0314C514.524 10.2581 515.157 9.65807 515.957 9.23141C516.757 8.80474 517.657 8.59141 518.657 8.59141C519.55 8.59141 520.357 8.77141 521.077 9.13141C521.797 9.49141 522.377 10.0114 522.817 10.6914V8.67141H524.177ZM518.797 17.5314C519.557 17.5314 520.244 17.3714 520.857 17.0514C521.47 16.7181 521.944 16.2581 522.277 15.6714C522.624 15.0847 522.797 14.4181 522.797 13.6714C522.797 12.9247 522.624 12.2647 522.277 11.6914C521.944 11.1047 521.47 10.6514 520.857 10.3314C520.257 9.99807 519.57 9.83141 518.797 9.83141C518.037 9.83141 517.35 9.99141 516.737 10.3114C516.137 10.6314 515.664 11.0847 515.317 11.6714C514.984 12.2581 514.817 12.9247 514.817 13.6714C514.817 14.4181 514.984 15.0847 515.317 15.6714C515.664 16.2581 516.137 16.7181 516.737 17.0514C517.35 17.3714 518.037 17.5314 518.797 17.5314ZM275.34 43.2914C274.3 43.2914 273.367 43.0647 272.54 42.6114C271.727 42.1581 271.087 41.5247 270.62 40.7114C270.153 39.8847 269.92 38.9581 269.92 37.9314C269.92 36.9047 270.153 35.9847 270.62 35.1714C271.087 34.3581 271.727 33.7247 272.54 33.2714C273.367 32.8181 274.3 32.5914 275.34 32.5914C276.247 32.5914 277.053 32.7714 277.76 33.1314C278.48 33.4781 279.047 33.9914 279.46 34.6714L278.4 35.3914C278.053 34.8714 277.613 34.4847 277.08 34.2314C276.547 33.9647 275.967 33.8314 275.34 33.8314C274.58 33.8314 273.893 34.0047 273.28 34.3514C272.68 34.6847 272.207 35.1647 271.86 35.7914C271.527 36.4181 271.36 37.1314 271.36 37.9314C271.36 38.7447 271.527 39.4647 271.86 40.0914C272.207 40.7047 272.68 41.1847 273.28 41.5314C273.893 41.8647 274.58 42.0314 275.34 42.0314C275.967 42.0314 276.547 41.9047 277.08 41.6514C277.613 41.3981 278.053 41.0114 278.4 40.4914L279.46 41.2114C279.047 41.8914 278.48 42.4114 277.76 42.7714C277.04 43.1181 276.233 43.2914 275.34 43.2914ZM285.93 32.5914C287.303 32.5914 288.356 32.9381 289.09 33.6314C289.823 34.3114 290.19 35.3247 290.19 36.6714V43.1914H288.83V41.5514C288.51 42.0981 288.036 42.5247 287.41 42.8314C286.796 43.1381 286.063 43.2914 285.21 43.2914C284.036 43.2914 283.103 43.0114 282.41 42.4514C281.716 41.8914 281.37 41.1514 281.37 40.2314C281.37 39.3381 281.69 38.6181 282.33 38.0714C282.983 37.5247 284.016 37.2514 285.43 37.2514H288.77V36.6114C288.77 35.7047 288.516 35.0181 288.01 34.5514C287.503 34.0714 286.763 33.8314 285.79 33.8314C285.123 33.8314 284.483 33.9447 283.87 34.1714C283.256 34.3847 282.73 34.6847 282.29 35.0714L281.65 34.0114C282.183 33.5581 282.823 33.2114 283.57 32.9714C284.316 32.7181 285.103 32.5914 285.93 32.5914ZM285.43 42.1714C286.23 42.1714 286.916 41.9914 287.49 41.6314C288.063 41.2581 288.49 40.7247 288.77 40.0314V38.3114H285.47C283.67 38.3114 282.77 38.9381 282.77 40.1914C282.77 40.8047 283.003 41.2914 283.47 41.6514C283.936 41.9981 284.59 42.1714 285.43 42.1714ZM295.406 34.7314C295.74 34.0247 296.233 33.4914 296.886 33.1314C297.553 32.7714 298.373 32.5914 299.346 32.5914V33.9714L299.006 33.9514C297.9 33.9514 297.033 34.2914 296.406 34.9714C295.78 35.6514 295.466 36.6047 295.466 37.8314V43.1914H294.046V32.6714H295.406V34.7314ZM311.42 28.3514V43.1914H310.06V41.1114C309.633 41.8181 309.067 42.3581 308.36 42.7314C307.667 43.1047 306.88 43.2914 306 43.2914C305.013 43.2914 304.12 43.0647 303.32 42.6114C302.52 42.1581 301.893 41.5247 301.44 40.7114C300.987 39.8981 300.76 38.9714 300.76 37.9314C300.76 36.8914 300.987 35.9647 301.44 35.1514C301.893 34.3381 302.52 33.7114 303.32 33.2714C304.12 32.8181 305.013 32.5914 306 32.5914C306.853 32.5914 307.62 32.7714 308.3 33.1314C308.993 33.4781 309.56 33.9914 310 34.6714V28.3514H311.42ZM306.12 42.0314C306.853 42.0314 307.513 41.8647 308.1 41.5314C308.7 41.1847 309.167 40.6981 309.5 40.0714C309.847 39.4447 310.02 38.7314 310.02 37.9314C310.02 37.1314 309.847 36.4181 309.5 35.7914C309.167 35.1647 308.7 34.6847 308.1 34.3514C307.513 34.0047 306.853 33.8314 306.12 33.8314C305.373 33.8314 304.7 34.0047 304.1 34.3514C303.513 34.6847 303.047 35.1647 302.7 35.7914C302.367 36.4181 302.2 37.1314 302.2 37.9314C302.2 38.7314 302.367 39.4447 302.7 40.0714C303.047 40.6981 303.513 41.1847 304.1 41.5314C304.7 41.8647 305.373 42.0314 306.12 42.0314ZM318.195 43.2914C317.341 43.2914 316.521 43.1714 315.735 42.9314C314.961 42.6781 314.355 42.3647 313.915 41.9914L314.555 40.8714C314.995 41.2181 315.548 41.5047 316.215 41.7314C316.881 41.9447 317.575 42.0514 318.295 42.0514C319.255 42.0514 319.961 41.9047 320.415 41.6114C320.881 41.3047 321.115 40.8781 321.115 40.3314C321.115 39.9447 320.988 39.6447 320.735 39.4314C320.481 39.2047 320.161 39.0381 319.775 38.9314C319.388 38.8114 318.875 38.6981 318.235 38.5914C317.381 38.4314 316.695 38.2714 316.175 38.1114C315.655 37.9381 315.208 37.6514 314.835 37.2514C314.475 36.8514 314.295 36.2981 314.295 35.5914C314.295 34.7114 314.661 33.9914 315.395 33.4314C316.128 32.8714 317.148 32.5914 318.455 32.5914C319.135 32.5914 319.815 32.6847 320.495 32.8714C321.175 33.0447 321.735 33.2781 322.175 33.5714L321.555 34.7114C320.688 34.1114 319.655 33.8114 318.455 33.8114C317.548 33.8114 316.861 33.9714 316.395 34.2914C315.941 34.6114 315.715 35.0314 315.715 35.5514C315.715 35.9514 315.841 36.2714 316.095 36.5114C316.361 36.7514 316.688 36.9314 317.075 37.0514C317.461 37.1581 317.995 37.2714 318.675 37.3914C319.515 37.5514 320.188 37.7114 320.695 37.8714C321.201 38.0314 321.635 38.3047 321.995 38.6914C322.355 39.0781 322.535 39.6114 322.535 40.2914C322.535 41.2114 322.148 41.9447 321.375 42.4914C320.615 43.0247 319.555 43.2914 318.195 43.2914ZM345.834 32.6714L341.854 43.1914H340.514L337.194 34.5714L333.874 43.1914H332.534L328.574 32.6714H329.934L333.234 41.6114L336.614 32.6714H337.834L341.194 41.6114L344.534 32.6714H345.834ZM353.332 32.5914C354.652 32.5914 355.699 32.9781 356.472 33.7514C357.259 34.5114 357.652 35.6247 357.652 37.0914V43.1914H356.232V37.2314C356.232 36.1381 355.959 35.3047 355.412 34.7314C354.866 34.1581 354.086 33.8714 353.072 33.8714C351.939 33.8714 351.039 34.2114 350.372 34.8914C349.719 35.5581 349.392 36.4847 349.392 37.6714V43.1914H347.972V28.3514H349.392V34.5114C349.779 33.8981 350.312 33.4247 350.992 33.0914C351.672 32.7581 352.452 32.5914 353.332 32.5914ZM361.507 32.6714H362.927V43.1914H361.507V32.6714ZM362.227 30.3714C361.934 30.3714 361.687 30.2714 361.487 30.0714C361.287 29.8714 361.187 29.6314 361.187 29.3514C361.187 29.0847 361.287 28.8514 361.487 28.6514C361.687 28.4514 361.934 28.3514 362.227 28.3514C362.521 28.3514 362.767 28.4514 362.967 28.6514C363.167 28.8381 363.267 29.0647 363.267 29.3314C363.267 29.6247 363.167 29.8714 362.967 30.0714C362.767 30.2714 362.521 30.3714 362.227 30.3714ZM366.878 28.3514H368.298V43.1914H366.878V28.3514ZM381.41 38.3714H372.61C372.69 39.4647 373.11 40.3514 373.87 41.0314C374.63 41.6981 375.59 42.0314 376.75 42.0314C377.403 42.0314 378.003 41.9181 378.55 41.6914C379.096 41.4514 379.57 41.1047 379.97 40.6514L380.77 41.5714C380.303 42.1314 379.716 42.5581 379.01 42.8514C378.316 43.1447 377.55 43.2914 376.71 43.2914C375.63 43.2914 374.67 43.0647 373.83 42.6114C373.003 42.1447 372.356 41.5047 371.89 40.6914C371.423 39.8781 371.19 38.9581 371.19 37.9314C371.19 36.9047 371.41 35.9847 371.85 35.1714C372.303 34.3581 372.916 33.7247 373.69 33.2714C374.476 32.8181 375.356 32.5914 376.33 32.5914C377.303 32.5914 378.176 32.8181 378.95 33.2714C379.723 33.7247 380.33 34.3581 380.77 35.1714C381.21 35.9714 381.43 36.8914 381.43 37.9314L381.41 38.3714ZM376.33 33.8114C375.316 33.8114 374.463 34.1381 373.77 34.7914C373.09 35.4314 372.703 36.2714 372.61 37.3114H380.07C379.976 36.2714 379.583 35.4314 378.89 34.7914C378.21 34.1381 377.356 33.8114 376.33 33.8114ZM392.374 43.2914C391.521 43.2914 390.701 43.1714 389.914 42.9314C389.141 42.6781 388.534 42.3647 388.094 41.9914L388.734 40.8714C389.174 41.2181 389.728 41.5047 390.394 41.7314C391.061 41.9447 391.754 42.0514 392.474 42.0514C393.434 42.0514 394.141 41.9047 394.594 41.6114C395.061 41.3047 395.294 40.8781 395.294 40.3314C395.294 39.9447 395.168 39.6447 394.914 39.4314C394.661 39.2047 394.341 39.0381 393.954 38.9314C393.568 38.8114 393.054 38.6981 392.414 38.5914C391.561 38.4314 390.874 38.2714 390.354 38.1114C389.834 37.9381 389.388 37.6514 389.014 37.2514C388.654 36.8514 388.474 36.2981 388.474 35.5914C388.474 34.7114 388.841 33.9914 389.574 33.4314C390.308 32.8714 391.328 32.5914 392.634 32.5914C393.314 32.5914 393.994 32.6847 394.674 32.8714C395.354 33.0447 395.914 33.2781 396.354 33.5714L395.734 34.7114C394.868 34.1114 393.834 33.8114 392.634 33.8114C391.728 33.8114 391.041 33.9714 390.574 34.2914C390.121 34.6114 389.894 35.0314 389.894 35.5514C389.894 35.9514 390.021 36.2714 390.274 36.5114C390.541 36.7514 390.868 36.9314 391.254 37.0514C391.641 37.1581 392.174 37.2714 392.854 37.3914C393.694 37.5514 394.368 37.7114 394.874 37.8714C395.381 38.0314 395.814 38.3047 396.174 38.6914C396.534 39.0781 396.714 39.6114 396.714 40.2914C396.714 41.2114 396.328 41.9447 395.554 42.4914C394.794 43.0247 393.734 43.2914 392.374 43.2914ZM404.699 32.5914C406.019 32.5914 407.066 32.9781 407.839 33.7514C408.626 34.5114 409.019 35.6247 409.019 37.0914V43.1914H407.599V37.2314C407.599 36.1381 407.326 35.3047 406.779 34.7314C406.233 34.1581 405.453 33.8714 404.439 33.8714C403.306 33.8714 402.406 34.2114 401.739 34.8914C401.086 35.5581 400.759 36.4847 400.759 37.6714V43.1914H399.339V28.3514H400.759V34.5114C401.146 33.8981 401.679 33.4247 402.359 33.0914C403.039 32.7581 403.819 32.5914 404.699 32.5914ZM417.214 43.2914C416.2 43.2914 415.287 43.0647 414.474 42.6114C413.66 42.1447 413.02 41.5047 412.554 40.6914C412.087 39.8781 411.854 38.9581 411.854 37.9314C411.854 36.9047 412.087 35.9847 412.554 35.1714C413.02 34.3581 413.66 33.7247 414.474 33.2714C415.287 32.8181 416.2 32.5914 417.214 32.5914C418.227 32.5914 419.14 32.8181 419.954 33.2714C420.767 33.7247 421.4 34.3581 421.854 35.1714C422.32 35.9847 422.554 36.9047 422.554 37.9314C422.554 38.9581 422.32 39.8781 421.854 40.6914C421.4 41.5047 420.767 42.1447 419.954 42.6114C419.14 43.0647 418.227 43.2914 417.214 43.2914ZM417.214 42.0314C417.96 42.0314 418.627 41.8647 419.214 41.5314C419.814 41.1847 420.28 40.6981 420.614 40.0714C420.947 39.4447 421.114 38.7314 421.114 37.9314C421.114 37.1314 420.947 36.4181 420.614 35.7914C420.28 35.1647 419.814 34.6847 419.214 34.3514C418.627 34.0047 417.96 33.8314 417.214 33.8314C416.467 33.8314 415.794 34.0047 415.194 34.3514C414.607 34.6847 414.14 35.1647 413.794 35.7914C413.46 36.4181 413.294 37.1314 413.294 37.9314C413.294 38.7314 413.46 39.4447 413.794 40.0714C414.14 40.6981 414.607 41.1847 415.194 41.5314C415.794 41.8647 416.467 42.0314 417.214 42.0314ZM430.873 32.5914C431.859 32.5914 432.753 32.8181 433.553 33.2714C434.353 33.7114 434.979 34.3381 435.433 35.1514C435.886 35.9647 436.113 36.8914 436.113 37.9314C436.113 38.9847 435.886 39.9181 435.433 40.7314C434.979 41.5447 434.353 42.1781 433.553 42.6314C432.766 43.0714 431.873 43.2914 430.873 43.2914C430.019 43.2914 429.246 43.1181 428.553 42.7714C427.873 42.4114 427.313 41.8914 426.873 41.2114V47.0714H425.453V32.6714H426.813V34.7514C427.239 34.0581 427.799 33.5247 428.493 33.1514C429.199 32.7781 429.993 32.5914 430.873 32.5914ZM430.773 42.0314C431.506 42.0314 432.173 41.8647 432.773 41.5314C433.373 41.1847 433.839 40.6981 434.173 40.0714C434.519 39.4447 434.693 38.7314 434.693 37.9314C434.693 37.1314 434.519 36.4247 434.173 35.8114C433.839 35.1847 433.373 34.6981 432.773 34.3514C432.173 34.0047 431.506 33.8314 430.773 33.8314C430.026 33.8314 429.353 34.0047 428.753 34.3514C428.166 34.6981 427.699 35.1847 427.353 35.8114C427.019 36.4247 426.853 37.1314 426.853 37.9314C426.853 38.7314 427.019 39.4447 427.353 40.0714C427.699 40.6981 428.166 41.1847 428.753 41.5314C429.353 41.8647 430.026 42.0314 430.773 42.0314ZM444.427 32.5914C445.414 32.5914 446.307 32.8181 447.107 33.2714C447.907 33.7114 448.534 34.3381 448.987 35.1514C449.441 35.9647 449.667 36.8914 449.667 37.9314C449.667 38.9847 449.441 39.9181 448.987 40.7314C448.534 41.5447 447.907 42.1781 447.107 42.6314C446.321 43.0714 445.427 43.2914 444.427 43.2914C443.574 43.2914 442.801 43.1181 442.107 42.7714C441.427 42.4114 440.867 41.8914 440.427 41.2114V47.0714H439.007V32.6714H440.367V34.7514C440.794 34.0581 441.354 33.5247 442.047 33.1514C442.754 32.7781 443.547 32.5914 444.427 32.5914ZM444.327 42.0314C445.061 42.0314 445.727 41.8647 446.327 41.5314C446.927 41.1847 447.394 40.6981 447.727 40.0714C448.074 39.4447 448.247 38.7314 448.247 37.9314C448.247 37.1314 448.074 36.4247 447.727 35.8114C447.394 35.1847 446.927 34.6981 446.327 34.3514C445.727 34.0047 445.061 33.8314 444.327 33.8314C443.581 33.8314 442.907 34.0047 442.307 34.3514C441.721 34.6981 441.254 35.1847 440.907 35.8114C440.574 36.4247 440.407 37.1314 440.407 37.9314C440.407 38.7314 440.574 39.4447 440.907 40.0714C441.254 40.6981 441.721 41.1847 442.307 41.5314C442.907 41.8647 443.581 42.0314 444.327 42.0314ZM452.562 32.6714H453.982V43.1914H452.562V32.6714ZM453.282 30.3714C452.989 30.3714 452.742 30.2714 452.542 30.0714C452.342 29.8714 452.242 29.6314 452.242 29.3514C452.242 29.0847 452.342 28.8514 452.542 28.6514C452.742 28.4514 452.989 28.3514 453.282 28.3514C453.575 28.3514 453.822 28.4514 454.022 28.6514C454.222 28.8381 454.322 29.0647 454.322 29.3314C454.322 29.6247 454.222 29.8714 454.022 30.0714C453.822 30.2714 453.575 30.3714 453.282 30.3714ZM463.293 32.5914C464.613 32.5914 465.66 32.9781 466.433 33.7514C467.22 34.5114 467.613 35.6247 467.613 37.0914V43.1914H466.193V37.2314C466.193 36.1381 465.92 35.3047 465.373 34.7314C464.826 34.1581 464.046 33.8714 463.033 33.8714C461.9 33.8714 461 34.2114 460.333 34.8914C459.68 35.5581 459.353 36.4847 459.353 37.6714V43.1914H457.933V32.6714H459.293V34.6114C459.68 33.9714 460.213 33.4781 460.893 33.1314C461.586 32.7714 462.386 32.5914 463.293 32.5914ZM481.247 32.6714V41.9114C481.247 43.6981 480.807 45.0181 479.927 45.8714C479.061 46.7381 477.747 47.1714 475.987 47.1714C475.014 47.1714 474.087 47.0247 473.207 46.7314C472.341 46.4514 471.634 46.0581 471.087 45.5514L471.807 44.4714C472.314 44.9247 472.927 45.2781 473.647 45.5314C474.381 45.7847 475.147 45.9114 475.947 45.9114C477.281 45.9114 478.261 45.5981 478.887 44.9714C479.514 44.3581 479.827 43.3981 479.827 42.0914V40.7514C479.387 41.4181 478.807 41.9247 478.087 42.2714C477.381 42.6181 476.594 42.7914 475.727 42.7914C474.741 42.7914 473.841 42.5781 473.027 42.1514C472.227 41.7114 471.594 41.1047 471.127 40.3314C470.674 39.5447 470.447 38.6581 470.447 37.6714C470.447 36.6847 470.674 35.8047 471.127 35.0314C471.594 34.2581 472.227 33.6581 473.027 33.2314C473.827 32.8047 474.727 32.5914 475.727 32.5914C476.621 32.5914 477.427 32.7714 478.147 33.1314C478.867 33.4914 479.447 34.0114 479.887 34.6914V32.6714H481.247ZM475.867 41.5314C476.627 41.5314 477.314 41.3714 477.927 41.0514C478.541 40.7181 479.014 40.2581 479.347 39.6714C479.694 39.0847 479.867 38.4181 479.867 37.6714C479.867 36.9247 479.694 36.2647 479.347 35.6914C479.014 35.1047 478.541 34.6514 477.927 34.3314C477.327 33.9981 476.641 33.8314 475.867 33.8314C475.107 33.8314 474.421 33.9914 473.807 34.3114C473.207 34.6314 472.734 35.0847 472.387 35.6714C472.054 36.2581 471.887 36.9247 471.887 37.6714C471.887 38.4181 472.054 39.0847 472.387 39.6714C472.734 40.2581 473.207 40.7181 473.807 41.0514C474.421 41.3714 475.107 41.5314 475.867 41.5314ZM493.933 29.4514C493.319 29.4514 492.853 29.6181 492.533 29.9514C492.226 30.2847 492.073 30.7781 492.073 31.4314V32.6714H495.313V33.8714H492.113V43.1914H490.693V33.8714H488.813V32.6714H490.693V31.3714C490.693 30.4114 490.966 29.6514 491.513 29.0914C492.073 28.5314 492.859 28.2514 493.873 28.2514C494.273 28.2514 494.659 28.3114 495.033 28.4314C495.406 28.5381 495.719 28.6981 495.973 28.9114L495.493 29.9714C495.079 29.6247 494.559 29.4514 493.933 29.4514ZM501.354 43.2914C500.341 43.2914 499.428 43.0647 498.614 42.6114C497.801 42.1447 497.161 41.5047 496.694 40.6914C496.228 39.8781 495.994 38.9581 495.994 37.9314C495.994 36.9047 496.228 35.9847 496.694 35.1714C497.161 34.3581 497.801 33.7247 498.614 33.2714C499.428 32.8181 500.341 32.5914 501.354 32.5914C502.368 32.5914 503.281 32.8181 504.094 33.2714C504.908 33.7247 505.541 34.3581 505.994 35.1714C506.461 35.9847 506.694 36.9047 506.694 37.9314C506.694 38.9581 506.461 39.8781 505.994 40.6914C505.541 41.5047 504.908 42.1447 504.094 42.6114C503.281 43.0647 502.368 43.2914 501.354 43.2914ZM501.354 42.0314C502.101 42.0314 502.768 41.8647 503.354 41.5314C503.954 41.1847 504.421 40.6981 504.754 40.0714C505.088 39.4447 505.254 38.7314 505.254 37.9314C505.254 37.1314 505.088 36.4181 504.754 35.7914C504.421 35.1647 503.954 34.6847 503.354 34.3514C502.768 34.0047 502.101 33.8314 501.354 33.8314C500.608 33.8314 499.934 34.0047 499.334 34.3514C498.748 34.6847 498.281 35.1647 497.934 35.7914C497.601 36.4181 497.434 37.1314 497.434 37.9314C497.434 38.7314 497.601 39.4447 497.934 40.0714C498.281 40.6981 498.748 41.1847 499.334 41.5314C499.934 41.8647 500.608 42.0314 501.354 42.0314ZM510.953 34.7314C511.287 34.0247 511.78 33.4914 512.433 33.1314C513.1 32.7714 513.92 32.5914 514.893 32.5914V33.9714L514.553 33.9514C513.447 33.9514 512.58 34.2914 511.953 34.9714C511.327 35.6514 511.013 36.6047 511.013 37.8314V43.1914H509.593V32.6714H510.953V34.7314ZM280.72 56.6714V65.9114C280.72 67.6981 280.28 69.0181 279.4 69.8714C278.533 70.7381 277.22 71.1714 275.46 71.1714C274.487 71.1714 273.56 71.0247 272.68 70.7314C271.813 70.4514 271.107 70.0581 270.56 69.5514L271.28 68.4714C271.787 68.9247 272.4 69.2781 273.12 69.5314C273.853 69.7847 274.62 69.9114 275.42 69.9114C276.753 69.9114 277.733 69.5981 278.36 68.9714C278.987 68.3581 279.3 67.3981 279.3 66.0914V64.7514C278.86 65.4181 278.28 65.9247 277.56 66.2714C276.853 66.6181 276.067 66.7914 275.2 66.7914C274.213 66.7914 273.313 66.5781 272.5 66.1514C271.7 65.7114 271.067 65.1047 270.6 64.3314C270.147 63.5447 269.92 62.6581 269.92 61.6714C269.92 60.6847 270.147 59.8047 270.6 59.0314C271.067 58.2581 271.7 57.6581 272.5 57.2314C273.3 56.8047 274.2 56.5914 275.2 56.5914C276.093 56.5914 276.9 56.7714 277.62 57.1314C278.34 57.4914 278.92 58.0114 279.36 58.6914V56.6714H280.72ZM275.34 65.5314C276.1 65.5314 276.787 65.3714 277.4 65.0514C278.013 64.7181 278.487 64.2581 278.82 63.6714C279.167 63.0847 279.34 62.4181 279.34 61.6714C279.34 60.9247 279.167 60.2647 278.82 59.6914C278.487 59.1047 278.013 58.6514 277.4 58.3314C276.8 57.9981 276.113 57.8314 275.34 57.8314C274.58 57.8314 273.893 57.9914 273.28 58.3114C272.68 58.6314 272.207 59.0847 271.86 59.6714C271.527 60.2581 271.36 60.9247 271.36 61.6714C271.36 62.4181 271.527 63.0847 271.86 63.6714C272.207 64.2581 272.68 64.7181 273.28 65.0514C273.893 65.3714 274.58 65.5314 275.34 65.5314ZM284.691 56.6714H286.111V67.1914H284.691V56.6714ZM285.411 54.3714C285.118 54.3714 284.871 54.2714 284.671 54.0714C284.471 53.8714 284.371 53.6314 284.371 53.3514C284.371 53.0847 284.471 52.8514 284.671 52.6514C284.871 52.4514 285.118 52.3514 285.411 52.3514C285.704 52.3514 285.951 52.4514 286.151 52.6514C286.351 52.8381 286.451 53.0647 286.451 53.3314C286.451 53.6247 286.351 53.8714 286.151 54.0714C285.951 54.2714 285.704 54.3714 285.411 54.3714ZM293.542 53.4514C292.929 53.4514 292.462 53.6181 292.142 53.9514C291.835 54.2847 291.682 54.7781 291.682 55.4314V56.6714H294.922V57.8714H291.722V67.1914H290.302V57.8714H288.422V56.6714H290.302V55.3714C290.302 54.4114 290.575 53.6514 291.122 53.0914C291.682 52.5314 292.469 52.2514 293.482 52.2514C293.882 52.2514 294.269 52.3114 294.642 52.4314C295.015 52.5381 295.329 52.6981 295.582 52.9114L295.102 53.9714C294.689 53.6247 294.169 53.4514 293.542 53.4514ZM302.379 66.5514C302.113 66.7914 301.779 66.9781 301.379 67.1114C300.993 67.2314 300.586 67.2914 300.159 67.2914C299.173 67.2914 298.413 67.0247 297.879 66.4914C297.346 65.9581 297.079 65.2047 297.079 64.2314V57.8714H295.199V56.6714H297.079V54.3714H298.499V56.6714H301.699V57.8714H298.499V64.1514C298.499 64.7781 298.653 65.2581 298.959 65.5914C299.279 65.9114 299.733 66.0714 300.319 66.0714C300.613 66.0714 300.893 66.0247 301.159 65.9314C301.439 65.8381 301.679 65.7047 301.879 65.5314L302.379 66.5514ZM313.879 56.5914C315.252 56.5914 316.305 56.9381 317.039 57.6314C317.772 58.3114 318.139 59.3247 318.139 60.6714V67.1914H316.779V65.5514C316.459 66.0981 315.985 66.5247 315.359 66.8314C314.745 67.1381 314.012 67.2914 313.159 67.2914C311.985 67.2914 311.052 67.0114 310.359 66.4514C309.665 65.8914 309.319 65.1514 309.319 64.2314C309.319 63.3381 309.639 62.6181 310.279 62.0714C310.932 61.5247 311.965 61.2514 313.379 61.2514H316.719V60.6114C316.719 59.7047 316.465 59.0181 315.959 58.5514C315.452 58.0714 314.712 57.8314 313.739 57.8314C313.072 57.8314 312.432 57.9447 311.819 58.1714C311.205 58.3847 310.679 58.6847 310.239 59.0714L309.599 58.0114C310.132 57.5581 310.772 57.2114 311.519 56.9714C312.265 56.7181 313.052 56.5914 313.879 56.5914ZM313.379 66.1714C314.179 66.1714 314.865 65.9914 315.439 65.6314C316.012 65.2581 316.439 64.7247 316.719 64.0314V62.3114H313.419C311.619 62.3114 310.719 62.9381 310.719 64.1914C310.719 64.8047 310.952 65.2914 311.419 65.6514C311.885 65.9981 312.539 66.1714 313.379 66.1714ZM324.816 67.2914C323.962 67.2914 323.142 67.1714 322.356 66.9314C321.582 66.6781 320.976 66.3647 320.536 65.9914L321.176 64.8714C321.616 65.2181 322.169 65.5047 322.836 65.7314C323.502 65.9447 324.196 66.0514 324.916 66.0514C325.876 66.0514 326.582 65.9047 327.036 65.6114C327.502 65.3047 327.736 64.8781 327.736 64.3314C327.736 63.9447 327.609 63.6447 327.356 63.4314C327.102 63.2047 326.782 63.0381 326.396 62.9314C326.009 62.8114 325.496 62.6981 324.856 62.5914C324.002 62.4314 323.316 62.2714 322.796 62.1114C322.276 61.9381 321.829 61.6514 321.456 61.2514C321.096 60.8514 320.916 60.2981 320.916 59.5914C320.916 58.7114 321.282 57.9914 322.016 57.4314C322.749 56.8714 323.769 56.5914 325.076 56.5914C325.756 56.5914 326.436 56.6847 327.116 56.8714C327.796 57.0447 328.356 57.2781 328.796 57.5714L328.176 58.7114C327.309 58.1114 326.276 57.8114 325.076 57.8114C324.169 57.8114 323.482 57.9714 323.016 58.2914C322.562 58.6114 322.336 59.0314 322.336 59.5514C322.336 59.9514 322.462 60.2714 322.716 60.5114C322.982 60.7514 323.309 60.9314 323.696 61.0514C324.082 61.1581 324.616 61.2714 325.296 61.3914C326.136 61.5514 326.809 61.7114 327.316 61.8714C327.822 62.0314 328.256 62.3047 328.616 62.6914C328.976 63.0781 329.156 63.6114 329.156 64.2914C329.156 65.2114 328.769 65.9447 327.996 66.4914C327.236 67.0247 326.176 67.2914 324.816 67.2914ZM352.455 56.6714L348.475 67.1914H347.135L343.815 58.5714L340.495 67.1914H339.155L335.195 56.6714H336.555L339.855 65.6114L343.235 56.6714H344.455L347.815 65.6114L351.155 56.6714H352.455ZM363.46 62.3714H354.66C354.74 63.4647 355.16 64.3514 355.92 65.0314C356.68 65.6981 357.64 66.0314 358.8 66.0314C359.454 66.0314 360.054 65.9181 360.6 65.6914C361.147 65.4514 361.62 65.1047 362.02 64.6514L362.82 65.5714C362.354 66.1314 361.767 66.5581 361.06 66.8514C360.367 67.1447 359.6 67.2914 358.76 67.2914C357.68 67.2914 356.72 67.0647 355.88 66.6114C355.054 66.1447 354.407 65.5047 353.94 64.6914C353.474 63.8781 353.24 62.9581 353.24 61.9314C353.24 60.9047 353.46 59.9847 353.9 59.1714C354.354 58.3581 354.967 57.7247 355.74 57.2714C356.527 56.8181 357.407 56.5914 358.38 56.5914C359.354 56.5914 360.227 56.8181 361 57.2714C361.774 57.7247 362.38 58.3581 362.82 59.1714C363.26 59.9714 363.48 60.8914 363.48 61.9314L363.46 62.3714ZM358.38 57.8114C357.367 57.8114 356.514 58.1381 355.82 58.7914C355.14 59.4314 354.754 60.2714 354.66 61.3114H362.12C362.027 60.2714 361.634 59.4314 360.94 58.7914C360.26 58.1381 359.407 57.8114 358.38 57.8114ZM366.371 52.3514H367.791V67.1914H366.371V52.3514ZM371.742 52.3514H373.162V67.1914H371.742V52.3514ZM379.833 62.9914C379.833 62.4447 379.919 61.9647 380.093 61.5514C380.279 61.1381 380.506 60.7847 380.773 60.4914C381.039 60.1981 381.386 59.8647 381.813 59.4914C382.386 58.9847 382.806 58.5447 383.073 58.1714C383.353 57.7847 383.493 57.3181 383.493 56.7714C383.493 56.0381 383.206 55.4514 382.633 55.0114C382.059 54.5581 381.273 54.3314 380.273 54.3314C378.619 54.3314 377.346 54.8714 376.453 55.9514L375.393 55.1514C376.526 53.7647 378.186 53.0714 380.373 53.0714C381.773 53.0714 382.886 53.3847 383.713 54.0114C384.553 54.6381 384.973 55.4847 384.973 56.5514C384.973 57.0981 384.879 57.5847 384.693 58.0114C384.519 58.4247 384.299 58.7781 384.033 59.0714C383.779 59.3647 383.439 59.7047 383.013 60.0914C382.439 60.6114 382.013 61.0781 381.733 61.4914C381.453 61.8914 381.313 62.3914 381.313 62.9914H379.833ZM380.573 67.2914C380.279 67.2914 380.033 67.1914 379.833 66.9914C379.633 66.7781 379.533 66.5314 379.533 66.2514C379.533 65.9581 379.633 65.7181 379.833 65.5314C380.033 65.3314 380.279 65.2314 380.573 65.2314C380.879 65.2314 381.133 65.3314 381.333 65.5314C381.533 65.7181 381.633 65.9581 381.633 66.2514C381.633 66.5314 381.526 66.7781 381.313 66.9914C381.113 67.1914 380.866 67.2914 380.573 67.2914Z" fill="#4B4A51"/>
<path fill-rule="evenodd" clip-rule="evenodd" d="M231.396 154.42C239.386 129.061 238.609 101.75 229.192 76.8856L118.435 118.832L149.277 4.48381C123.606 -2.44011 96.3518 -0.524615 71.9017 9.92194C47.4516 20.3685 27.228 38.7384 14.486 62.0746C1.74414 85.4108 -2.77474 112.356 1.65684 138.572C6.08841 164.788 19.2126 188.751 38.9169 206.603C58.6211 224.454 83.7591 235.156 110.284 236.986C136.81 238.816 163.179 231.667 185.148 216.69C207.117 201.713 223.407 179.78 231.396 154.42Z" fill="#FFBDAE"/>
<path fill-rule="evenodd" clip-rule="evenodd" d="M197.971 30.6806C183.892 17.9206 166.951 8.73499 148.576 3.89941L118.434 118.434L229.464 77.2133C222.851 59.4007 212.049 43.4407 197.971 30.6806Z" fill="#6EA7C5"/>
<circle cx="118.035" cy="118.691" r="58.5" fill="white"/>
<circle cx="273.5" cy="129.691" r="4.5" fill="#6EA7C5"/>
<circle cx="273.5" cy="157.691" r="4.5" fill="#FFBDAE"/>
<path d="M50.1032 180.585C50.8232 180.861 51.3752 181.257 51.7592 181.773C52.1432 182.289 52.3352 182.907 52.3352 183.627C52.3352 184.383 52.1312 185.043 51.7232 185.607C51.3152 186.159 50.7332 186.585 49.9772 186.885C49.2212 187.185 48.3332 187.335 47.3132 187.335C46.3052 187.335 45.4232 187.185 44.6672 186.885C43.9232 186.585 43.3472 186.159 42.9392 185.607C42.5312 185.043 42.3272 184.383 42.3272 183.627C42.3272 182.907 42.5132 182.289 42.8852 181.773C43.2692 181.257 43.8212 180.861 44.5412 180.585C43.9652 180.309 43.5272 179.943 43.2272 179.487C42.9272 179.031 42.7772 178.491 42.7772 177.867C42.7772 177.171 42.9632 176.565 43.3352 176.049C43.7192 175.533 44.2532 175.137 44.9372 174.861C45.6212 174.585 46.4132 174.447 47.3132 174.447C48.2252 174.447 49.0232 174.585 49.7072 174.861C50.4032 175.137 50.9372 175.533 51.3092 176.049C51.6932 176.565 51.8852 177.171 51.8852 177.867C51.8852 178.479 51.7292 179.019 51.4172 179.487C51.1172 179.943 50.6792 180.309 50.1032 180.585ZM47.3132 175.905C46.4612 175.905 45.7892 176.091 45.2972 176.463C44.8052 176.823 44.5592 177.315 44.5592 177.939C44.5592 178.563 44.7992 179.055 45.2792 179.415C45.7712 179.775 46.4492 179.955 47.3132 179.955C48.1892 179.955 48.8732 179.775 49.3652 179.415C49.8692 179.055 50.1212 178.563 50.1212 177.939C50.1212 177.315 49.8632 176.823 49.3472 176.463C48.8432 176.091 48.1652 175.905 47.3132 175.905ZM47.3132 185.877C48.3092 185.877 49.0952 185.673 49.6712 185.265C50.2472 184.845 50.5352 184.281 50.5352 183.573C50.5352 182.877 50.2472 182.331 49.6712 181.935C49.0952 181.527 48.3092 181.323 47.3132 181.323C46.3172 181.323 45.5372 181.527 44.9732 181.935C44.4092 182.331 44.1272 182.877 44.1272 183.573C44.1272 184.281 44.4092 184.845 44.9732 185.265C45.5372 185.673 46.3172 185.877 47.3132 185.877ZM59.4191 179.541C60.2471 179.541 60.9851 179.697 61.6331 180.009C62.2931 180.321 62.8091 180.771 63.1811 181.359C63.5531 181.935 63.7391 182.601 63.7391 183.357C63.7391 184.149 63.5411 184.845 63.1451 185.445C62.7611 186.045 62.2271 186.513 61.5431 186.849C60.8711 187.173 60.1151 187.335 59.2751 187.335C57.5831 187.335 56.2751 186.789 55.3511 185.697C54.4391 184.605 53.9831 183.057 53.9831 181.053C53.9831 179.649 54.2291 178.455 54.7211 177.471C55.2251 176.475 55.9211 175.725 56.8091 175.221C57.7091 174.705 58.7531 174.447 59.9411 174.447C60.5531 174.447 61.1291 174.513 61.6691 174.645C62.2091 174.765 62.6771 174.945 63.0731 175.185L62.3891 176.589C61.7891 176.193 60.9851 175.995 59.9771 175.995C58.6691 175.995 57.6431 176.403 56.8991 177.219C56.1551 178.023 55.7831 179.199 55.7831 180.747C55.7831 180.939 55.7891 181.089 55.8011 181.197C56.1611 180.657 56.6531 180.249 57.2771 179.973C57.9131 179.685 58.6271 179.541 59.4191 179.541ZM59.2031 185.877C60.0311 185.877 60.7031 185.655 61.2191 185.211C61.7351 184.767 61.9931 184.173 61.9931 183.429C61.9931 182.685 61.7291 182.097 61.2011 181.665C60.6851 181.221 59.9891 180.999 59.1131 180.999C58.5491 180.999 58.0451 181.107 57.6011 181.323C57.1691 181.539 56.8271 181.833 56.5751 182.205C56.3351 182.577 56.2151 182.991 56.2151 183.447C56.2151 183.891 56.3291 184.299 56.5571 184.671C56.7971 185.031 57.1391 185.325 57.5831 185.553C58.0391 185.769 58.5791 185.877 59.2031 185.877ZM72.6625 181.359C71.7865 181.359 71.0785 181.041 70.5385 180.405C69.9985 179.769 69.7285 178.941 69.7285 177.921C69.7285 176.901 69.9985 176.073 70.5385 175.437C71.0785 174.801 71.7865 174.483 72.6625 174.483C73.5385 174.483 74.2405 174.801 74.7685 175.437C75.3085 176.061 75.5785 176.889 75.5785 177.921C75.5785 178.953 75.3085 179.787 74.7685 180.423C74.2405 181.047 73.5385 181.359 72.6625 181.359ZM80.2585 174.591H81.6445L73.0405 187.191H71.6545L80.2585 174.591ZM72.6625 180.333C73.2145 180.333 73.6465 180.123 73.9585 179.703C74.2705 179.271 74.4265 178.677 74.4265 177.921C74.4265 177.165 74.2705 176.577 73.9585 176.157C73.6465 175.725 73.2145 175.509 72.6625 175.509C72.1225 175.509 71.6905 175.725 71.3665 176.157C71.0545 176.589 70.8985 177.177 70.8985 177.921C70.8985 178.665 71.0545 179.253 71.3665 179.685C71.6905 180.117 72.1225 180.333 72.6625 180.333ZM80.6365 187.299C79.7605 187.299 79.0525 186.987 78.5125 186.363C77.9845 185.727 77.7205 184.893 77.7205 183.861C77.7205 182.829 77.9845 182.001 78.5125 181.377C79.0525 180.741 79.7605 180.423 80.6365 180.423C81.5125 180.423 82.2205 180.741 82.7605 181.377C83.3005 182.013 83.5705 182.841 83.5705 183.861C83.5705 184.881 83.3005 185.709 82.7605 186.345C82.2205 186.981 81.5125 187.299 80.6365 187.299ZM80.6365 186.273C81.1765 186.273 81.6025 186.057 81.9145 185.625C82.2385 185.193 82.4005 184.605 82.4005 183.861C82.4005 183.117 82.2385 182.529 81.9145 182.097C81.6025 181.665 81.1765 181.449 80.6365 181.449C80.0845 181.449 79.6525 181.665 79.3405 182.097C79.0285 182.517 78.8725 183.105 78.8725 183.861C78.8725 184.617 79.0285 185.211 79.3405 185.643C79.6525 186.063 80.0845 186.273 80.6365 186.273Z" fill="white"/>
<path d="M158.77 47.4V60H156.988V48.966H154.144V47.4H158.77ZM172.488 56.904H170.094V60H168.348V56.904H161.346V55.644L167.79 47.4H169.734L163.56 55.356H168.402V52.62H170.094V55.356H172.488V56.904ZM181.137 54.168C180.261 54.168 179.553 53.85 179.013 53.214C178.473 52.578 178.203 51.75 178.203 50.73C178.203 49.71 178.473 48.882 179.013 48.246C179.553 47.61 180.261 47.292 181.137 47.292C182.013 47.292 182.715 47.61 183.243 48.246C183.783 48.87 184.053 49.698 184.053 50.73C184.053 51.762 183.783 52.596 183.243 53.232C182.715 53.856 182.013 54.168 181.137 54.168ZM188.733 47.4H190.119L181.515 60H180.129L188.733 47.4ZM181.137 53.142C181.689 53.142 182.121 52.932 182.433 52.512C182.745 52.08 182.901 51.486 182.901 50.73C182.901 49.974 182.745 49.386 182.433 48.966C182.121 48.534 181.689 48.318 181.137 48.318C180.597 48.318 180.165 48.534 179.841 48.966C179.529 49.398 179.373 49.986 179.373 50.73C179.373 51.474 179.529 52.062 179.841 52.494C180.165 52.926 180.597 53.142 181.137 53.142ZM189.111 60.108C188.235 60.108 187.527 59.796 186.987 59.172C186.459 58.536 186.195 57.702 186.195 56.67C186.195 55.638 186.459 54.81 186.987 54.186C187.527 53.55 188.235 53.232 189.111 53.232C189.987 53.232 190.695 53.55 191.235 54.186C191.775 54.822 192.045 55.65 192.045 56.67C192.045 57.69 191.775 58.518 191.235 59.154C190.695 59.79 189.987 60.108 189.111 60.108ZM189.111 59.082C189.651 59.082 190.077 58.866 190.389 58.434C190.713 58.002 190.875 57.414 190.875 56.67C190.875 55.926 190.713 55.338 190.389 54.906C190.077 54.474 189.651 54.258 189.111 54.258C188.559 54.258 188.127 54.474 187.815 54.906C187.503 55.326 187.347 55.914 187.347 56.67C187.347 57.426 187.503 58.02 187.815 58.452C188.127 58.872 188.559 59.082 189.111 59.082Z" fill="white"/>
</svg>
