<svg width="498" height="238" viewBox="0 0 498 238" fill="none" xmlns="http://www.w3.org/2000/svg">
<path d="M302.738 126.723L298.004 137.325C297.62 138.213 297.176 138.843 296.672 139.215C296.168 139.587 295.562 139.773 294.854 139.773C294.398 139.773 293.972 139.701 293.576 139.557C293.18 139.413 292.838 139.197 292.55 138.909L293.144 137.955C293.624 138.435 294.2 138.675 294.872 138.675C295.304 138.675 295.67 138.555 295.97 138.315C296.282 138.075 296.57 137.667 296.834 137.091L297.248 136.173L293.018 126.723H294.35L297.914 134.769L301.478 126.723H302.738ZM312.518 131.853H304.598C304.67 132.837 305.048 133.635 305.732 134.247C306.416 134.847 307.28 135.147 308.324 135.147C308.912 135.147 309.452 135.045 309.944 134.841C310.436 134.625 310.862 134.313 311.222 133.905L311.942 134.733C311.522 135.237 310.994 135.621 310.358 135.885C309.734 136.149 309.044 136.281 308.288 136.281C307.316 136.281 306.452 136.077 305.696 135.669C304.952 135.249 304.37 134.673 303.95 133.941C303.53 133.209 303.32 132.381 303.32 131.457C303.32 130.533 303.518 129.705 303.914 128.973C304.322 128.241 304.874 127.671 305.57 127.263C306.278 126.855 307.07 126.651 307.946 126.651C308.822 126.651 309.608 126.855 310.304 127.263C311 127.671 311.546 128.241 311.942 128.973C312.338 129.693 312.536 130.521 312.536 131.457L312.518 131.853ZM307.946 127.749C307.034 127.749 306.266 128.043 305.642 128.631C305.03 129.207 304.682 129.963 304.598 130.899H311.312C311.228 129.963 310.874 129.207 310.25 128.631C309.638 128.043 308.87 127.749 307.946 127.749ZM317.675 136.281C316.907 136.281 316.169 136.173 315.461 135.957C314.765 135.729 314.219 135.447 313.823 135.111L314.399 134.103C314.795 134.415 315.293 134.673 315.893 134.877C316.493 135.069 317.117 135.165 317.765 135.165C318.629 135.165 319.265 135.033 319.673 134.769C320.093 134.493 320.303 134.109 320.303 133.617C320.303 133.269 320.189 132.999 319.961 132.807C319.733 132.603 319.445 132.453 319.097 132.357C318.749 132.249 318.287 132.147 317.711 132.051C316.943 131.907 316.325 131.763 315.857 131.619C315.389 131.463 314.987 131.205 314.651 130.845C314.327 130.485 314.165 129.987 314.165 129.351C314.165 128.559 314.495 127.911 315.155 127.407C315.815 126.903 316.733 126.651 317.909 126.651C318.521 126.651 319.133 126.735 319.745 126.903C320.357 127.059 320.861 127.269 321.257 127.533L320.699 128.559C319.919 128.019 318.989 127.749 317.909 127.749C317.093 127.749 316.475 127.893 316.055 128.181C315.647 128.469 315.443 128.847 315.443 129.315C315.443 129.675 315.557 129.963 315.785 130.179C316.025 130.395 316.319 130.557 316.667 130.665C317.015 130.761 317.495 130.863 318.107 130.971C318.863 131.115 319.469 131.259 319.925 131.403C320.381 131.547 320.771 131.793 321.095 132.141C321.419 132.489 321.581 132.969 321.581 133.581C321.581 134.409 321.233 135.069 320.537 135.561C319.853 136.041 318.899 136.281 317.675 136.281Z" fill="#4B4A51"/>
<path d="M303.422 150.835V164.191H302.198V162.319C301.814 162.955 301.304 163.441 300.668 163.777C300.044 164.113 299.336 164.281 298.544 164.281C297.656 164.281 296.852 164.077 296.132 163.669C295.412 163.261 294.848 162.691 294.44 161.959C294.032 161.227 293.828 160.393 293.828 159.457C293.828 158.521 294.032 157.687 294.44 156.955C294.848 156.223 295.412 155.659 296.132 155.263C296.852 154.855 297.656 154.651 298.544 154.651C299.312 154.651 300.002 154.813 300.614 155.137C301.238 155.449 301.748 155.911 302.144 156.523V150.835H303.422ZM298.652 163.147C299.312 163.147 299.906 162.997 300.434 162.697C300.974 162.385 301.394 161.947 301.694 161.383C302.006 160.819 302.162 160.177 302.162 159.457C302.162 158.737 302.006 158.095 301.694 157.531C301.394 156.967 300.974 156.535 300.434 156.235C299.906 155.923 299.312 155.767 298.652 155.767C297.98 155.767 297.374 155.923 296.834 156.235C296.306 156.535 295.886 156.967 295.574 157.531C295.274 158.095 295.124 158.737 295.124 159.457C295.124 160.177 295.274 160.819 295.574 161.383C295.886 161.947 296.306 162.385 296.834 162.697C297.374 162.997 297.98 163.147 298.652 163.147ZM310.851 164.281C309.939 164.281 309.117 164.077 308.385 163.669C307.653 163.249 307.077 162.673 306.657 161.941C306.237 161.209 306.027 160.381 306.027 159.457C306.027 158.533 306.237 157.705 306.657 156.973C307.077 156.241 307.653 155.671 308.385 155.263C309.117 154.855 309.939 154.651 310.851 154.651C311.763 154.651 312.585 154.855 313.317 155.263C314.049 155.671 314.619 156.241 315.027 156.973C315.447 157.705 315.657 158.533 315.657 159.457C315.657 160.381 315.447 161.209 315.027 161.941C314.619 162.673 314.049 163.249 313.317 163.669C312.585 164.077 311.763 164.281 310.851 164.281ZM310.851 163.147C311.523 163.147 312.123 162.997 312.651 162.697C313.191 162.385 313.611 161.947 313.911 161.383C314.211 160.819 314.361 160.177 314.361 159.457C314.361 158.737 314.211 158.095 313.911 157.531C313.611 156.967 313.191 156.535 312.651 156.235C312.123 155.923 311.523 155.767 310.851 155.767C310.179 155.767 309.573 155.923 309.033 156.235C308.505 156.535 308.085 156.967 307.773 157.531C307.473 158.095 307.323 158.737 307.323 159.457C307.323 160.177 307.473 160.819 307.773 161.383C308.085 161.947 308.505 162.385 309.033 162.697C309.573 162.997 310.179 163.147 310.851 163.147ZM326.51 159.853H318.59C318.662 160.837 319.04 161.635 319.724 162.247C320.408 162.847 321.272 163.147 322.316 163.147C322.904 163.147 323.444 163.045 323.936 162.841C324.428 162.625 324.854 162.313 325.214 161.905L325.934 162.733C325.514 163.237 324.986 163.621 324.35 163.885C323.726 164.149 323.036 164.281 322.28 164.281C321.308 164.281 320.444 164.077 319.688 163.669C318.944 163.249 318.362 162.673 317.942 161.941C317.522 161.209 317.312 160.381 317.312 159.457C317.312 158.533 317.51 157.705 317.906 156.973C318.314 156.241 318.866 155.671 319.562 155.263C320.27 154.855 321.062 154.651 321.938 154.651C322.814 154.651 323.6 154.855 324.296 155.263C324.992 155.671 325.538 156.241 325.934 156.973C326.33 157.693 326.528 158.521 326.528 159.457L326.51 159.853ZM321.938 155.749C321.026 155.749 320.258 156.043 319.634 156.631C319.022 157.207 318.674 157.963 318.59 158.899H325.304C325.22 157.963 324.866 157.207 324.242 156.631C323.63 156.043 322.862 155.749 321.938 155.749ZM331.668 164.281C330.9 164.281 330.162 164.173 329.454 163.957C328.758 163.729 328.212 163.447 327.816 163.111L328.392 162.103C328.788 162.415 329.286 162.673 329.886 162.877C330.486 163.069 331.11 163.165 331.758 163.165C332.622 163.165 333.258 163.033 333.666 162.769C334.086 162.493 334.296 162.109 334.296 161.617C334.296 161.269 334.182 160.999 333.954 160.807C333.726 160.603 333.438 160.453 333.09 160.357C332.742 160.249 332.28 160.147 331.704 160.051C330.936 159.907 330.318 159.763 329.85 159.619C329.382 159.463 328.98 159.205 328.644 158.845C328.32 158.485 328.158 157.987 328.158 157.351C328.158 156.559 328.488 155.911 329.148 155.407C329.808 154.903 330.726 154.651 331.902 154.651C332.514 154.651 333.126 154.735 333.738 154.903C334.35 155.059 334.854 155.269 335.25 155.533L334.692 156.559C333.912 156.019 332.982 155.749 331.902 155.749C331.086 155.749 330.468 155.893 330.048 156.181C329.64 156.469 329.436 156.847 329.436 157.315C329.436 157.675 329.55 157.963 329.778 158.179C330.018 158.395 330.312 158.557 330.66 158.665C331.008 158.761 331.488 158.863 332.1 158.971C332.856 159.115 333.462 159.259 333.918 159.403C334.374 159.547 334.764 159.793 335.088 160.141C335.412 160.489 335.574 160.969 335.574 161.581C335.574 162.409 335.226 163.069 334.53 163.561C333.846 164.041 332.892 164.281 331.668 164.281ZM342.76 154.651C343.948 154.651 344.89 154.999 345.586 155.695C346.294 156.379 346.648 157.381 346.648 158.701V164.191H345.37V158.827C345.37 157.843 345.124 157.093 344.632 156.577C344.14 156.061 343.438 155.803 342.526 155.803C341.506 155.803 340.696 156.109 340.096 156.721C339.508 157.321 339.214 158.155 339.214 159.223V164.191H337.936V154.723H339.16V156.469C339.508 155.893 339.988 155.449 340.6 155.137C341.224 154.813 341.944 154.651 342.76 154.651ZM350.121 150.745C350.397 150.745 350.625 150.841 350.805 151.033C350.985 151.213 351.075 151.441 351.075 151.717C351.075 151.861 351.051 152.017 351.003 152.185C350.967 152.341 350.913 152.527 350.841 152.743L350.067 155.227H349.203L349.833 152.635C349.629 152.575 349.467 152.467 349.347 152.311C349.227 152.143 349.167 151.945 349.167 151.717C349.167 151.429 349.257 151.195 349.437 151.015C349.617 150.835 349.845 150.745 350.121 150.745ZM358.813 163.615C358.573 163.831 358.273 163.999 357.913 164.119C357.565 164.227 357.199 164.281 356.815 164.281C355.927 164.281 355.243 164.041 354.763 163.561C354.283 163.081 354.043 162.403 354.043 161.527V155.803H352.351V154.723H354.043V152.653H355.321V154.723H358.201V155.803H355.321V161.455C355.321 162.019 355.459 162.451 355.735 162.751C356.023 163.039 356.431 163.183 356.959 163.183C357.223 163.183 357.475 163.141 357.715 163.057C357.967 162.973 358.183 162.853 358.363 162.697L358.813 163.615ZM377.658 154.651C378.846 154.651 379.776 154.993 380.448 155.677C381.132 156.361 381.474 157.369 381.474 158.701V164.191H380.196V158.827C380.196 157.843 379.956 157.093 379.476 156.577C379.008 156.061 378.342 155.803 377.478 155.803C376.494 155.803 375.72 156.109 375.156 156.721C374.592 157.321 374.31 158.155 374.31 159.223V164.191H373.032V158.827C373.032 157.843 372.792 157.093 372.312 156.577C371.844 156.061 371.172 155.803 370.296 155.803C369.324 155.803 368.55 156.109 367.974 156.721C367.41 157.321 367.128 158.155 367.128 159.223V164.191H365.85V154.723H367.074V156.451C367.41 155.875 367.878 155.431 368.478 155.119C369.078 154.807 369.768 154.651 370.548 154.651C371.34 154.651 372.024 154.819 372.6 155.155C373.188 155.491 373.626 155.989 373.914 156.649C374.262 156.025 374.76 155.539 375.408 155.191C376.068 154.831 376.818 154.651 377.658 154.651ZM388.252 154.651C389.488 154.651 390.436 154.963 391.096 155.587C391.756 156.199 392.086 157.111 392.086 158.323V164.191H390.862V162.715C390.574 163.207 390.148 163.591 389.584 163.867C389.032 164.143 388.372 164.281 387.604 164.281C386.548 164.281 385.708 164.029 385.084 163.525C384.46 163.021 384.148 162.355 384.148 161.527C384.148 160.723 384.436 160.075 385.012 159.583C385.6 159.091 386.53 158.845 387.802 158.845H390.808V158.269C390.808 157.453 390.58 156.835 390.124 156.415C389.668 155.983 389.002 155.767 388.126 155.767C387.526 155.767 386.95 155.869 386.398 156.073C385.846 156.265 385.372 156.535 384.976 156.883L384.4 155.929C384.88 155.521 385.456 155.209 386.128 154.993C386.8 154.765 387.508 154.651 388.252 154.651ZM387.802 163.273C388.522 163.273 389.14 163.111 389.656 162.787C390.172 162.451 390.556 161.971 390.808 161.347V159.799H387.838C386.218 159.799 385.408 160.363 385.408 161.491C385.408 162.043 385.618 162.481 386.038 162.805C386.458 163.117 387.046 163.273 387.802 163.273ZM400.543 163.615C400.303 163.831 400.003 163.999 399.643 164.119C399.295 164.227 398.929 164.281 398.545 164.281C397.657 164.281 396.973 164.041 396.493 163.561C396.013 163.081 395.773 162.403 395.773 161.527V155.803H394.081V154.723H395.773V152.653H397.051V154.723H399.931V155.803H397.051V161.455C397.051 162.019 397.189 162.451 397.465 162.751C397.753 163.039 398.161 163.183 398.689 163.183C398.953 163.183 399.205 163.141 399.445 163.057C399.697 162.973 399.913 162.853 400.093 162.697L400.543 163.615ZM407.61 163.615C407.37 163.831 407.07 163.999 406.71 164.119C406.362 164.227 405.996 164.281 405.612 164.281C404.724 164.281 404.04 164.041 403.56 163.561C403.08 163.081 402.84 162.403 402.84 161.527V155.803H401.148V154.723H402.84V152.653H404.118V154.723H406.998V155.803H404.118V161.455C404.118 162.019 404.256 162.451 404.532 162.751C404.82 163.039 405.228 163.183 405.756 163.183C406.02 163.183 406.272 163.141 406.512 163.057C406.764 162.973 406.98 162.853 407.16 162.697L407.61 163.615ZM417.846 159.853H409.926C409.998 160.837 410.376 161.635 411.06 162.247C411.744 162.847 412.608 163.147 413.652 163.147C414.24 163.147 414.78 163.045 415.272 162.841C415.764 162.625 416.19 162.313 416.55 161.905L417.27 162.733C416.85 163.237 416.322 163.621 415.686 163.885C415.062 164.149 414.372 164.281 413.616 164.281C412.644 164.281 411.78 164.077 411.024 163.669C410.28 163.249 409.698 162.673 409.278 161.941C408.858 161.209 408.648 160.381 408.648 159.457C408.648 158.533 408.846 157.705 409.242 156.973C409.65 156.241 410.202 155.671 410.898 155.263C411.606 154.855 412.398 154.651 413.274 154.651C414.15 154.651 414.936 154.855 415.632 155.263C416.328 155.671 416.874 156.241 417.27 156.973C417.666 157.693 417.864 158.521 417.864 159.457L417.846 159.853ZM413.274 155.749C412.362 155.749 411.594 156.043 410.97 156.631C410.358 157.207 410.01 157.963 409.926 158.899H416.64C416.556 157.963 416.202 157.207 415.578 156.631C414.966 156.043 414.198 155.749 413.274 155.749ZM421.69 156.577C421.99 155.941 422.434 155.461 423.022 155.137C423.622 154.813 424.36 154.651 425.236 154.651V155.893L424.93 155.875C423.934 155.875 423.154 156.181 422.59 156.793C422.026 157.405 421.744 158.263 421.744 159.367V164.191H420.466V154.723H421.69V156.577Z" fill="#4B4A51"/>
<path d="M271.149 5.19141H276.849C278.329 5.19141 279.636 5.49141 280.769 6.09141C281.902 6.67807 282.782 7.50474 283.409 8.57141C284.036 9.62474 284.349 10.8314 284.349 12.1914C284.349 13.5514 284.036 14.7647 283.409 15.8314C282.782 16.8847 281.902 17.7114 280.769 18.3114C279.636 18.8981 278.329 19.1914 276.849 19.1914H271.149V5.19141ZM276.769 17.9114C277.996 17.9114 279.069 17.6714 279.989 17.1914C280.909 16.6981 281.622 16.0247 282.129 15.1714C282.636 14.3047 282.889 13.3114 282.889 12.1914C282.889 11.0714 282.636 10.0847 282.129 9.23141C281.622 8.36474 280.909 7.69141 279.989 7.21141C279.069 6.71807 277.996 6.47141 276.769 6.47141H272.629V17.9114H276.769ZM291.673 19.2914C290.659 19.2914 289.746 19.0647 288.933 18.6114C288.119 18.1447 287.479 17.5047 287.013 16.6914C286.546 15.8781 286.313 14.9581 286.313 13.9314C286.313 12.9047 286.546 11.9847 287.013 11.1714C287.479 10.3581 288.119 9.72474 288.933 9.27141C289.746 8.81807 290.659 8.59141 291.673 8.59141C292.686 8.59141 293.599 8.81807 294.413 9.27141C295.226 9.72474 295.859 10.3581 296.313 11.1714C296.779 11.9847 297.013 12.9047 297.013 13.9314C297.013 14.9581 296.779 15.8781 296.313 16.6914C295.859 17.5047 295.226 18.1447 294.413 18.6114C293.599 19.0647 292.686 19.2914 291.673 19.2914ZM291.673 18.0314C292.419 18.0314 293.086 17.8647 293.673 17.5314C294.273 17.1847 294.739 16.6981 295.073 16.0714C295.406 15.4447 295.573 14.7314 295.573 13.9314C295.573 13.1314 295.406 12.4181 295.073 11.7914C294.739 11.1647 294.273 10.6847 293.673 10.3514C293.086 10.0047 292.419 9.83141 291.673 9.83141C290.926 9.83141 290.253 10.0047 289.653 10.3514C289.066 10.6847 288.599 11.1647 288.253 11.7914C287.919 12.4181 287.753 13.1314 287.753 13.9314C287.753 14.7314 287.919 15.4447 288.253 16.0714C288.599 16.6981 289.066 17.1847 289.653 17.5314C290.253 17.8647 290.926 18.0314 291.673 18.0314ZM309.072 14.3714H300.272C300.352 15.4647 300.772 16.3514 301.532 17.0314C302.292 17.6981 303.252 18.0314 304.412 18.0314C305.065 18.0314 305.665 17.9181 306.212 17.6914C306.758 17.4514 307.232 17.1047 307.632 16.6514L308.432 17.5714C307.965 18.1314 307.378 18.5581 306.672 18.8514C305.978 19.1447 305.212 19.2914 304.372 19.2914C303.292 19.2914 302.332 19.0647 301.492 18.6114C300.665 18.1447 300.018 17.5047 299.552 16.6914C299.085 15.8781 298.852 14.9581 298.852 13.9314C298.852 12.9047 299.072 11.9847 299.512 11.1714C299.965 10.3581 300.578 9.72474 301.352 9.27141C302.138 8.81807 303.018 8.59141 303.992 8.59141C304.965 8.59141 305.838 8.81807 306.612 9.27141C307.385 9.72474 307.992 10.3581 308.432 11.1714C308.872 11.9714 309.092 12.8914 309.092 13.9314L309.072 14.3714ZM303.992 9.81141C302.978 9.81141 302.125 10.1381 301.432 10.7914C300.752 11.4314 300.365 12.2714 300.272 13.3114H307.732C307.638 12.2714 307.245 11.4314 306.552 10.7914C305.872 10.1381 305.018 9.81141 303.992 9.81141ZM314.802 19.2914C313.949 19.2914 313.129 19.1714 312.342 18.9314C311.569 18.6781 310.962 18.3647 310.522 17.9914L311.162 16.8714C311.602 17.2181 312.155 17.5047 312.822 17.7314C313.489 17.9447 314.182 18.0514 314.902 18.0514C315.862 18.0514 316.569 17.9047 317.022 17.6114C317.489 17.3047 317.722 16.8781 317.722 16.3314C317.722 15.9447 317.595 15.6447 317.342 15.4314C317.089 15.2047 316.769 15.0381 316.382 14.9314C315.995 14.8114 315.482 14.6981 314.842 14.5914C313.989 14.4314 313.302 14.2714 312.782 14.1114C312.262 13.9381 311.815 13.6514 311.442 13.2514C311.082 12.8514 310.902 12.2981 310.902 11.5914C310.902 10.7114 311.269 9.99141 312.002 9.43141C312.735 8.87141 313.755 8.59141 315.062 8.59141C315.742 8.59141 316.422 8.68474 317.102 8.87141C317.782 9.04474 318.342 9.27807 318.782 9.57141L318.162 10.7114C317.295 10.1114 316.262 9.81141 315.062 9.81141C314.155 9.81141 313.469 9.97141 313.002 10.2914C312.549 10.6114 312.322 11.0314 312.322 11.5514C312.322 11.9514 312.449 12.2714 312.702 12.5114C312.969 12.7514 313.295 12.9314 313.682 13.0514C314.069 13.1581 314.602 13.2714 315.282 13.3914C316.122 13.5514 316.795 13.7114 317.302 13.8714C317.809 14.0314 318.242 14.3047 318.602 14.6914C318.962 15.0781 319.142 15.6114 319.142 16.2914C319.142 17.2114 318.755 17.9447 317.982 18.4914C317.222 19.0247 316.162 19.2914 314.802 19.2914ZM330.681 8.59141C332.055 8.59141 333.108 8.93807 333.841 9.63141C334.575 10.3114 334.941 11.3247 334.941 12.6714V19.1914H333.581V17.5514C333.261 18.0981 332.788 18.5247 332.161 18.8314C331.548 19.1381 330.815 19.2914 329.961 19.2914C328.788 19.2914 327.855 19.0114 327.161 18.4514C326.468 17.8914 326.121 17.1514 326.121 16.2314C326.121 15.3381 326.441 14.6181 327.081 14.0714C327.735 13.5247 328.768 13.2514 330.181 13.2514H333.521V12.6114C333.521 11.7047 333.268 11.0181 332.761 10.5514C332.255 10.0714 331.515 9.83141 330.541 9.83141C329.875 9.83141 329.235 9.94474 328.621 10.1714C328.008 10.3847 327.481 10.6847 327.041 11.0714L326.401 10.0114C326.935 9.55807 327.575 9.21141 328.321 8.97141C329.068 8.71807 329.855 8.59141 330.681 8.59141ZM330.181 18.1714C330.981 18.1714 331.668 17.9914 332.241 17.6314C332.815 17.2581 333.241 16.7247 333.521 16.0314V14.3114H330.221C328.421 14.3114 327.521 14.9381 327.521 16.1914C327.521 16.8047 327.755 17.2914 328.221 17.6514C328.688 17.9981 329.341 18.1714 330.181 18.1714ZM349.453 8.59141C350.439 8.59141 351.333 8.81807 352.133 9.27141C352.933 9.71141 353.559 10.3381 354.013 11.1514C354.466 11.9647 354.693 12.8914 354.693 13.9314C354.693 14.9847 354.466 15.9181 354.013 16.7314C353.559 17.5447 352.933 18.1781 352.133 18.6314C351.346 19.0714 350.453 19.2914 349.453 19.2914C348.599 19.2914 347.826 19.1181 347.133 18.7714C346.453 18.4114 345.893 17.8914 345.453 17.2114V23.0714H344.033V8.67141H345.393V10.7514C345.819 10.0581 346.379 9.52474 347.073 9.15141C347.779 8.77807 348.573 8.59141 349.453 8.59141ZM349.353 18.0314C350.086 18.0314 350.753 17.8647 351.353 17.5314C351.953 17.1847 352.419 16.6981 352.753 16.0714C353.099 15.4447 353.273 14.7314 353.273 13.9314C353.273 13.1314 353.099 12.4247 352.753 11.8114C352.419 11.1847 351.953 10.6981 351.353 10.3514C350.753 10.0047 350.086 9.83141 349.353 9.83141C348.606 9.83141 347.933 10.0047 347.333 10.3514C346.746 10.6981 346.279 11.1847 345.933 11.8114C345.599 12.4247 345.433 13.1314 345.433 13.9314C345.433 14.7314 345.599 15.4447 345.933 16.0714C346.279 16.6981 346.746 17.1847 347.333 17.5314C347.933 17.8647 348.606 18.0314 349.353 18.0314ZM358.947 10.7314C359.281 10.0247 359.774 9.49141 360.427 9.13141C361.094 8.77141 361.914 8.59141 362.887 8.59141V9.97141L362.547 9.95141C361.441 9.95141 360.574 10.2914 359.947 10.9714C359.321 11.6514 359.007 12.6047 359.007 13.8314V19.1914H357.587V8.67141H358.947V10.7314ZM374.521 14.3714H365.721C365.801 15.4647 366.221 16.3514 366.981 17.0314C367.741 17.6981 368.701 18.0314 369.861 18.0314C370.514 18.0314 371.114 17.9181 371.661 17.6914C372.208 17.4514 372.681 17.1047 373.081 16.6514L373.881 17.5714C373.414 18.1314 372.828 18.5581 372.121 18.8514C371.428 19.1447 370.661 19.2914 369.821 19.2914C368.741 19.2914 367.781 19.0647 366.941 18.6114C366.114 18.1447 365.468 17.5047 365.001 16.6914C364.534 15.8781 364.301 14.9581 364.301 13.9314C364.301 12.9047 364.521 11.9847 364.961 11.1714C365.414 10.3581 366.028 9.72474 366.801 9.27141C367.588 8.81807 368.468 8.59141 369.441 8.59141C370.414 8.59141 371.288 8.81807 372.061 9.27141C372.834 9.72474 373.441 10.3581 373.881 11.1714C374.321 11.9714 374.541 12.8914 374.541 13.9314L374.521 14.3714ZM369.441 9.81141C368.428 9.81141 367.574 10.1381 366.881 10.7914C366.201 11.4314 365.814 12.2714 365.721 13.3114H373.181C373.088 12.2714 372.694 11.4314 372.001 10.7914C371.321 10.1381 370.468 9.81141 369.441 9.81141ZM386.076 8.67141L381.396 19.1914H379.936L375.276 8.67141H376.756L380.696 17.6314L384.676 8.67141H386.076ZM388.076 8.67141H389.496V19.1914H388.076V8.67141ZM388.796 6.37141C388.502 6.37141 388.256 6.27141 388.056 6.07141C387.856 5.87141 387.756 5.63141 387.756 5.35141C387.756 5.08474 387.856 4.85141 388.056 4.65141C388.256 4.45141 388.502 4.35141 388.796 4.35141C389.089 4.35141 389.336 4.45141 389.536 4.65141C389.736 4.83807 389.836 5.06474 389.836 5.33141C389.836 5.62474 389.736 5.87141 389.536 6.07141C389.336 6.27141 389.089 6.37141 388.796 6.37141ZM402.607 14.3714H393.807C393.887 15.4647 394.307 16.3514 395.067 17.0314C395.827 17.6981 396.787 18.0314 397.947 18.0314C398.6 18.0314 399.2 17.9181 399.747 17.6914C400.293 17.4514 400.767 17.1047 401.167 16.6514L401.967 17.5714C401.5 18.1314 400.913 18.5581 400.207 18.8514C399.513 19.1447 398.747 19.2914 397.907 19.2914C396.827 19.2914 395.867 19.0647 395.027 18.6114C394.2 18.1447 393.553 17.5047 393.087 16.6914C392.62 15.8781 392.387 14.9581 392.387 13.9314C392.387 12.9047 392.607 11.9847 393.047 11.1714C393.5 10.3581 394.113 9.72474 394.887 9.27141C395.673 8.81807 396.553 8.59141 397.527 8.59141C398.5 8.59141 399.373 8.81807 400.147 9.27141C400.92 9.72474 401.527 10.3581 401.967 11.1714C402.407 11.9714 402.627 12.8914 402.627 13.9314L402.607 14.3714ZM397.527 9.81141C396.513 9.81141 395.66 10.1381 394.967 10.7914C394.287 11.4314 393.9 12.2714 393.807 13.3114H401.267C401.173 12.2714 400.78 11.4314 400.087 10.7914C399.407 10.1381 398.553 9.81141 397.527 9.81141ZM420.762 8.67141L416.782 19.1914H415.442L412.122 10.5714L408.802 19.1914H407.462L403.502 8.67141H404.862L408.162 17.6114L411.542 8.67141H412.762L416.122 17.6114L419.462 8.67141H420.762ZM441.254 8.59141C442.574 8.59141 443.608 8.97141 444.354 9.73141C445.114 10.4914 445.494 11.6114 445.494 13.0914V19.1914H444.074V13.2314C444.074 12.1381 443.808 11.3047 443.274 10.7314C442.754 10.1581 442.014 9.87141 441.054 9.87141C439.961 9.87141 439.101 10.2114 438.474 10.8914C437.848 11.5581 437.534 12.4847 437.534 13.6714V19.1914H436.114V13.2314C436.114 12.1381 435.848 11.3047 435.314 10.7314C434.794 10.1581 434.048 9.87141 433.074 9.87141C431.994 9.87141 431.134 10.2114 430.494 10.8914C429.868 11.5581 429.554 12.4847 429.554 13.6714V19.1914H428.134V8.67141H429.494V10.5914C429.868 9.95141 430.388 9.45807 431.054 9.11141C431.721 8.76474 432.488 8.59141 433.354 8.59141C434.234 8.59141 434.994 8.77807 435.634 9.15141C436.288 9.52474 436.774 10.0781 437.094 10.8114C437.481 10.1181 438.034 9.57807 438.754 9.19141C439.488 8.79141 440.321 8.59141 441.254 8.59141ZM453.025 8.59141C454.399 8.59141 455.452 8.93807 456.185 9.63141C456.919 10.3114 457.285 11.3247 457.285 12.6714V19.1914H455.925V17.5514C455.605 18.0981 455.132 18.5247 454.505 18.8314C453.892 19.1381 453.159 19.2914 452.305 19.2914C451.132 19.2914 450.199 19.0114 449.505 18.4514C448.812 17.8914 448.465 17.1514 448.465 16.2314C448.465 15.3381 448.785 14.6181 449.425 14.0714C450.079 13.5247 451.112 13.2514 452.525 13.2514H455.865V12.6114C455.865 11.7047 455.612 11.0181 455.105 10.5514C454.599 10.0714 453.859 9.83141 452.885 9.83141C452.219 9.83141 451.579 9.94474 450.965 10.1714C450.352 10.3847 449.825 10.6847 449.385 11.0714L448.745 10.0114C449.279 9.55807 449.919 9.21141 450.665 8.97141C451.412 8.71807 452.199 8.59141 453.025 8.59141ZM452.525 18.1714C453.325 18.1714 454.012 17.9914 454.585 17.6314C455.159 17.2581 455.585 16.7247 455.865 16.0314V14.3114H452.565C450.765 14.3114 449.865 14.9381 449.865 16.1914C449.865 16.8047 450.099 17.2914 450.565 17.6514C451.032 17.9981 451.685 18.1714 452.525 18.1714ZM465.042 13.9114L462.562 16.1914V19.1914H461.142V4.35141H462.562V14.4114L468.842 8.67141H470.602L466.102 12.9714L471.022 19.1914H469.282L465.042 13.9114ZM481.884 14.3714H473.084C473.164 15.4647 473.584 16.3514 474.344 17.0314C475.104 17.6981 476.064 18.0314 477.224 18.0314C477.877 18.0314 478.477 17.9181 479.024 17.6914C479.571 17.4514 480.044 17.1047 480.444 16.6514L481.244 17.5714C480.777 18.1314 480.191 18.5581 479.484 18.8514C478.791 19.1447 478.024 19.2914 477.184 19.2914C476.104 19.2914 475.144 19.0647 474.304 18.6114C473.477 18.1447 472.831 17.5047 472.364 16.6914C471.897 15.8781 471.664 14.9581 471.664 13.9314C471.664 12.9047 471.884 11.9847 472.324 11.1714C472.777 10.3581 473.391 9.72474 474.164 9.27141C474.951 8.81807 475.831 8.59141 476.804 8.59141C477.777 8.59141 478.651 8.81807 479.424 9.27141C480.197 9.72474 480.804 10.3581 481.244 11.1714C481.684 11.9714 481.904 12.8914 481.904 13.9314L481.884 14.3714ZM476.804 9.81141C475.791 9.81141 474.937 10.1381 474.244 10.7914C473.564 11.4314 473.177 12.2714 473.084 13.3114H480.544C480.451 12.2714 480.057 11.4314 479.364 10.7914C478.684 10.1381 477.831 9.81141 476.804 9.81141ZM493.709 8.59141C495.082 8.59141 496.135 8.93807 496.869 9.63141C497.602 10.3114 497.969 11.3247 497.969 12.6714V19.1914H496.609V17.5514C496.289 18.0981 495.815 18.5247 495.189 18.8314C494.575 19.1381 493.842 19.2914 492.989 19.2914C491.815 19.2914 490.882 19.0114 490.189 18.4514C489.495 17.8914 489.149 17.1514 489.149 16.2314C489.149 15.3381 489.469 14.6181 490.109 14.0714C490.762 13.5247 491.795 13.2514 493.209 13.2514H496.549V12.6114C496.549 11.7047 496.295 11.0181 495.789 10.5514C495.282 10.0714 494.542 9.83141 493.569 9.83141C492.902 9.83141 492.262 9.94474 491.649 10.1714C491.035 10.3847 490.509 10.6847 490.069 11.0714L489.429 10.0114C489.962 9.55807 490.602 9.21141 491.349 8.97141C492.095 8.71807 492.882 8.59141 493.709 8.59141ZM493.209 18.1714C494.009 18.1714 494.695 17.9914 495.269 17.6314C495.842 17.2581 496.269 16.7247 496.549 16.0314V14.3114H493.249C491.449 14.3114 490.549 14.9381 490.549 16.1914C490.549 16.8047 490.782 17.2914 491.249 17.6514C491.715 17.9981 492.369 18.1714 493.209 18.1714ZM276.269 32.5914C277.256 32.5914 278.149 32.8181 278.949 33.2714C279.749 33.7114 280.376 34.3381 280.829 35.1514C281.282 35.9647 281.509 36.8914 281.509 37.9314C281.509 38.9714 281.282 39.8981 280.829 40.7114C280.376 41.5247 279.749 42.1581 278.949 42.6114C278.149 43.0647 277.256 43.2914 276.269 43.2914C275.389 43.2914 274.596 43.1047 273.889 42.7314C273.196 42.3581 272.636 41.8181 272.209 41.1114V43.1914H270.849V28.3514H272.269V34.6714C272.709 33.9914 273.269 33.4781 273.949 33.1314C274.642 32.7714 275.416 32.5914 276.269 32.5914ZM276.169 42.0314C276.902 42.0314 277.569 41.8647 278.169 41.5314C278.769 41.1847 279.236 40.6981 279.569 40.0714C279.916 39.4447 280.089 38.7314 280.089 37.9314C280.089 37.1314 279.916 36.4181 279.569 35.7914C279.236 35.1647 278.769 34.6847 278.169 34.3514C277.569 34.0047 276.902 33.8314 276.169 33.8314C275.422 33.8314 274.749 34.0047 274.149 34.3514C273.562 34.6847 273.096 35.1647 272.749 35.7914C272.416 36.4181 272.249 37.1314 272.249 37.9314C272.249 38.7314 272.416 39.4447 272.749 40.0714C273.096 40.6981 273.562 41.1847 274.149 41.5314C274.749 41.8647 275.422 42.0314 276.169 42.0314ZM284.404 32.6714H285.824V43.1914H284.404V32.6714ZM285.124 30.3714C284.83 30.3714 284.584 30.2714 284.384 30.0714C284.184 29.8714 284.084 29.6314 284.084 29.3514C284.084 29.0847 284.184 28.8514 284.384 28.6514C284.584 28.4514 284.83 28.3514 285.124 28.3514C285.417 28.3514 285.664 28.4514 285.864 28.6514C286.064 28.8381 286.164 29.0647 286.164 29.3314C286.164 29.6247 286.064 29.8714 285.864 30.0714C285.664 30.2714 285.417 30.3714 285.124 30.3714ZM299.515 32.6714V41.9114C299.515 43.6981 299.075 45.0181 298.195 45.8714C297.328 46.7381 296.015 47.1714 294.255 47.1714C293.282 47.1714 292.355 47.0247 291.475 46.7314C290.608 46.4514 289.902 46.0581 289.355 45.5514L290.075 44.4714C290.582 44.9247 291.195 45.2781 291.915 45.5314C292.648 45.7847 293.415 45.9114 294.215 45.9114C295.548 45.9114 296.528 45.5981 297.155 44.9714C297.782 44.3581 298.095 43.3981 298.095 42.0914V40.7514C297.655 41.4181 297.075 41.9247 296.355 42.2714C295.648 42.6181 294.862 42.7914 293.995 42.7914C293.008 42.7914 292.108 42.5781 291.295 42.1514C290.495 41.7114 289.862 41.1047 289.395 40.3314C288.942 39.5447 288.715 38.6581 288.715 37.6714C288.715 36.6847 288.942 35.8047 289.395 35.0314C289.862 34.2581 290.495 33.6581 291.295 33.2314C292.095 32.8047 292.995 32.5914 293.995 32.5914C294.888 32.5914 295.695 32.7714 296.415 33.1314C297.135 33.4914 297.715 34.0114 298.155 34.6914V32.6714H299.515ZM294.135 41.5314C294.895 41.5314 295.582 41.3714 296.195 41.0514C296.808 40.7181 297.282 40.2581 297.615 39.6714C297.962 39.0847 298.135 38.4181 298.135 37.6714C298.135 36.9247 297.962 36.2647 297.615 35.6914C297.282 35.1047 296.808 34.6514 296.195 34.3314C295.595 33.9981 294.908 33.8314 294.135 33.8314C293.375 33.8314 292.688 33.9914 292.075 34.3114C291.475 34.6314 291.002 35.0847 290.655 35.6714C290.322 36.2581 290.155 36.9247 290.155 37.6714C290.155 38.4181 290.322 39.0847 290.655 39.6714C291.002 40.2581 291.475 40.7181 292.075 41.0514C292.688 41.3714 293.375 41.5314 294.135 41.5314ZM318.32 28.3514V43.1914H316.96V41.1114C316.534 41.8181 315.967 42.3581 315.26 42.7314C314.567 43.1047 313.78 43.2914 312.9 43.2914C311.914 43.2914 311.02 43.0647 310.22 42.6114C309.42 42.1581 308.794 41.5247 308.34 40.7114C307.887 39.8981 307.66 38.9714 307.66 37.9314C307.66 36.8914 307.887 35.9647 308.34 35.1514C308.794 34.3381 309.42 33.7114 310.22 33.2714C311.02 32.8181 311.914 32.5914 312.9 32.5914C313.754 32.5914 314.52 32.7714 315.2 33.1314C315.894 33.4781 316.46 33.9914 316.9 34.6714V28.3514H318.32ZM313.02 42.0314C313.754 42.0314 314.414 41.8647 315 41.5314C315.6 41.1847 316.067 40.6981 316.4 40.0714C316.747 39.4447 316.92 38.7314 316.92 37.9314C316.92 37.1314 316.747 36.4181 316.4 35.7914C316.067 35.1647 315.6 34.6847 315 34.3514C314.414 34.0047 313.754 33.8314 313.02 33.8314C312.274 33.8314 311.6 34.0047 311 34.3514C310.414 34.6847 309.947 35.1647 309.6 35.7914C309.267 36.4181 309.1 37.1314 309.1 37.9314C309.1 38.7314 309.267 39.4447 309.6 40.0714C309.947 40.6981 310.414 41.1847 311 41.5314C311.6 41.8647 312.274 42.0314 313.02 42.0314ZM322.275 32.6714H323.695V43.1914H322.275V32.6714ZM322.995 30.3714C322.702 30.3714 322.455 30.2714 322.255 30.0714C322.055 29.8714 321.955 29.6314 321.955 29.3514C321.955 29.0847 322.055 28.8514 322.255 28.6514C322.455 28.4514 322.702 28.3514 322.995 28.3514C323.288 28.3514 323.535 28.4514 323.735 28.6514C323.935 28.8381 324.035 29.0647 324.035 29.3314C324.035 29.6247 323.935 29.8714 323.735 30.0714C323.535 30.2714 323.288 30.3714 322.995 30.3714ZM331.126 29.4514C330.513 29.4514 330.046 29.6181 329.726 29.9514C329.419 30.2847 329.266 30.7781 329.266 31.4314V32.6714H332.506V33.8714H329.306V43.1914H327.886V33.8714H326.006V32.6714H327.886V31.3714C327.886 30.4114 328.159 29.6514 328.706 29.0914C329.266 28.5314 330.053 28.2514 331.066 28.2514C331.466 28.2514 331.853 28.3114 332.226 28.4314C332.599 28.5381 332.913 28.6981 333.166 28.9114L332.686 29.9714C332.273 29.6247 331.753 29.4514 331.126 29.4514ZM337.903 29.4514C337.29 29.4514 336.823 29.6181 336.503 29.9514C336.197 30.2847 336.043 30.7781 336.043 31.4314V32.6714H339.283V33.8714H336.083V43.1914H334.663V33.8714H332.783V32.6714H334.663V31.3714C334.663 30.4114 334.937 29.6514 335.483 29.0914C336.043 28.5314 336.83 28.2514 337.843 28.2514C338.243 28.2514 338.63 28.3114 339.003 28.4314C339.377 28.5381 339.69 28.6981 339.943 28.9114L339.463 29.9714C339.05 29.6247 338.53 29.4514 337.903 29.4514ZM350.185 38.3714H341.385C341.465 39.4647 341.885 40.3514 342.645 41.0314C343.405 41.6981 344.365 42.0314 345.525 42.0314C346.178 42.0314 346.778 41.9181 347.325 41.6914C347.872 41.4514 348.345 41.1047 348.745 40.6514L349.545 41.5714C349.078 42.1314 348.492 42.5581 347.785 42.8514C347.092 43.1447 346.325 43.2914 345.485 43.2914C344.405 43.2914 343.445 43.0647 342.605 42.6114C341.778 42.1447 341.132 41.5047 340.665 40.6914C340.198 39.8781 339.965 38.9581 339.965 37.9314C339.965 36.9047 340.185 35.9847 340.625 35.1714C341.078 34.3581 341.692 33.7247 342.465 33.2714C343.252 32.8181 344.132 32.5914 345.105 32.5914C346.078 32.5914 346.952 32.8181 347.725 33.2714C348.498 33.7247 349.105 34.3581 349.545 35.1714C349.985 35.9714 350.205 36.8914 350.205 37.9314L350.185 38.3714ZM345.105 33.8114C344.092 33.8114 343.238 34.1381 342.545 34.7914C341.865 35.4314 341.478 36.2714 341.385 37.3114H348.845C348.752 36.2714 348.358 35.4314 347.665 34.7914C346.985 34.1381 346.132 33.8114 345.105 33.8114ZM354.455 34.7314C354.789 34.0247 355.282 33.4914 355.935 33.1314C356.602 32.7714 357.422 32.5914 358.395 32.5914V33.9714L358.055 33.9514C356.949 33.9514 356.082 34.2914 355.455 34.9714C354.829 35.6514 354.515 36.6047 354.515 37.8314V43.1914H353.095V32.6714H354.455V34.7314ZM370.029 38.3714H361.229C361.309 39.4647 361.729 40.3514 362.489 41.0314C363.249 41.6981 364.209 42.0314 365.369 42.0314C366.022 42.0314 366.622 41.9181 367.169 41.6914C367.715 41.4514 368.189 41.1047 368.589 40.6514L369.389 41.5714C368.922 42.1314 368.335 42.5581 367.629 42.8514C366.935 43.1447 366.169 43.2914 365.329 43.2914C364.249 43.2914 363.289 43.0647 362.449 42.6114C361.622 42.1447 360.975 41.5047 360.509 40.6914C360.042 39.8781 359.809 38.9581 359.809 37.9314C359.809 36.9047 360.029 35.9847 360.469 35.1714C360.922 34.3581 361.535 33.7247 362.309 33.2714C363.095 32.8181 363.975 32.5914 364.949 32.5914C365.922 32.5914 366.795 32.8181 367.569 33.2714C368.342 33.7247 368.949 34.3581 369.389 35.1714C369.829 35.9714 370.049 36.8914 370.049 37.9314L370.029 38.3714ZM364.949 33.8114C363.935 33.8114 363.082 34.1381 362.389 34.7914C361.709 35.4314 361.322 36.2714 361.229 37.3114H368.689C368.595 36.2714 368.202 35.4314 367.509 34.7914C366.829 34.1381 365.975 33.8114 364.949 33.8114ZM378.299 32.5914C379.619 32.5914 380.666 32.9781 381.439 33.7514C382.226 34.5114 382.619 35.6247 382.619 37.0914V43.1914H381.199V37.2314C381.199 36.1381 380.926 35.3047 380.379 34.7314C379.832 34.1581 379.052 33.8714 378.039 33.8714C376.906 33.8714 376.006 34.2114 375.339 34.8914C374.686 35.5581 374.359 36.4847 374.359 37.6714V43.1914H372.939V32.6714H374.299V34.6114C374.686 33.9714 375.219 33.4781 375.899 33.1314C376.592 32.7714 377.392 32.5914 378.299 32.5914ZM390.873 43.2914C389.833 43.2914 388.9 43.0647 388.073 42.6114C387.26 42.1581 386.62 41.5247 386.153 40.7114C385.687 39.8847 385.453 38.9581 385.453 37.9314C385.453 36.9047 385.687 35.9847 386.153 35.1714C386.62 34.3581 387.26 33.7247 388.073 33.2714C388.9 32.8181 389.833 32.5914 390.873 32.5914C391.78 32.5914 392.587 32.7714 393.293 33.1314C394.013 33.4781 394.58 33.9914 394.993 34.6714L393.933 35.3914C393.587 34.8714 393.147 34.4847 392.613 34.2314C392.08 33.9647 391.5 33.8314 390.873 33.8314C390.113 33.8314 389.427 34.0047 388.813 34.3514C388.213 34.6847 387.74 35.1647 387.393 35.7914C387.06 36.4181 386.893 37.1314 386.893 37.9314C386.893 38.7447 387.06 39.4647 387.393 40.0914C387.74 40.7047 388.213 41.1847 388.813 41.5314C389.427 41.8647 390.113 42.0314 390.873 42.0314C391.5 42.0314 392.08 41.9047 392.613 41.6514C393.147 41.3981 393.587 41.0114 393.933 40.4914L394.993 41.2114C394.58 41.8914 394.013 42.4114 393.293 42.7714C392.573 43.1181 391.767 43.2914 390.873 43.2914ZM406.767 38.3714H397.967C398.047 39.4647 398.467 40.3514 399.227 41.0314C399.987 41.6981 400.947 42.0314 402.107 42.0314C402.76 42.0314 403.36 41.9181 403.907 41.6914C404.454 41.4514 404.927 41.1047 405.327 40.6514L406.127 41.5714C405.66 42.1314 405.074 42.5581 404.367 42.8514C403.674 43.1447 402.907 43.2914 402.067 43.2914C400.987 43.2914 400.027 43.0647 399.187 42.6114C398.36 42.1447 397.714 41.5047 397.247 40.6914C396.78 39.8781 396.547 38.9581 396.547 37.9314C396.547 36.9047 396.767 35.9847 397.207 35.1714C397.66 34.3581 398.274 33.7247 399.047 33.2714C399.834 32.8181 400.714 32.5914 401.687 32.5914C402.66 32.5914 403.534 32.8181 404.307 33.2714C405.08 33.7247 405.687 34.3581 406.127 35.1714C406.567 35.9714 406.787 36.8914 406.787 37.9314L406.767 38.3714ZM401.687 33.8114C400.674 33.8114 399.82 34.1381 399.127 34.7914C398.447 35.4314 398.06 36.2714 397.967 37.3114H405.427C405.334 36.2714 404.94 35.4314 404.247 34.7914C403.567 34.1381 402.714 33.8114 401.687 33.8114ZM430.352 32.6714L426.372 43.1914H425.032L421.712 34.5714L418.392 43.1914H417.052L413.092 32.6714H414.452L417.752 41.6114L421.132 32.6714H422.352L425.712 41.6114L429.052 32.6714H430.352ZM437.85 32.5914C439.17 32.5914 440.216 32.9781 440.99 33.7514C441.776 34.5114 442.17 35.6247 442.17 37.0914V43.1914H440.75V37.2314C440.75 36.1381 440.476 35.3047 439.93 34.7314C439.383 34.1581 438.603 33.8714 437.59 33.8714C436.456 33.8714 435.556 34.2114 434.89 34.8914C434.236 35.5581 433.91 36.4847 433.91 37.6714V43.1914H432.49V28.3514H433.91V34.5114C434.296 33.8981 434.83 33.4247 435.51 33.0914C436.19 32.7581 436.97 32.5914 437.85 32.5914ZM455.224 38.3714H446.424C446.504 39.4647 446.924 40.3514 447.684 41.0314C448.444 41.6981 449.404 42.0314 450.564 42.0314C451.217 42.0314 451.817 41.9181 452.364 41.6914C452.911 41.4514 453.384 41.1047 453.784 40.6514L454.584 41.5714C454.117 42.1314 453.531 42.5581 452.824 42.8514C452.131 43.1447 451.364 43.2914 450.524 43.2914C449.444 43.2914 448.484 43.0647 447.644 42.6114C446.817 42.1447 446.171 41.5047 445.704 40.6914C445.237 39.8781 445.004 38.9581 445.004 37.9314C445.004 36.9047 445.224 35.9847 445.664 35.1714C446.117 34.3581 446.731 33.7247 447.504 33.2714C448.291 32.8181 449.171 32.5914 450.144 32.5914C451.117 32.5914 451.991 32.8181 452.764 33.2714C453.537 33.7247 454.144 34.3581 454.584 35.1714C455.024 35.9714 455.244 36.8914 455.244 37.9314L455.224 38.3714ZM450.144 33.8114C449.131 33.8114 448.277 34.1381 447.584 34.7914C446.904 35.4314 446.517 36.2714 446.424 37.3114H453.884C453.791 36.2714 453.397 35.4314 452.704 34.7914C452.024 34.1381 451.171 33.8114 450.144 33.8114ZM463.494 32.5914C464.814 32.5914 465.861 32.9781 466.634 33.7514C467.421 34.5114 467.814 35.6247 467.814 37.0914V43.1914H466.394V37.2314C466.394 36.1381 466.121 35.3047 465.574 34.7314C465.028 34.1581 464.248 33.8714 463.234 33.8714C462.101 33.8714 461.201 34.2114 460.534 34.8914C459.881 35.5581 459.554 36.4847 459.554 37.6714V43.1914H458.134V32.6714H459.494V34.6114C459.881 33.9714 460.414 33.4781 461.094 33.1314C461.788 32.7714 462.588 32.5914 463.494 32.5914ZM279.689 56.6714L274.429 68.4514C274.002 69.4381 273.509 70.1381 272.949 70.5514C272.389 70.9647 271.716 71.1714 270.929 71.1714C270.422 71.1714 269.949 71.0914 269.509 70.9314C269.069 70.7714 268.689 70.5314 268.369 70.2114L269.029 69.1514C269.562 69.6847 270.202 69.9514 270.949 69.9514C271.429 69.9514 271.836 69.8181 272.169 69.5514C272.516 69.2847 272.836 68.8314 273.129 68.1914L273.589 67.1714L268.889 56.6714H270.369L274.329 65.6114L278.289 56.6714H279.689ZM285.696 67.2914C284.683 67.2914 283.769 67.0647 282.956 66.6114C282.143 66.1447 281.503 65.5047 281.036 64.6914C280.569 63.8781 280.336 62.9581 280.336 61.9314C280.336 60.9047 280.569 59.9847 281.036 59.1714C281.503 58.3581 282.143 57.7247 282.956 57.2714C283.769 56.8181 284.683 56.5914 285.696 56.5914C286.709 56.5914 287.623 56.8181 288.436 57.2714C289.249 57.7247 289.883 58.3581 290.336 59.1714C290.803 59.9847 291.036 60.9047 291.036 61.9314C291.036 62.9581 290.803 63.8781 290.336 64.6914C289.883 65.5047 289.249 66.1447 288.436 66.6114C287.623 67.0647 286.709 67.2914 285.696 67.2914ZM285.696 66.0314C286.443 66.0314 287.109 65.8647 287.696 65.5314C288.296 65.1847 288.763 64.6981 289.096 64.0714C289.429 63.4447 289.596 62.7314 289.596 61.9314C289.596 61.1314 289.429 60.4181 289.096 59.7914C288.763 59.1647 288.296 58.6847 287.696 58.3514C287.109 58.0047 286.443 57.8314 285.696 57.8314C284.949 57.8314 284.276 58.0047 283.676 58.3514C283.089 58.6847 282.623 59.1647 282.276 59.7914C281.943 60.4181 281.776 61.1314 281.776 61.9314C281.776 62.7314 281.943 63.4447 282.276 64.0714C282.623 64.6981 283.089 65.1847 283.676 65.5314C284.276 65.8647 284.949 66.0314 285.696 66.0314ZM303.415 56.6714V67.1914H302.055V65.2714C301.682 65.9114 301.168 66.4114 300.515 66.7714C299.862 67.1181 299.115 67.2914 298.275 67.2914C296.902 67.2914 295.815 66.9114 295.015 66.1514C294.228 65.3781 293.835 64.2514 293.835 62.7714V56.6714H295.255V62.6314C295.255 63.7381 295.528 64.5781 296.075 65.1514C296.622 65.7247 297.402 66.0114 298.415 66.0114C299.522 66.0114 300.395 65.6781 301.035 65.0114C301.675 64.3314 301.995 63.3914 301.995 62.1914V56.6714H303.415ZM316.926 67.2914C315.913 67.2914 315 67.0647 314.186 66.6114C313.373 66.1447 312.733 65.5047 312.266 64.6914C311.8 63.8781 311.566 62.9581 311.566 61.9314C311.566 60.9047 311.8 59.9847 312.266 59.1714C312.733 58.3581 313.373 57.7247 314.186 57.2714C315 56.8181 315.913 56.5914 316.926 56.5914C317.94 56.5914 318.853 56.8181 319.666 57.2714C320.48 57.7247 321.113 58.3581 321.566 59.1714C322.033 59.9847 322.266 60.9047 322.266 61.9314C322.266 62.9581 322.033 63.8781 321.566 64.6914C321.113 65.5047 320.48 66.1447 319.666 66.6114C318.853 67.0647 317.94 67.2914 316.926 67.2914ZM316.926 66.0314C317.673 66.0314 318.34 65.8647 318.926 65.5314C319.526 65.1847 319.993 64.6981 320.326 64.0714C320.66 63.4447 320.826 62.7314 320.826 61.9314C320.826 61.1314 320.66 60.4181 320.326 59.7914C319.993 59.1647 319.526 58.6847 318.926 58.3514C318.34 58.0047 317.673 57.8314 316.926 57.8314C316.18 57.8314 315.506 58.0047 314.906 58.3514C314.32 58.6847 313.853 59.1647 313.506 59.7914C313.173 60.4181 313.006 61.1314 313.006 61.9314C313.006 62.7314 313.173 63.4447 313.506 64.0714C313.853 64.6981 314.32 65.1847 314.906 65.5314C315.506 65.8647 316.18 66.0314 316.926 66.0314ZM326.526 58.7314C326.859 58.0247 327.352 57.4914 328.006 57.1314C328.672 56.7714 329.492 56.5914 330.466 56.5914V57.9714L330.126 57.9514C329.019 57.9514 328.152 58.2914 327.526 58.9714C326.899 59.6514 326.586 60.6047 326.586 61.8314V67.1914H325.166V56.6714H326.526V58.7314ZM342.539 52.3514V67.1914H341.179V65.1114C340.752 65.8181 340.186 66.3581 339.479 66.7314C338.786 67.1047 337.999 67.2914 337.119 67.2914C336.132 67.2914 335.239 67.0647 334.439 66.6114C333.639 66.1581 333.012 65.5247 332.559 64.7114C332.106 63.8981 331.879 62.9714 331.879 61.9314C331.879 60.8914 332.106 59.9647 332.559 59.1514C333.012 58.3381 333.639 57.7114 334.439 57.2714C335.239 56.8181 336.132 56.5914 337.119 56.5914C337.972 56.5914 338.739 56.7714 339.419 57.1314C340.112 57.4781 340.679 57.9914 341.119 58.6714V52.3514H342.539ZM337.239 66.0314C337.972 66.0314 338.632 65.8647 339.219 65.5314C339.819 65.1847 340.286 64.6981 340.619 64.0714C340.966 63.4447 341.139 62.7314 341.139 61.9314C341.139 61.1314 340.966 60.4181 340.619 59.7914C340.286 59.1647 339.819 58.6847 339.219 58.3514C338.632 58.0047 337.972 57.8314 337.239 57.8314C336.492 57.8314 335.819 58.0047 335.219 58.3514C334.632 58.6847 334.166 59.1647 333.819 59.7914C333.486 60.4181 333.319 61.1314 333.319 61.9314C333.319 62.7314 333.486 63.4447 333.819 64.0714C334.166 64.6981 334.632 65.1847 335.219 65.5314C335.819 65.8647 336.492 66.0314 337.239 66.0314ZM355.654 62.3714H346.854C346.934 63.4647 347.354 64.3514 348.114 65.0314C348.874 65.6981 349.834 66.0314 350.994 66.0314C351.647 66.0314 352.247 65.9181 352.794 65.6914C353.34 65.4514 353.814 65.1047 354.214 64.6514L355.014 65.5714C354.547 66.1314 353.96 66.5581 353.254 66.8514C352.56 67.1447 351.794 67.2914 350.954 67.2914C349.874 67.2914 348.914 67.0647 348.074 66.6114C347.247 66.1447 346.6 65.5047 346.134 64.6914C345.667 63.8781 345.434 62.9581 345.434 61.9314C345.434 60.9047 345.654 59.9847 346.094 59.1714C346.547 58.3581 347.16 57.7247 347.934 57.2714C348.72 56.8181 349.6 56.5914 350.574 56.5914C351.547 56.5914 352.42 56.8181 353.194 57.2714C353.967 57.7247 354.574 58.3581 355.014 59.1714C355.454 59.9714 355.674 60.8914 355.674 61.9314L355.654 62.3714ZM350.574 57.8114C349.56 57.8114 348.707 58.1381 348.014 58.7914C347.334 59.4314 346.947 60.2714 346.854 61.3114H354.314C354.22 60.2714 353.827 59.4314 353.134 58.7914C352.454 58.1381 351.6 57.8114 350.574 57.8114ZM359.924 58.7314C360.257 58.0247 360.751 57.4914 361.404 57.1314C362.071 56.7714 362.891 56.5914 363.864 56.5914V57.9714L363.524 57.9514C362.417 57.9514 361.551 58.2914 360.924 58.9714C360.297 59.6514 359.984 60.6047 359.984 61.8314V67.1914H358.564V56.6714H359.924V58.7314ZM381.566 56.6714V65.9114C381.566 67.6981 381.126 69.0181 380.246 69.8714C379.379 70.7381 378.066 71.1714 376.306 71.1714C375.332 71.1714 374.406 71.0247 373.526 70.7314C372.659 70.4514 371.952 70.0581 371.406 69.5514L372.126 68.4714C372.632 68.9247 373.246 69.2781 373.966 69.5314C374.699 69.7847 375.466 69.9114 376.266 69.9114C377.599 69.9114 378.579 69.5981 379.206 68.9714C379.832 68.3581 380.146 67.3981 380.146 66.0914V64.7514C379.706 65.4181 379.126 65.9247 378.406 66.2714C377.699 66.6181 376.912 66.7914 376.046 66.7914C375.059 66.7914 374.159 66.5781 373.346 66.1514C372.546 65.7114 371.912 65.1047 371.446 64.3314C370.992 63.5447 370.766 62.6581 370.766 61.6714C370.766 60.6847 370.992 59.8047 371.446 59.0314C371.912 58.2581 372.546 57.6581 373.346 57.2314C374.146 56.8047 375.046 56.5914 376.046 56.5914C376.939 56.5914 377.746 56.7714 378.466 57.1314C379.186 57.4914 379.766 58.0114 380.206 58.6914V56.6714H381.566ZM376.186 65.5314C376.946 65.5314 377.632 65.3714 378.246 65.0514C378.859 64.7181 379.332 64.2581 379.666 63.6714C380.012 63.0847 380.186 62.4181 380.186 61.6714C380.186 60.9247 380.012 60.2647 379.666 59.6914C379.332 59.1047 378.859 58.6514 378.246 58.3314C377.646 57.9981 376.959 57.8314 376.186 57.8314C375.426 57.8314 374.739 57.9914 374.126 58.3114C373.526 58.6314 373.052 59.0847 372.706 59.6714C372.372 60.2581 372.206 60.9247 372.206 61.6714C372.206 62.4181 372.372 63.0847 372.706 63.6714C373.052 64.2581 373.526 64.7181 374.126 65.0514C374.739 65.3714 375.426 65.5314 376.186 65.5314ZM385.537 56.6714H386.957V67.1914H385.537V56.6714ZM386.257 54.3714C385.963 54.3714 385.717 54.2714 385.517 54.0714C385.317 53.8714 385.217 53.6314 385.217 53.3514C385.217 53.0847 385.317 52.8514 385.517 52.6514C385.717 52.4514 385.963 52.3514 386.257 52.3514C386.55 52.3514 386.797 52.4514 386.997 52.6514C387.197 52.8381 387.297 53.0647 387.297 53.3314C387.297 53.6247 387.197 53.8714 386.997 54.0714C386.797 54.2714 386.55 54.3714 386.257 54.3714ZM394.388 53.4514C393.774 53.4514 393.308 53.6181 392.988 53.9514C392.681 54.2847 392.528 54.7781 392.528 55.4314V56.6714H395.768V57.8714H392.568V67.1914H391.148V57.8714H389.268V56.6714H391.148V55.3714C391.148 54.4114 391.421 53.6514 391.968 53.0914C392.528 52.5314 393.314 52.2514 394.328 52.2514C394.728 52.2514 395.114 52.3114 395.488 52.4314C395.861 52.5381 396.174 52.6981 396.428 52.9114L395.948 53.9714C395.534 53.6247 395.014 53.4514 394.388 53.4514ZM403.225 66.5514C402.958 66.7914 402.625 66.9781 402.225 67.1114C401.838 67.2314 401.432 67.2914 401.005 67.2914C400.018 67.2914 399.258 67.0247 398.725 66.4914C398.192 65.9581 397.925 65.2047 397.925 64.2314V57.8714H396.045V56.6714H397.925V54.3714H399.345V56.6714H402.545V57.8714H399.345V64.1514C399.345 64.7781 399.498 65.2581 399.805 65.5914C400.125 65.9114 400.578 66.0714 401.165 66.0714C401.458 66.0714 401.738 66.0247 402.005 65.9314C402.285 65.8381 402.525 65.7047 402.725 65.5314L403.225 66.5514ZM408.63 67.2914C407.777 67.2914 406.957 67.1714 406.17 66.9314C405.397 66.6781 404.79 66.3647 404.35 65.9914L404.99 64.8714C405.43 65.2181 405.983 65.5047 406.65 65.7314C407.317 65.9447 408.01 66.0514 408.73 66.0514C409.69 66.0514 410.397 65.9047 410.85 65.6114C411.317 65.3047 411.55 64.8781 411.55 64.3314C411.55 63.9447 411.423 63.6447 411.17 63.4314C410.917 63.2047 410.597 63.0381 410.21 62.9314C409.823 62.8114 409.31 62.6981 408.67 62.5914C407.817 62.4314 407.13 62.2714 406.61 62.1114C406.09 61.9381 405.643 61.6514 405.27 61.2514C404.91 60.8514 404.73 60.2981 404.73 59.5914C404.73 58.7114 405.097 57.9914 405.83 57.4314C406.563 56.8714 407.583 56.5914 408.89 56.5914C409.57 56.5914 410.25 56.6847 410.93 56.8714C411.61 57.0447 412.17 57.2781 412.61 57.5714L411.99 58.7114C411.123 58.1114 410.09 57.8114 408.89 57.8114C407.983 57.8114 407.297 57.9714 406.83 58.2914C406.377 58.6114 406.15 59.0314 406.15 59.5514C406.15 59.9514 406.277 60.2714 406.53 60.5114C406.797 60.7514 407.123 60.9314 407.51 61.0514C407.897 61.1581 408.43 61.2714 409.11 61.3914C409.95 61.5514 410.623 61.7114 411.13 61.8714C411.637 62.0314 412.07 62.3047 412.43 62.6914C412.79 63.0781 412.97 63.6114 412.97 64.2914C412.97 65.2114 412.583 65.9447 411.81 66.4914C411.05 67.0247 409.99 67.2914 408.63 67.2914ZM417.964 62.9914C417.964 62.4447 418.05 61.9647 418.224 61.5514C418.41 61.1381 418.637 60.7847 418.904 60.4914C419.17 60.1981 419.517 59.8647 419.944 59.4914C420.517 58.9847 420.937 58.5447 421.204 58.1714C421.484 57.7847 421.624 57.3181 421.624 56.7714C421.624 56.0381 421.337 55.4514 420.764 55.0114C420.19 54.5581 419.404 54.3314 418.404 54.3314C416.75 54.3314 415.477 54.8714 414.584 55.9514L413.524 55.1514C414.657 53.7647 416.317 53.0714 418.504 53.0714C419.904 53.0714 421.017 53.3847 421.844 54.0114C422.684 54.6381 423.104 55.4847 423.104 56.5514C423.104 57.0981 423.01 57.5847 422.824 58.0114C422.65 58.4247 422.43 58.7781 422.164 59.0714C421.91 59.3647 421.57 59.7047 421.144 60.0914C420.57 60.6114 420.144 61.0781 419.864 61.4914C419.584 61.8914 419.444 62.3914 419.444 62.9914H417.964ZM418.704 67.2914C418.41 67.2914 418.164 67.1914 417.964 66.9914C417.764 66.7781 417.664 66.5314 417.664 66.2514C417.664 65.9581 417.764 65.7181 417.964 65.5314C418.164 65.3314 418.41 65.2314 418.704 65.2314C419.01 65.2314 419.264 65.3314 419.464 65.5314C419.664 65.7181 419.764 65.9581 419.764 66.2514C419.764 66.5314 419.657 66.7781 419.444 66.9914C419.244 67.1914 418.997 67.2914 418.704 67.2914Z" fill="#4B4A51"/>
<path fill-rule="evenodd" clip-rule="evenodd" d="M212.958 189.985C228.475 169.431 236.869 144.38 236.869 118.626H118.435L171.102 12.5465C148.035 1.09404 121.864 -2.52763 96.554 2.23031C71.2439 6.98824 48.1744 19.8665 30.841 38.9136C13.5076 57.9608 2.85504 82.1388 0.497441 107.784C-1.86016 133.429 4.20569 159.144 17.7759 181.032C31.346 202.921 51.6809 219.789 75.6994 229.082C99.7178 238.375 126.111 239.585 150.879 232.53C175.647 225.475 197.441 210.539 212.958 189.985Z" fill="#55C5CE"/>
<path fill-rule="evenodd" clip-rule="evenodd" d="M219.039 56.1348C207.384 37.3737 190.716 22.2452 170.917 12.458L118.435 118.629L236.869 118.628C236.869 96.5419 230.693 74.8958 219.039 56.1348Z" fill="#B49B96"/>
<circle cx="118.369" cy="120.485" r="58.5" fill="white"/>
<circle cx="273.5" cy="129.691" r="4.5" fill="#55C5CE"/>
<circle cx="273.5" cy="157.691" r="4.5" fill="#B49B96"/>
<path d="M47.4371 177.379C48.1571 177.655 48.7091 178.051 49.0931 178.567C49.4771 179.083 49.6691 179.701 49.6691 180.421C49.6691 181.177 49.4651 181.837 49.0571 182.401C48.6491 182.953 48.0671 183.379 47.3111 183.679C46.5551 183.979 45.6671 184.129 44.6471 184.129C43.6391 184.129 42.7571 183.979 42.0011 183.679C41.2571 183.379 40.6811 182.953 40.2731 182.401C39.8651 181.837 39.6611 181.177 39.6611 180.421C39.6611 179.701 39.8471 179.083 40.2191 178.567C40.6031 178.051 41.1551 177.655 41.8751 177.379C41.2991 177.103 40.8611 176.737 40.5611 176.281C40.2611 175.825 40.1111 175.285 40.1111 174.661C40.1111 173.965 40.2971 173.359 40.6691 172.843C41.0531 172.327 41.5871 171.931 42.2711 171.655C42.9551 171.379 43.7471 171.241 44.6471 171.241C45.5591 171.241 46.3571 171.379 47.0411 171.655C47.7371 171.931 48.2711 172.327 48.6431 172.843C49.0271 173.359 49.2191 173.965 49.2191 174.661C49.2191 175.273 49.0631 175.813 48.7511 176.281C48.4511 176.737 48.0131 177.103 47.4371 177.379ZM44.6471 172.699C43.7951 172.699 43.1231 172.885 42.6311 173.257C42.1391 173.617 41.8931 174.109 41.8931 174.733C41.8931 175.357 42.1331 175.849 42.6131 176.209C43.1051 176.569 43.7831 176.749 44.6471 176.749C45.5231 176.749 46.2071 176.569 46.6991 176.209C47.2031 175.849 47.4551 175.357 47.4551 174.733C47.4551 174.109 47.1971 173.617 46.6811 173.257C46.1771 172.885 45.4991 172.699 44.6471 172.699ZM44.6471 182.671C45.6431 182.671 46.4291 182.467 47.0051 182.059C47.5811 181.639 47.8691 181.075 47.8691 180.367C47.8691 179.671 47.5811 179.125 47.0051 178.729C46.4291 178.321 45.6431 178.117 44.6471 178.117C43.6511 178.117 42.8711 178.321 42.3071 178.729C41.7431 179.125 41.4611 179.671 41.4611 180.367C41.4611 181.075 41.7431 181.639 42.3071 182.059C42.8711 182.467 43.6511 182.671 44.6471 182.671ZM55.2231 171.385V183.985H53.4411V172.951H50.5971V171.385H55.2231ZM65.5492 178.153C64.6732 178.153 63.9652 177.835 63.4252 177.199C62.8852 176.563 62.6152 175.735 62.6152 174.715C62.6152 173.695 62.8852 172.867 63.4252 172.231C63.9652 171.595 64.6732 171.277 65.5492 171.277C66.4252 171.277 67.1272 171.595 67.6552 172.231C68.1952 172.855 68.4652 173.683 68.4652 174.715C68.4652 175.747 68.1952 176.581 67.6552 177.217C67.1272 177.841 66.4252 178.153 65.5492 178.153ZM73.1452 171.385H74.5312L65.9272 183.985H64.5412L73.1452 171.385ZM65.5492 177.127C66.1012 177.127 66.5332 176.917 66.8452 176.497C67.1572 176.065 67.3132 175.471 67.3132 174.715C67.3132 173.959 67.1572 173.371 66.8452 172.951C66.5332 172.519 66.1012 172.303 65.5492 172.303C65.0092 172.303 64.5772 172.519 64.2532 172.951C63.9412 173.383 63.7852 173.971 63.7852 174.715C63.7852 175.459 63.9412 176.047 64.2532 176.479C64.5772 176.911 65.0092 177.127 65.5492 177.127ZM73.5232 184.093C72.6472 184.093 71.9392 183.781 71.3992 183.157C70.8712 182.521 70.6072 181.687 70.6072 180.655C70.6072 179.623 70.8712 178.795 71.3992 178.171C71.9392 177.535 72.6472 177.217 73.5232 177.217C74.3992 177.217 75.1072 177.535 75.6472 178.171C76.1872 178.807 76.4572 179.635 76.4572 180.655C76.4572 181.675 76.1872 182.503 75.6472 183.139C75.1072 183.775 74.3992 184.093 73.5232 184.093ZM73.5232 183.067C74.0632 183.067 74.4892 182.851 74.8012 182.419C75.1252 181.987 75.2872 181.399 75.2872 180.655C75.2872 179.911 75.1252 179.323 74.8012 178.891C74.4892 178.459 74.0632 178.243 73.5232 178.243C72.9712 178.243 72.5392 178.459 72.2272 178.891C71.9152 179.311 71.7592 179.899 71.7592 180.655C71.7592 181.411 71.9152 182.005 72.2272 182.437C72.5392 182.857 72.9712 183.067 73.5232 183.067Z" fill="white"/>
<path d="M181.639 69.3854V81.9854H179.857V70.9514H177.013V69.3854H181.639ZM188.481 69.2414C190.173 69.2414 191.475 69.7874 192.387 70.8794C193.311 71.9714 193.773 73.5194 193.773 75.5234C193.773 76.9274 193.521 78.1274 193.017 79.1234C192.525 80.1074 191.829 80.8574 190.929 81.3734C190.041 81.8774 189.003 82.1294 187.815 82.1294C187.203 82.1294 186.627 82.0694 186.087 81.9494C185.547 81.8174 185.079 81.6314 184.683 81.3914L185.367 79.9874C185.979 80.3834 186.789 80.5814 187.797 80.5814C189.105 80.5814 190.125 80.1794 190.857 79.3754C191.601 78.5594 191.973 77.3774 191.973 75.8294V75.3794C191.613 75.9194 191.115 76.3334 190.479 76.6214C189.843 76.8974 189.129 77.0354 188.337 77.0354C187.509 77.0354 186.765 76.8794 186.105 76.5674C185.457 76.2554 184.947 75.8114 184.575 75.2354C184.215 74.6474 184.035 73.9754 184.035 73.2194C184.035 72.4274 184.227 71.7314 184.611 71.1314C185.007 70.5314 185.541 70.0694 186.213 69.7454C186.885 69.4094 187.641 69.2414 188.481 69.2414ZM188.643 75.5774C189.207 75.5774 189.711 75.4694 190.155 75.2534C190.599 75.0374 190.941 74.7434 191.181 74.3714C191.433 73.9994 191.559 73.5854 191.559 73.1294C191.559 72.6854 191.439 72.2834 191.199 71.9234C190.971 71.5514 190.629 71.2574 190.173 71.0414C189.729 70.8134 189.189 70.6994 188.553 70.6994C187.725 70.6994 187.053 70.9214 186.537 71.3654C186.033 71.8094 185.781 72.4034 185.781 73.1474C185.781 73.8914 186.039 74.4854 186.555 74.9294C187.071 75.3614 187.767 75.5774 188.643 75.5774ZM203.075 76.1534C202.199 76.1534 201.491 75.8354 200.951 75.1994C200.411 74.5634 200.141 73.7354 200.141 72.7154C200.141 71.6954 200.411 70.8674 200.951 70.2314C201.491 69.5954 202.199 69.2774 203.075 69.2774C203.951 69.2774 204.653 69.5954 205.181 70.2314C205.721 70.8554 205.991 71.6834 205.991 72.7154C205.991 73.7474 205.721 74.5814 205.181 75.2174C204.653 75.8414 203.951 76.1534 203.075 76.1534ZM210.671 69.3854H212.057L203.453 81.9854H202.067L210.671 69.3854ZM203.075 75.1274C203.627 75.1274 204.059 74.9174 204.371 74.4974C204.683 74.0654 204.839 73.4714 204.839 72.7154C204.839 71.9594 204.683 71.3714 204.371 70.9514C204.059 70.5194 203.627 70.3034 203.075 70.3034C202.535 70.3034 202.103 70.5194 201.779 70.9514C201.467 71.3834 201.311 71.9714 201.311 72.7154C201.311 73.4594 201.467 74.0474 201.779 74.4794C202.103 74.9114 202.535 75.1274 203.075 75.1274ZM211.049 82.0934C210.173 82.0934 209.465 81.7814 208.925 81.1574C208.397 80.5214 208.133 79.6874 208.133 78.6554C208.133 77.6234 208.397 76.7954 208.925 76.1714C209.465 75.5354 210.173 75.2174 211.049 75.2174C211.925 75.2174 212.633 75.5354 213.173 76.1714C213.713 76.8074 213.983 77.6354 213.983 78.6554C213.983 79.6754 213.713 80.5034 213.173 81.1394C212.633 81.7754 211.925 82.0934 211.049 82.0934ZM211.049 81.0674C211.589 81.0674 212.015 80.8514 212.327 80.4194C212.651 79.9874 212.813 79.3994 212.813 78.6554C212.813 77.9114 212.651 77.3234 212.327 76.8914C212.015 76.4594 211.589 76.2434 211.049 76.2434C210.497 76.2434 210.065 76.4594 209.753 76.8914C209.441 77.3114 209.285 77.8994 209.285 78.6554C209.285 79.4114 209.441 80.0054 209.753 80.4374C210.065 80.8574 210.497 81.0674 211.049 81.0674Z" fill="white"/>
</svg>
