<svg width="384" height="377" viewBox="0 0 384 377" fill="none" xmlns="http://www.w3.org/2000/svg">
<ellipse rx="172.36" ry="151.685" transform="matrix(-0.509128 -0.860691 0.871201 -0.490927 176.832 166.814)" fill="#F9EBDF"/>
<ellipse rx="173.415" ry="150.773" transform="matrix(0.715635 -0.698475 0.715635 0.698475 165 215.815)" fill="#DACDCB" fill-opacity="0.2"/>
<ellipse cx="208.5" cy="189.196" rx="175.5" ry="149" fill="#FBFAFB"/>
<path d="M189.976 104.12H184.656V111H180.776V104.12H165.216V101.32L179.536 83H183.856L170.136 100.68H180.896V94.6H184.656V100.68H189.976V104.12ZM102.914 124L98.1941 138H96.6341L92.5341 126.06L88.4141 138H86.8741L82.1541 124H83.6741L87.7141 136.04L91.8941 124H93.2741L97.3941 136.1L101.494 124H102.914ZM115.528 136.72V138H105.628V124H115.228V125.28H107.108V130.26H114.348V131.52H107.108V136.72H115.528ZM128.907 136.72V138H119.007V124H128.607V125.28H120.487V130.26H127.727V131.52H120.487V136.72H128.907ZM136.725 131.42L133.865 134.32V138H132.385V124H133.865V132.46L142.085 124H143.785L137.725 130.34L144.205 138H142.445L136.725 131.42ZM150.171 138.12C149.131 138.12 148.131 137.953 147.171 137.62C146.225 137.287 145.491 136.847 144.971 136.3L145.551 135.16C146.058 135.667 146.731 136.08 147.571 136.4C148.411 136.707 149.278 136.86 150.171 136.86C151.425 136.86 152.365 136.633 152.991 136.18C153.618 135.713 153.931 135.113 153.931 134.38C153.931 133.82 153.758 133.373 153.411 133.04C153.078 132.707 152.665 132.453 152.171 132.28C151.678 132.093 150.991 131.893 150.111 131.68C149.058 131.413 148.218 131.16 147.591 130.92C146.965 130.667 146.425 130.287 145.971 129.78C145.531 129.273 145.311 128.587 145.311 127.72C145.311 127.013 145.498 126.373 145.871 125.8C146.245 125.213 146.818 124.747 147.591 124.4C148.365 124.053 149.325 123.88 150.471 123.88C151.271 123.88 152.051 123.993 152.811 124.22C153.585 124.433 154.251 124.733 154.811 125.12L154.311 126.3C153.725 125.913 153.098 125.627 152.431 125.44C151.765 125.24 151.111 125.14 150.471 125.14C149.245 125.14 148.318 125.38 147.691 125.86C147.078 126.327 146.771 126.933 146.771 127.68C146.771 128.24 146.938 128.693 147.271 129.04C147.618 129.373 148.045 129.633 148.551 129.82C149.071 129.993 149.765 130.187 150.631 130.4C151.658 130.653 152.485 130.907 153.111 131.16C153.751 131.4 154.291 131.773 154.731 132.28C155.171 132.773 155.391 133.447 155.391 134.3C155.391 135.007 155.198 135.653 154.811 136.24C154.438 136.813 153.858 137.273 153.071 137.62C152.285 137.953 151.318 138.12 150.171 138.12ZM163.85 124H169.55C171.03 124 172.337 124.3 173.47 124.9C174.604 125.487 175.484 126.313 176.11 127.38C176.737 128.433 177.05 129.64 177.05 131C177.05 132.36 176.737 133.573 176.11 134.64C175.484 135.693 174.604 136.52 173.47 137.12C172.337 137.707 171.03 138 169.55 138H163.85V124ZM169.47 136.72C170.697 136.72 171.77 136.48 172.69 136C173.61 135.507 174.324 134.833 174.83 133.98C175.337 133.113 175.59 132.12 175.59 131C175.59 129.88 175.337 128.893 174.83 128.04C174.324 127.173 173.61 126.5 172.69 126.02C171.77 125.527 170.697 125.28 169.47 125.28H165.33V136.72H169.47ZM186.014 138.12C184.2 138.12 182.787 137.6 181.774 136.56C180.76 135.52 180.254 134.007 180.254 132.02V124H181.734V131.96C181.734 133.587 182.1 134.8 182.834 135.6C183.567 136.4 184.627 136.8 186.014 136.8C187.414 136.8 188.48 136.4 189.214 135.6C189.947 134.8 190.314 133.587 190.314 131.96V124H191.754V132.02C191.754 134.007 191.247 135.52 190.234 136.56C189.234 137.6 187.827 138.12 186.014 138.12ZM205.774 138L202.574 133.5C202.214 133.54 201.84 133.56 201.454 133.56H197.694V138H196.214V124H201.454C203.24 124 204.64 124.427 205.654 125.28C206.667 126.133 207.174 127.307 207.174 128.8C207.174 129.893 206.894 130.82 206.334 131.58C205.787 132.327 205 132.867 203.974 133.2L207.394 138H205.774ZM201.414 132.3C202.8 132.3 203.86 131.993 204.594 131.38C205.327 130.767 205.694 129.907 205.694 128.8C205.694 127.667 205.327 126.8 204.594 126.2C203.86 125.587 202.8 125.28 201.414 125.28H197.694V132.3H201.414ZM219.447 134.26H211.647L209.967 138H208.427L214.827 124H216.287L222.687 138H221.127L219.447 134.26ZM218.907 133.06L215.547 125.54L212.187 133.06H218.907ZM227.02 125.28H222.1V124H233.42V125.28H228.5V138H227.02V125.28ZM235.784 124H237.264V138H235.784V124ZM247.939 138.12C246.552 138.12 245.292 137.813 244.159 137.2C243.039 136.573 242.159 135.72 241.519 134.64C240.892 133.56 240.579 132.347 240.579 131C240.579 129.653 240.892 128.44 241.519 127.36C242.159 126.28 243.039 125.433 244.159 124.82C245.292 124.193 246.552 123.88 247.939 123.88C249.326 123.88 250.572 124.187 251.679 124.8C252.799 125.413 253.679 126.267 254.319 127.36C254.959 128.44 255.279 129.653 255.279 131C255.279 132.347 254.959 133.567 254.319 134.66C253.679 135.74 252.799 136.587 251.679 137.2C250.572 137.813 249.326 138.12 247.939 138.12ZM247.939 136.8C249.046 136.8 250.046 136.553 250.939 136.06C251.832 135.553 252.532 134.86 253.039 133.98C253.546 133.087 253.799 132.093 253.799 131C253.799 129.907 253.546 128.92 253.039 128.04C252.532 127.147 251.832 126.453 250.939 125.96C250.046 125.453 249.046 125.2 247.939 125.2C246.832 125.2 245.826 125.453 244.919 125.96C244.026 126.453 243.319 127.147 242.799 128.04C242.292 128.92 242.039 129.907 242.039 131C242.039 132.093 242.292 133.087 242.799 133.98C243.319 134.86 244.026 135.553 244.919 136.06C245.826 136.553 246.832 136.8 247.939 136.8ZM270.296 124V138H269.076L260.076 126.64V138H258.596V124H259.816L268.836 135.36V124H270.296Z" fill="black"/>
<path d="M178.656 269C180.496 269 182.136 269.347 183.576 270.04C185.043 270.733 186.19 271.733 187.016 273.04C187.843 274.32 188.256 275.8 188.256 277.48C188.256 279.24 187.816 280.787 186.936 282.12C186.083 283.453 184.896 284.493 183.376 285.24C181.883 285.96 180.203 286.32 178.336 286.32C174.576 286.32 171.67 285.107 169.616 282.68C167.59 280.253 166.576 276.813 166.576 272.36C166.576 269.24 167.123 266.587 168.216 264.4C169.336 262.187 170.883 260.52 172.856 259.4C174.856 258.253 177.176 257.68 179.816 257.68C181.176 257.68 182.456 257.827 183.656 258.12C184.856 258.387 185.896 258.787 186.776 259.32L185.256 262.44C183.923 261.56 182.136 261.12 179.896 261.12C176.99 261.12 174.71 262.027 173.056 263.84C171.403 265.627 170.576 268.24 170.576 271.68C170.576 272.107 170.59 272.44 170.616 272.68C171.416 271.48 172.51 270.573 173.896 269.96C175.31 269.32 176.896 269 178.656 269ZM178.176 283.08C180.016 283.08 181.51 282.587 182.656 281.6C183.803 280.613 184.376 279.293 184.376 277.64C184.376 275.987 183.79 274.68 182.616 273.72C181.47 272.733 179.923 272.24 177.976 272.24C176.723 272.24 175.603 272.48 174.616 272.96C173.656 273.44 172.896 274.093 172.336 274.92C171.803 275.747 171.536 276.667 171.536 277.68C171.536 278.667 171.79 279.573 172.296 280.4C172.83 281.2 173.59 281.853 174.576 282.36C175.59 282.84 176.79 283.08 178.176 283.08ZM114.711 299L109.991 313H108.431L104.331 301.06L100.211 313H98.6709L93.9509 299H95.4709L99.5109 311.04L103.691 299H105.071L109.191 311.1L113.291 299H114.711ZM127.325 311.72V313H117.425V299H127.025V300.28H118.905V305.26H126.145V306.52H118.905V311.72H127.325ZM139.623 305.78C140.543 305.98 141.25 306.38 141.743 306.98C142.25 307.567 142.503 308.327 142.503 309.26C142.503 310.46 142.057 311.387 141.163 312.04C140.283 312.68 138.977 313 137.243 313H130.803V299H136.843C138.403 299 139.61 299.313 140.463 299.94C141.33 300.567 141.763 301.453 141.763 302.6C141.763 303.373 141.57 304.033 141.183 304.58C140.81 305.113 140.29 305.513 139.623 305.78ZM132.283 300.22V305.3H136.743C137.877 305.3 138.75 305.087 139.363 304.66C139.977 304.22 140.283 303.587 140.283 302.76C140.283 301.933 139.977 301.307 139.363 300.88C138.75 300.44 137.877 300.22 136.743 300.22H132.283ZM137.223 311.78C138.477 311.78 139.423 311.567 140.063 311.14C140.703 310.713 141.023 310.047 141.023 309.14C141.023 307.393 139.757 306.52 137.223 306.52H132.283V311.78H137.223ZM149.742 313.12C148.702 313.12 147.702 312.953 146.742 312.62C145.795 312.287 145.062 311.847 144.542 311.3L145.122 310.16C145.628 310.667 146.302 311.08 147.142 311.4C147.982 311.707 148.848 311.86 149.742 311.86C150.995 311.86 151.935 311.633 152.562 311.18C153.188 310.713 153.502 310.113 153.502 309.38C153.502 308.82 153.328 308.373 152.982 308.04C152.648 307.707 152.235 307.453 151.742 307.28C151.248 307.093 150.562 306.893 149.682 306.68C148.628 306.413 147.788 306.16 147.162 305.92C146.535 305.667 145.995 305.287 145.542 304.78C145.102 304.273 144.882 303.587 144.882 302.72C144.882 302.013 145.068 301.373 145.442 300.8C145.815 300.213 146.388 299.747 147.162 299.4C147.935 299.053 148.895 298.88 150.042 298.88C150.842 298.88 151.622 298.993 152.382 299.22C153.155 299.433 153.822 299.733 154.382 300.12L153.882 301.3C153.295 300.913 152.668 300.627 152.002 300.44C151.335 300.24 150.682 300.14 150.042 300.14C148.815 300.14 147.888 300.38 147.262 300.86C146.648 301.327 146.342 301.933 146.342 302.68C146.342 303.24 146.508 303.693 146.842 304.04C147.188 304.373 147.615 304.633 148.122 304.82C148.642 304.993 149.335 305.187 150.202 305.4C151.228 305.653 152.055 305.907 152.682 306.16C153.322 306.4 153.862 306.773 154.302 307.28C154.742 307.773 154.962 308.447 154.962 309.3C154.962 310.007 154.768 310.653 154.382 311.24C154.008 311.813 153.428 312.273 152.642 312.62C151.855 312.953 150.888 313.12 149.742 313.12ZM158.186 299H159.666V313H158.186V299ZM166.941 300.28H162.021V299H173.341V300.28H168.421V313H166.941V300.28ZM185.606 311.72V313H175.706V299H185.306V300.28H177.186V305.26H184.426V306.52H177.186V311.72H185.606ZM199.559 299C201.346 299 202.746 299.427 203.759 300.28C204.772 301.133 205.279 302.307 205.279 303.8C205.279 305.293 204.772 306.467 203.759 307.32C202.746 308.16 201.346 308.58 199.559 308.58H195.799V313H194.319V299H199.559ZM199.519 307.28C200.906 307.28 201.966 306.98 202.699 306.38C203.432 305.767 203.799 304.907 203.799 303.8C203.799 302.667 203.432 301.8 202.699 301.2C201.966 300.587 200.906 300.28 199.519 300.28H195.799V307.28H199.519ZM216.556 309.26H208.756L207.076 313H205.536L211.936 299H213.396L219.796 313H218.236L216.556 309.26ZM216.016 308.06L212.656 300.54L209.296 308.06H216.016ZM231.777 306H233.197V311.34C232.543 311.913 231.77 312.353 230.877 312.66C229.983 312.967 229.043 313.12 228.057 313.12C226.657 313.12 225.397 312.813 224.277 312.2C223.157 311.587 222.277 310.74 221.637 309.66C220.997 308.567 220.677 307.347 220.677 306C220.677 304.653 220.997 303.44 221.637 302.36C222.277 301.267 223.157 300.413 224.277 299.8C225.397 299.187 226.663 298.88 228.077 298.88C229.143 298.88 230.123 299.053 231.017 299.4C231.91 299.733 232.663 300.233 233.277 300.9L232.357 301.84C231.25 300.747 229.843 300.2 228.137 300.2C227.003 300.2 225.977 300.453 225.057 300.96C224.15 301.453 223.437 302.147 222.917 303.04C222.397 303.92 222.137 304.907 222.137 306C222.137 307.093 222.397 308.08 222.917 308.96C223.437 309.84 224.15 310.533 225.057 311.04C225.963 311.547 226.983 311.8 228.117 311.8C229.557 311.8 230.777 311.44 231.777 310.72V306ZM247.285 311.72V313H237.385V299H246.985V300.28H238.865V305.26H246.105V306.52H238.865V311.72H247.285ZM254.624 313.12C253.584 313.12 252.584 312.953 251.624 312.62C250.678 312.287 249.944 311.847 249.424 311.3L250.004 310.16C250.511 310.667 251.184 311.08 252.024 311.4C252.864 311.707 253.731 311.86 254.624 311.86C255.878 311.86 256.818 311.633 257.444 311.18C258.071 310.713 258.384 310.113 258.384 309.38C258.384 308.82 258.211 308.373 257.864 308.04C257.531 307.707 257.118 307.453 256.624 307.28C256.131 307.093 255.444 306.893 254.564 306.68C253.511 306.413 252.671 306.16 252.044 305.92C251.418 305.667 250.878 305.287 250.424 304.78C249.984 304.273 249.764 303.587 249.764 302.72C249.764 302.013 249.951 301.373 250.324 300.8C250.698 300.213 251.271 299.747 252.044 299.4C252.818 299.053 253.778 298.88 254.924 298.88C255.724 298.88 256.504 298.993 257.264 299.22C258.038 299.433 258.704 299.733 259.264 300.12L258.764 301.3C258.178 300.913 257.551 300.627 256.884 300.44C256.218 300.24 255.564 300.14 254.924 300.14C253.698 300.14 252.771 300.38 252.144 300.86C251.531 301.327 251.224 301.933 251.224 302.68C251.224 303.24 251.391 303.693 251.724 304.04C252.071 304.373 252.498 304.633 253.004 304.82C253.524 304.993 254.218 305.187 255.084 305.4C256.111 305.653 256.938 305.907 257.564 306.16C258.204 306.4 258.744 306.773 259.184 307.28C259.624 307.773 259.844 308.447 259.844 309.3C259.844 310.007 259.651 310.653 259.264 311.24C258.891 311.813 258.311 312.273 257.524 312.62C256.738 312.953 255.771 313.12 254.624 313.12Z" fill="black"/>
<path d="M175.511 189.16C179.511 189.16 182.444 189.92 184.311 191.44C186.204 192.933 187.151 194.987 187.151 197.6C187.151 199.253 186.751 200.747 185.951 202.08C185.177 203.387 183.991 204.427 182.391 205.2C180.817 205.947 178.871 206.32 176.551 206.32C174.577 206.32 172.671 206.027 170.831 205.44C168.991 204.827 167.471 203.987 166.271 202.92L168.111 199.76C169.071 200.667 170.297 201.4 171.791 201.96C173.284 202.493 174.857 202.76 176.511 202.76C178.617 202.76 180.244 202.32 181.391 201.44C182.564 200.533 183.151 199.307 183.151 197.76C183.151 196.08 182.511 194.813 181.231 193.96C179.951 193.08 177.764 192.64 174.671 192.64H168.311L169.791 178H185.591V181.48H173.151L172.391 189.16H175.511ZM119.221 216H124.921C126.401 216 127.708 216.3 128.841 216.9C129.975 217.487 130.855 218.313 131.481 219.38C132.108 220.433 132.421 221.64 132.421 223C132.421 224.36 132.108 225.573 131.481 226.64C130.855 227.693 129.975 228.52 128.841 229.12C127.708 229.707 126.401 230 124.921 230H119.221V216ZM124.841 228.72C126.068 228.72 127.141 228.48 128.061 228C128.981 227.507 129.695 226.833 130.201 225.98C130.708 225.113 130.961 224.12 130.961 223C130.961 221.88 130.708 220.893 130.201 220.04C129.695 219.173 128.981 218.5 128.061 218.02C127.141 217.527 126.068 217.28 124.841 217.28H120.701V228.72H124.841ZM145.645 228.72V230H135.745V216H145.345V217.28H137.225V222.26H144.465V223.52H137.225V228.72H145.645ZM152.984 230.12C151.944 230.12 150.944 229.953 149.984 229.62C149.037 229.287 148.304 228.847 147.784 228.3L148.364 227.16C148.87 227.667 149.544 228.08 150.384 228.4C151.224 228.707 152.09 228.86 152.984 228.86C154.237 228.86 155.177 228.633 155.804 228.18C156.43 227.713 156.744 227.113 156.744 226.38C156.744 225.82 156.57 225.373 156.224 225.04C155.89 224.707 155.477 224.453 154.984 224.28C154.49 224.093 153.804 223.893 152.924 223.68C151.87 223.413 151.03 223.16 150.404 222.92C149.777 222.667 149.237 222.287 148.784 221.78C148.344 221.273 148.124 220.587 148.124 219.72C148.124 219.013 148.31 218.373 148.684 217.8C149.057 217.213 149.63 216.747 150.404 216.4C151.177 216.053 152.137 215.88 153.284 215.88C154.084 215.88 154.864 215.993 155.624 216.22C156.397 216.433 157.064 216.733 157.624 217.12L157.124 218.3C156.537 217.913 155.91 217.627 155.244 217.44C154.577 217.24 153.924 217.14 153.284 217.14C152.057 217.14 151.13 217.38 150.504 217.86C149.89 218.327 149.584 218.933 149.584 219.68C149.584 220.24 149.75 220.693 150.084 221.04C150.43 221.373 150.857 221.633 151.364 221.82C151.884 221.993 152.577 222.187 153.444 222.4C154.47 222.653 155.297 222.907 155.924 223.16C156.564 223.4 157.104 223.773 157.544 224.28C157.984 224.773 158.204 225.447 158.204 226.3C158.204 227.007 158.01 227.653 157.624 228.24C157.25 228.813 156.67 229.273 155.884 229.62C155.097 229.953 154.13 230.12 152.984 230.12ZM161.428 216H162.908V230H161.428V216ZM177.324 223H178.744V228.34C178.09 228.913 177.317 229.353 176.424 229.66C175.53 229.967 174.59 230.12 173.604 230.12C172.204 230.12 170.944 229.813 169.824 229.2C168.704 228.587 167.824 227.74 167.184 226.66C166.544 225.567 166.224 224.347 166.224 223C166.224 221.653 166.544 220.44 167.184 219.36C167.824 218.267 168.704 217.413 169.824 216.8C170.944 216.187 172.21 215.88 173.624 215.88C174.69 215.88 175.67 216.053 176.564 216.4C177.457 216.733 178.21 217.233 178.824 217.9L177.904 218.84C176.797 217.747 175.39 217.2 173.684 217.2C172.55 217.2 171.524 217.453 170.604 217.96C169.697 218.453 168.984 219.147 168.464 220.04C167.944 220.92 167.684 221.907 167.684 223C167.684 224.093 167.944 225.08 168.464 225.96C168.984 226.84 169.697 227.533 170.604 228.04C171.51 228.547 172.53 228.8 173.664 228.8C175.104 228.8 176.324 228.44 177.324 227.72V223ZM194.632 216V230H193.412L184.412 218.64V230H182.932V216H184.152L193.172 227.36V216H194.632ZM209.102 228.72V230H199.202V216H208.802V217.28H200.682V222.26H207.922V223.52H200.682V228.72H209.102ZM222.141 230L218.941 225.5C218.581 225.54 218.207 225.56 217.821 225.56H214.061V230H212.581V216H217.821C219.607 216 221.007 216.427 222.021 217.28C223.034 218.133 223.541 219.307 223.541 220.8C223.541 221.893 223.261 222.82 222.701 223.58C222.154 224.327 221.367 224.867 220.341 225.2L223.761 230H222.141ZM217.781 224.3C219.167 224.3 220.227 223.993 220.961 223.38C221.694 222.767 222.061 221.907 222.061 220.8C222.061 219.667 221.694 218.8 220.961 218.2C220.227 217.587 219.167 217.28 217.781 217.28H214.061V224.3H217.781ZM230.894 230.12C229.854 230.12 228.854 229.953 227.894 229.62C226.947 229.287 226.214 228.847 225.694 228.3L226.274 227.16C226.781 227.667 227.454 228.08 228.294 228.4C229.134 228.707 230.001 228.86 230.894 228.86C232.147 228.86 233.087 228.633 233.714 228.18C234.341 227.713 234.654 227.113 234.654 226.38C234.654 225.82 234.481 225.373 234.134 225.04C233.801 224.707 233.387 224.453 232.894 224.28C232.401 224.093 231.714 223.893 230.834 223.68C229.781 223.413 228.941 223.16 228.314 222.92C227.687 222.667 227.147 222.287 226.694 221.78C226.254 221.273 226.034 220.587 226.034 219.72C226.034 219.013 226.221 218.373 226.594 217.8C226.967 217.213 227.541 216.747 228.314 216.4C229.087 216.053 230.047 215.88 231.194 215.88C231.994 215.88 232.774 215.993 233.534 216.22C234.307 216.433 234.974 216.733 235.534 217.12L235.034 218.3C234.447 217.913 233.821 217.627 233.154 217.44C232.487 217.24 231.834 217.14 231.194 217.14C229.967 217.14 229.041 217.38 228.414 217.86C227.801 218.327 227.494 218.933 227.494 219.68C227.494 220.24 227.661 220.693 227.994 221.04C228.341 221.373 228.767 221.633 229.274 221.82C229.794 221.993 230.487 222.187 231.354 222.4C232.381 222.653 233.207 222.907 233.834 223.16C234.474 223.4 235.014 223.773 235.454 224.28C235.894 224.773 236.114 225.447 236.114 226.3C236.114 227.007 235.921 227.653 235.534 228.24C235.161 228.813 234.581 229.273 233.794 229.62C233.007 229.953 232.041 230.12 230.894 230.12Z" fill="black"/>
</svg>
