<svg width="202" height="43" viewBox="0 0 202 43" fill="none" xmlns="http://www.w3.org/2000/svg">
<path d="M0 40L151.5 40" stroke="#282D35" stroke-width="2.5"/>
<line x1="177" y1="39.75" x2="202" y2="39.75" stroke="#282D35" stroke-width="2.5"/>
<path d="M158.125 26.875H155.438V40.3125H158.125V26.875ZM179.625 30.9062H176.938V40.3125H179.625V30.9062Z" fill="#282D35"/>
<path d="M163.5 40.3125H166.188V34.9375C166.188 34.5812 166.33 34.2396 166.581 33.9877C166.833 33.7358 167.175 33.5941 167.531 33.5938H170.219V40.3125H172.906V30.9063H167.531C166.462 30.9073 165.438 31.3324 164.682 32.0882C163.926 32.8439 163.501 33.8687 163.5 34.9375V40.3125ZM174.922 29.5625C176.169 29.5611 177.364 29.0651 178.246 28.1834C179.128 27.3017 179.624 26.1063 179.625 24.8594V22.8438H182.312V20.1563H176.938V24.8594C176.938 25.394 176.725 25.9066 176.347 26.2846C175.969 26.6626 175.456 26.875 174.922 26.875C174.387 26.875 173.875 26.6626 173.497 26.2846C173.119 25.9066 172.906 25.394 172.906 24.8594V20.1563H167.531V22.8438H170.219V24.8594C170.22 26.1063 170.716 27.3017 171.598 28.1834C172.48 29.0651 173.675 29.5611 174.922 29.5625ZM148.719 13.4375H156.306C157.112 13.4348 157.901 13.6752 158.568 14.1272C159.236 14.5793 159.752 15.2221 160.049 15.9718L161.987 20.816L166.834 26.8763L164.735 28.556L159.763 22.3398L157.553 16.9702C157.454 16.7203 157.282 16.506 157.059 16.3553C156.837 16.2045 156.574 16.1243 156.306 16.125H148.719C148.362 16.125 148.021 16.2666 147.769 16.5186C147.517 16.7706 147.375 17.1124 147.375 17.4688V26.875H151.406V40.3125H148.719V29.5625H147.375C146.662 29.5618 145.979 29.2784 145.475 28.7746C144.972 28.2707 144.688 27.5876 144.688 26.875V17.4688C144.689 16.3999 145.114 15.3752 145.869 14.6194C146.625 13.8636 147.65 13.4386 148.719 13.4375ZM152.75 12.0938C153.813 12.0938 154.852 11.7785 155.736 11.1879C156.62 10.5973 157.309 9.75783 157.716 8.77568C158.123 7.79352 158.229 6.71279 158.022 5.67014C157.814 4.62749 157.302 3.66976 156.551 2.91805C155.799 2.16635 154.841 1.65443 153.799 1.44703C152.756 1.23964 151.675 1.34608 150.693 1.7529C149.711 2.15972 148.871 2.84865 148.281 3.73256C147.69 4.61648 147.375 5.65568 147.375 6.71875C147.377 8.14375 147.944 9.50986 148.951 10.5175C149.959 11.5251 151.325 12.092 152.75 12.0938ZM152.75 4.03125C153.282 4.03125 153.801 4.18887 154.243 4.48418C154.685 4.77948 155.03 5.19921 155.233 5.69029C155.436 6.18137 155.49 6.72173 155.386 7.24306C155.282 7.76438 155.026 8.24325 154.65 8.6191C154.274 8.99496 153.796 9.25092 153.274 9.35461C152.753 9.45831 152.213 9.40509 151.722 9.20168C151.23 8.99827 150.811 8.6538 150.515 8.21185C150.22 7.76989 150.062 7.25029 150.062 6.71875C150.063 6.0062 150.347 5.32304 150.85 4.81919C151.354 4.31534 152.037 4.03196 152.75 4.03125Z" fill="#282D35"/>
</svg>
